<svg xmlns="http://www.w3.org/2000/svg" width="21.333" height="21.333" version="1.0" viewBox="0 0 16 16">
  <path stroke="none" d="M.006.003C.038.096 7.97 15.997 7.981 16 7.994 16 15.991.09 16.02.006c.01-.022-2.682-.032-8.006-.032C3.164-.026 0-.013.006.003zm7.068 3.65v.453h-.908v-.908h.908v.454zm1.408 0v.453h-.939v-.908h.94v.454zm1.378 0v.453h-.908v-.908h.908v.454zM7.074 5.06v.454h-.908v-.908h.908v.454zm1.408 0v.454h-.939v-.908h.94v.454zm1.378 0v.454h-.908v-.908h.908v.454zM7.074 6.438v.454h-.908v-.908h.908v.454zm1.408 0v.454h-.939v-.908h.94v.454zm1.409 0v.454h-.94v-.908h.94v.454zM8.482 7.846V8.3h-.939v-.908h.94v.454z"/>
</svg>
