<svg xmlns="http://www.w3.org/2000/svg" xmlns:xlink="http://www.w3.org/1999/xlink" xmlns:lucid="lucid" width="962" height="538"><g transform="translate(513 -103)" lucid:page-tab-id="p9c3uoOf_VPw"><path d="M-768 0H800v1400H-768z" fill="#fff"/><path d="M-512 128.5a2 2 0 0 1 2-2h956a2 2 0 0 1 2 2V638a2 2 0 0 1-2 2h-956a2 2 0 0 1-2-2z" stroke="#7b42bc" stroke-opacity=".6" stroke-width="2" fill="#fff"/><path d="M-504 106a2 2 0 0 1 2-2h107.5a2 2 0 0 1 2 2v38a2 2 0 0 1-2 2H-502a2 2 0 0 1-2-2z" stroke="#000" stroke-opacity="0" stroke-width="2" fill="#fff"/><use xlink:href="#a" transform="matrix(1,0,0,1,-499,109) translate(1.7486979166666856 21.33333333333333)"/><path d="M-448 192a2 2 0 0 1 2-2h828a2 2 0 0 1 2 2v382a2 2 0 0 1-2 2h-828a2 2 0 0 1-2-2z" stroke="#7b42bc" stroke-width="2" fill="#fff"/><path d="M-437 170a2 2 0 0 1 2-2h73a2 2 0 0 1 2 2v38a2 2 0 0 1-2 2h-73a2 2 0 0 1-2-2z" stroke="#000" stroke-opacity="0" stroke-width="2" fill="#fff"/><use xlink:href="#b" transform="matrix(1,0,0,1,-432,173) translate(5.277343750000011 21.33333333333333)"/><path d="M-384 256a2 2 0 0 1 2-2h188a2 2 0 0 1 2 2v102a2 2 0 0 1-2 2h-188a2 2 0 0 1-2-2z" stroke="#7b42bc" stroke-width="2" fill="#fff"/><path d="M-373 234a2 2 0 0 1 2-2h97a2 2 0 0 1 2 2v38a2 2 0 0 1-2 2h-97a2 2 0 0 1-2-2z" stroke="#000" stroke-opacity="0" stroke-width="2" fill="#fff"/><use xlink:href="#c" transform="matrix(1,0,0,1,-368,237) translate(5.6822916666666785 21.33333333333333)"/><path d="M-128 256a2 2 0 0 1 2-2h444a2 2 0 0 1 2 2v254a2 2 0 0 1-2 2h-444a2 2 0 0 1-2-2z" stroke="#7b42bc" stroke-width="2" fill="#fff"/><path d="M-117 234a2 2 0 0 1 2-2h65a2 2 0 0 1 2 2v38a2 2 0 0 1-2 2h-65a2 2 0 0 1-2-2z" stroke="#000" stroke-opacity="0" stroke-width="2" fill="#fff"/><use xlink:href="#d" transform="matrix(1,0,0,1,-112,237) translate(8.510416666666675 21.33333333333333)"/><path d="M-64 306a2 2 0 0 1 2-2h60a2 2 0 0 1 2 2v148a2 2 0 0 1-2 2h-60a2 2 0 0 1-2-2zM64 306a2 2 0 0 1 2-2h60a2 2 0 0 1 2 2v148a2 2 0 0 1-2 2H66a2 2 0 0 1-2-2zM192 306a2 2 0 0 1 2-2h60a2 2 0 0 1 2 2v148a2 2 0 0 1-2 2h-60a2 2 0 0 1-2-2z" stroke="#7b42bc" stroke-width="2" fill="#fff"/><path d="M-43 329.25c0-.7.55-1.25 1.25-1.25h3.5c.68 0 1.26.55 1.26 1.25v3.5c0 .68-.57 1.26-1.25 1.26h-3.5c-.7 0-1.25-.57-1.25-1.25v-3.5zm1.5.25v3h3v-3h-3zm6.5-.25c0-.7.56-1.25 1.24-1.25h3.52c.68 0 1.23.55 1.23 1.25v3.5c0 .68-.56 1.26-1.24 1.26h-3.52c-.68 0-1.23-.57-1.23-1.25v-3.5zm1.5.25v3h3v-3h-3zm7.75-1.5c-.68 0-1.26.55-1.26 1.25v3.5c0 .68.57 1.26 1.25 1.26h3.5c.7 0 1.25-.57 1.25-1.25v-3.5c0-.7-.55-1.25-1.25-1.25h-3.5zm.24 4.5v-3h3v3h-3zm-17.5 4.74c0-.68.55-1.23 1.25-1.23h3.5c.68 0 1.26.56 1.26 1.24v3.52c0 .68-.57 1.23-1.25 1.23h-3.5c-.7 0-1.25-.56-1.25-1.24v-3.52zm1.5.26v3h3v-3h-3zm7.74-1.5c-.68 0-1.23.56-1.23 1.24v3.52c0 .68.56 1.23 1.24 1.23h3.52c.68 0 1.23-.56 1.23-1.24v-3.52c0-.68-.56-1.23-1.24-1.23h-3.52zm.26 4.5v-3h3v3h-3zm6.5-3.26c0-.68.57-1.23 1.25-1.23h3.5c.7 0 1.25.56 1.25 1.24v3.52c0 .68-.55 1.23-1.25 1.23h-3.5c-.68 0-1.26-.56-1.26-1.24v-3.52zm1.5.26v3h3v-3h-3zm-16.25 6.5c-.7 0-1.25.57-1.25 1.25v3.5c0 .7.55 1.25 1.25 1.25h3.5c.68 0 1.26-.55 1.26-1.25v-3.5c0-.68-.57-1.26-1.25-1.26h-3.5zm.25 4.5v-3h3v3h-3zm6.5-3.25c0-.68.56-1.26 1.24-1.26h3.52c.68 0 1.23.57 1.23 1.25v3.5c0 .7-.56 1.25-1.24 1.25h-3.52c-.68 0-1.23-.55-1.23-1.25v-3.5zm1.5.24v3h3v-3h-3zm7.75-1.5c-.68 0-1.26.57-1.26 1.25v3.5c0 .7.57 1.25 1.25 1.25h3.5c.7 0 1.25-.55 1.25-1.25v-3.5c0-.68-.55-1.26-1.25-1.26h-3.5zm.24 4.5v-3h3v3h-3zM-43 405.25c0-.7.55-1.25 1.25-1.25h3.5c.68 0 1.26.55 1.26 1.25v3.5c0 .68-.57 1.26-1.25 1.26h-3.5c-.7 0-1.25-.57-1.25-1.25v-3.5zm1.5.25v3h3v-3h-3zm6.5-.25c0-.7.56-1.25 1.24-1.25h3.52c.68 0 1.23.55 1.23 1.25v3.5c0 .68-.56 1.26-1.24 1.26h-3.52c-.68 0-1.23-.57-1.23-1.25v-3.5zm1.5.25v3h3v-3h-3zm7.75-1.5c-.68 0-1.26.55-1.26 1.25v3.5c0 .68.57 1.26 1.25 1.26h3.5c.7 0 1.25-.57 1.25-1.25v-3.5c0-.7-.55-1.25-1.25-1.25h-3.5zm.24 4.5v-3h3v3h-3zm-17.5 4.74c0-.68.55-1.23 1.25-1.23h3.5c.68 0 1.26.56 1.26 1.24v3.52c0 .68-.57 1.23-1.25 1.23h-3.5c-.7 0-1.25-.56-1.25-1.24v-3.52zm1.5.26v3h3v-3h-3zm7.74-1.5c-.68 0-1.23.56-1.23 1.24v3.52c0 .68.56 1.23 1.24 1.23h3.52c.68 0 1.23-.56 1.23-1.24v-3.52c0-.68-.56-1.23-1.24-1.23h-3.52zm.26 4.5v-3h3v3h-3zm6.5-3.26c0-.68.57-1.23 1.25-1.23h3.5c.7 0 1.25.56 1.25 1.24v3.52c0 .68-.55 1.23-1.25 1.23h-3.5c-.68 0-1.26-.56-1.26-1.24v-3.52zm1.5.26v3h3v-3h-3zm-16.25 6.5c-.7 0-1.25.57-1.25 1.25v3.5c0 .7.55 1.25 1.25 1.25h3.5c.68 0 1.26-.55 1.26-1.25v-3.5c0-.68-.57-1.26-1.25-1.26h-3.5zm.25 4.5v-3h3v3h-3zm6.5-3.25c0-.68.56-1.26 1.24-1.26h3.52c.68 0 1.23.57 1.23 1.25v3.5c0 .7-.56 1.25-1.24 1.25h-3.52c-.68 0-1.23-.55-1.23-1.25v-3.5zm1.5.24v3h3v-3h-3zm7.75-1.5c-.68 0-1.26.57-1.26 1.25v3.5c0 .7.57 1.25 1.25 1.25h3.5c.7 0 1.25-.55 1.25-1.25v-3.5c0-.68-.55-1.26-1.25-1.26h-3.5zm.24 4.5v-3h3v3h-3zM-344 297.25c0-.7.55-1.25 1.25-1.25h3.5c.68 0 1.26.55 1.26 1.25v3.5c0 .68-.57 1.26-1.25 1.26h-3.5c-.7 0-1.25-.57-1.25-1.25v-3.5zm1.5.25v3h3v-3h-3zm6.5-.25c0-.7.56-1.25 1.24-1.25h3.52c.68 0 1.23.55 1.23 1.25v3.5c0 .68-.56 1.26-1.24 1.26h-3.52c-.68 0-1.23-.57-1.23-1.25v-3.5zm1.5.25v3h3v-3h-3zm7.75-1.5c-.68 0-1.26.55-1.26 1.25v3.5c0 .68.57 1.26 1.25 1.26h3.5c.7 0 1.25-.57 1.25-1.25v-3.5c0-.7-.55-1.25-1.25-1.25h-3.5zm.24 4.5v-3h3v3h-3zm-17.5 4.74c0-.68.55-1.23 1.25-1.23h3.5c.68 0 1.26.56 1.26 1.24v3.52c0 .68-.57 1.23-1.25 1.23h-3.5c-.7 0-1.25-.56-1.25-1.24v-3.52zm1.5.26v3h3v-3h-3zm7.74-1.5c-.68 0-1.23.56-1.23 1.24v3.52c0 .68.56 1.23 1.24 1.23h3.52c.68 0 1.23-.56 1.23-1.24v-3.52c0-.68-.56-1.23-1.24-1.23h-3.52zm.26 4.5v-3h3v3h-3zm6.5-3.26c0-.68.57-1.23 1.25-1.23h3.5c.7 0 1.25.56 1.25 1.24v3.52c0 .68-.55 1.23-1.25 1.23h-3.5c-.68 0-1.26-.56-1.26-1.24v-3.52zm1.5.26v3h3v-3h-3zm-16.25 6.5c-.7 0-1.25.57-1.25 1.25v3.5c0 .7.55 1.25 1.25 1.25h3.5c.68 0 1.26-.55 1.26-1.25v-3.5c0-.68-.57-1.26-1.25-1.26h-3.5zm.25 4.5v-3h3v3h-3zm6.5-3.25c0-.68.56-1.26 1.24-1.26h3.52c.68 0 1.23.57 1.23 1.25v3.5c0 .7-.56 1.25-1.24 1.25h-3.52c-.68 0-1.23-.55-1.23-1.25v-3.5zm1.5.24v3h3v-3h-3zm7.75-1.5c-.68 0-1.26.57-1.26 1.25v3.5c0 .7.57 1.25 1.25 1.25h3.5c.7 0 1.25-.55 1.25-1.25v-3.5c0-.68-.55-1.26-1.25-1.26h-3.5zm.24 4.5v-3h3v3h-3zM85 329.25c0-.7.55-1.25 1.25-1.25h3.5c.68 0 1.26.55 1.26 1.25v3.5c0 .68-.57 1.26-1.25 1.26h-3.5c-.7 0-1.25-.57-1.25-1.25v-3.5zm1.5.25v3h3v-3h-3zm6.5-.25c0-.7.56-1.25 1.24-1.25h3.52c.68 0 1.23.55 1.23 1.25v3.5c0 .68-.56 1.26-1.24 1.26h-3.52c-.68 0-1.23-.57-1.23-1.25v-3.5zm1.5.25v3h3v-3h-3zm7.75-1.5c-.68 0-1.26.55-1.26 1.25v3.5c0 .68.57 1.26 1.25 1.26h3.5c.7 0 1.25-.57 1.25-1.25v-3.5c0-.7-.55-1.25-1.25-1.25h-3.5zm.24 4.5v-3h3v3h-3zM85 337.25c0-.68.55-1.23 1.25-1.23h3.5c.68 0 1.26.56 1.26 1.24v3.52c0 .68-.57 1.23-1.25 1.23h-3.5c-.7 0-1.25-.56-1.25-1.24v-3.52zm1.5.26v3h3v-3h-3zm7.74-1.5c-.68 0-1.23.56-1.23 1.24v3.52c0 .68.56 1.23 1.24 1.23h3.52c.68 0 1.23-.56 1.23-1.24v-3.52c0-.68-.56-1.23-1.24-1.23h-3.52zm.26 4.5v-3h3v3h-3zm6.5-3.26c0-.68.57-1.23 1.25-1.23h3.5c.7 0 1.25.56 1.25 1.24v3.52c0 .68-.55 1.23-1.25 1.23h-3.5c-.68 0-1.26-.56-1.26-1.24v-3.52zm1.5.26v3h3v-3h-3zM86.24 344c-.7 0-1.25.57-1.25 1.25v3.5c0 .7.55 1.25 1.25 1.25h3.5c.68 0 1.26-.55 1.26-1.25v-3.5c0-.68-.57-1.26-1.25-1.26h-3.5zm.25 4.5v-3h3v3h-3zm6.5-3.25c0-.68.56-1.26 1.24-1.26h3.52c.68 0 1.23.57 1.23 1.25v3.5c0 .7-.56 1.25-1.24 1.25h-3.52c-.68 0-1.23-.55-1.23-1.25v-3.5zm1.5.24v3h3v-3h-3zm7.75-1.5c-.68 0-1.26.57-1.26 1.25v3.5c0 .7.57 1.25 1.25 1.25h3.5c.7 0 1.25-.55 1.25-1.25v-3.5c0-.68-.55-1.26-1.25-1.26h-3.5zm.24 4.5v-3h3v3h-3zM85 405.25c0-.7.55-1.25 1.25-1.25h3.5c.68 0 1.26.55 1.26 1.25v3.5c0 .68-.57 1.26-1.25 1.26h-3.5c-.7 0-1.25-.57-1.25-1.25v-3.5zm1.5.25v3h3v-3h-3zm6.5-.25c0-.7.56-1.25 1.24-1.25h3.52c.68 0 1.23.55 1.23 1.25v3.5c0 .68-.56 1.26-1.24 1.26h-3.52c-.68 0-1.23-.57-1.23-1.25v-3.5zm1.5.25v3h3v-3h-3zm7.75-1.5c-.68 0-1.26.55-1.26 1.25v3.5c0 .68.57 1.26 1.25 1.26h3.5c.7 0 1.25-.57 1.25-1.25v-3.5c0-.7-.55-1.25-1.25-1.25h-3.5zm.24 4.5v-3h3v3h-3zM85 413.25c0-.68.55-1.23 1.25-1.23h3.5c.68 0 1.26.56 1.26 1.24v3.52c0 .68-.57 1.23-1.25 1.23h-3.5c-.7 0-1.25-.56-1.25-1.24v-3.52zm1.5.26v3h3v-3h-3zm7.74-1.5c-.68 0-1.23.56-1.23 1.24v3.52c0 .68.56 1.23 1.24 1.23h3.52c.68 0 1.23-.56 1.23-1.24v-3.52c0-.68-.56-1.23-1.24-1.23h-3.52zm.26 4.5v-3h3v3h-3zm6.5-3.26c0-.68.57-1.23 1.25-1.23h3.5c.7 0 1.25.56 1.25 1.24v3.52c0 .68-.55 1.23-1.25 1.23h-3.5c-.68 0-1.26-.56-1.26-1.24v-3.52zm1.5.26v3h3v-3h-3zM86.24 420c-.7 0-1.25.57-1.25 1.25v3.5c0 .7.55 1.25 1.25 1.25h3.5c.68 0 1.26-.55 1.26-1.25v-3.5c0-.68-.57-1.26-1.25-1.26h-3.5zm.25 4.5v-3h3v3h-3zm6.5-3.25c0-.68.56-1.26 1.24-1.26h3.52c.68 0 1.23.57 1.23 1.25v3.5c0 .7-.56 1.25-1.24 1.25h-3.52c-.68 0-1.23-.55-1.23-1.25v-3.5zm1.5.24v3h3v-3h-3zm7.75-1.5c-.68 0-1.26.57-1.26 1.25v3.5c0 .7.57 1.25 1.25 1.25h3.5c.7 0 1.25-.55 1.25-1.25v-3.5c0-.68-.55-1.26-1.25-1.26h-3.5zm.24 4.5v-3h3v3h-3zM213 329.25c0-.7.55-1.25 1.25-1.25h3.5c.68 0 1.26.55 1.26 1.25v3.5c0 .68-.57 1.26-1.25 1.26h-3.5c-.7 0-1.25-.57-1.25-1.25v-3.5zm1.5.25v3h3v-3h-3zm6.5-.25c0-.7.56-1.25 1.24-1.25h3.52c.68 0 1.23.55 1.23 1.25v3.5c0 .68-.56 1.26-1.24 1.26h-3.52c-.68 0-1.23-.57-1.23-1.25v-3.5zm1.5.25v3h3v-3h-3zm7.75-1.5c-.68 0-1.26.55-1.26 1.25v3.5c0 .68.57 1.26 1.25 1.26h3.5c.7 0 1.25-.57 1.25-1.25v-3.5c0-.7-.55-1.25-1.25-1.25h-3.5zm.24 4.5v-3h3v3h-3zm-17.5 4.74c0-.68.55-1.23 1.25-1.23h3.5c.68 0 1.26.56 1.26 1.24v3.52c0 .68-.57 1.23-1.25 1.23h-3.5c-.7 0-1.25-.56-1.25-1.24v-3.52zm1.5.26v3h3v-3h-3zm7.74-1.5c-.68 0-1.23.56-1.23 1.24v3.52c0 .68.56 1.23 1.24 1.23h3.52c.68 0 1.23-.56 1.23-1.24v-3.52c0-.68-.56-1.23-1.24-1.23h-3.52zm.26 4.5v-3h3v3h-3zm6.5-3.26c0-.68.57-1.23 1.25-1.23h3.5c.7 0 1.25.56 1.25 1.24v3.52c0 .68-.55 1.23-1.25 1.23h-3.5c-.68 0-1.26-.56-1.26-1.24v-3.52zm1.5.26v3h3v-3h-3zm-16.25 6.5c-.7 0-1.25.57-1.25 1.25v3.5c0 .7.55 1.25 1.25 1.25h3.5c.68 0 1.26-.55 1.26-1.25v-3.5c0-.68-.57-1.26-1.25-1.26h-3.5zm.25 4.5v-3h3v3h-3zm6.5-3.25c0-.68.56-1.26 1.24-1.26h3.52c.68 0 1.23.57 1.23 1.25v3.5c0 .7-.56 1.25-1.24 1.25h-3.52c-.68 0-1.23-.55-1.23-1.25v-3.5zm1.5.24v3h3v-3h-3zm7.75-1.5c-.68 0-1.26.57-1.26 1.25v3.5c0 .7.57 1.25 1.25 1.25h3.5c.7 0 1.25-.55 1.25-1.25v-3.5c0-.68-.55-1.26-1.25-1.26h-3.5zm.24 4.5v-3h3v3h-3zM213 405.25c0-.7.55-1.25 1.25-1.25h3.5c.68 0 1.26.55 1.26 1.25v3.5c0 .68-.57 1.26-1.25 1.26h-3.5c-.7 0-1.25-.57-1.25-1.25v-3.5zm1.5.25v3h3v-3h-3zm6.5-.25c0-.7.56-1.25 1.24-1.25h3.52c.68 0 1.23.55 1.23 1.25v3.5c0 .68-.56 1.26-1.24 1.26h-3.52c-.68 0-1.23-.57-1.23-1.25v-3.5zm1.5.25v3h3v-3h-3zm7.75-1.5c-.68 0-1.26.55-1.26 1.25v3.5c0 .68.57 1.26 1.25 1.26h3.5c.7 0 1.25-.57 1.25-1.25v-3.5c0-.7-.55-1.25-1.25-1.25h-3.5zm.24 4.5v-3h3v3h-3zm-17.5 4.74c0-.68.55-1.23 1.25-1.23h3.5c.68 0 1.26.56 1.26 1.24v3.52c0 .68-.57 1.23-1.25 1.23h-3.5c-.7 0-1.25-.56-1.25-1.24v-3.52zm1.5.26v3h3v-3h-3zm7.74-1.5c-.68 0-1.23.56-1.23 1.24v3.52c0 .68.56 1.23 1.24 1.23h3.52c.68 0 1.23-.56 1.23-1.24v-3.52c0-.68-.56-1.23-1.24-1.23h-3.52zm.26 4.5v-3h3v3h-3zm6.5-3.26c0-.68.57-1.23 1.25-1.23h3.5c.7 0 1.25.56 1.25 1.24v3.52c0 .68-.55 1.23-1.25 1.23h-3.5c-.68 0-1.26-.56-1.26-1.24v-3.52zm1.5.26v3h3v-3h-3zm-16.25 6.5c-.7 0-1.25.57-1.25 1.25v3.5c0 .7.55 1.25 1.25 1.25h3.5c.68 0 1.26-.55 1.26-1.25v-3.5c0-.68-.57-1.26-1.25-1.26h-3.5zm.25 4.5v-3h3v3h-3zm6.5-3.25c0-.68.56-1.26 1.24-1.26h3.52c.68 0 1.23.57 1.23 1.25v3.5c0 .7-.56 1.25-1.24 1.25h-3.52c-.68 0-1.23-.55-1.23-1.25v-3.5zm1.5.24v3h3v-3h-3zm7.75-1.5c-.68 0-1.26.57-1.26 1.25v3.5c0 .7.57 1.25 1.25 1.25h3.5c.7 0 1.25-.55 1.25-1.25v-3.5c0-.68-.55-1.26-1.25-1.26h-3.5zm.24 4.5v-3h3v3h-3z" stroke="#000" stroke-opacity="0" fill="#1d1e1f"/><path d="M-312 288a2 2 0 0 1 2-2h97a2 2 0 0 1 2 2v38a2 2 0 0 1-2 2h-97a2 2 0 0 1-2-2z" stroke="#000" stroke-opacity="0" stroke-width="2" fill="#fff"/><use xlink:href="#e" transform="matrix(1,0,0,1,-307,291) translate(7.775390625000014 21.33333333333333)"/><path d="M61.5 264a2 2 0 0 1 2-2h65a2 2 0 0 1 2 2v30a2 2 0 0 1-2 2h-65a2 2 0 0 1-2-2z" stroke="#000" stroke-opacity="0" stroke-width="2" fill="#fff"/><use xlink:href="#f" transform="matrix(1,0,0,1,66.5,267) translate(-17.228515624999986 17.33203125)"/><path d="M-110 414.5a2 2 0 0 1-2-2V352a2 2 0 0 1 2-2h28a2 2 0 0 1 2 2v60.5a2 2 0 0 1-2 2z" stroke="#000" stroke-opacity="0" stroke-width="2" fill="#fff"/><use xlink:href="#g" transform="matrix(6.123233995736766e-17,-1,1,6.123233995736766e-17,-107,409.5) translate(-18.164062499999986 16.33203125)"/><defs><path fill="#3a414a" d="M1442-713c0 399-294 733-680 733C377 20 82-318 82-717c0-397 295-733 680-733 386 0 680 336 680 737zm-1120 2c0 273 179 512 438 512 268 0 446-229 446-508 0-280-175-528-444-528-267 0-440 245-440 524" id="h"/><path fill="#3a414a" d="M1192-1040c0 170-98 311-217 354 197 49 192 315 208 553 6 52 19 96 40 133H969c-77-174 31-521-183-588-102-30-275-14-407-18V2H154v-1436l618-2c234-8 420 170 420 396zm-223 20c1-150-103-221-254-221H379v440h336c153 0 255-68 254-219" id="i"/><path fill="#3a414a" d="M1178-211C1100-84 939 9 745 10 362 17 82-315 82-711c0-404 284-737 684-737 341 0 586 225 625 520h-258c-27-160-182-297-377-297-263 0-422 247-422 516 0 262 162 505 416 498 207-6 366-123 405-313H745v-213h646V0h-197" id="j"/><path fill="#3a414a" d="M430-352L297 0 41-2l549-1432h229L1368 0h-256L977-352H430zm275-801L492-557h423" id="k"/><path fill="#3a414a" d="M1311 2l-297-2-645-1096V0H154v-1434h276l666 1131v-1131h215V2" id="l"/><path fill="#3a414a" d="M399 0H164v-1434h235V0" id="m"/><path fill="#3a414a" d="M1235 0H82v-223l889-987H94v-224h1153v224L375-223h860V0" id="n"/><path fill="#3a414a" d="M715 0H496l2-1223H2l-2-211h1208l2 211-493-2" id="o"/><g id="a"><use transform="matrix(0.006510416666666664,0,0,0.006510416666666664,0,0)" xlink:href="#h"/><use transform="matrix(0.006510416666666664,0,0,0.006510416666666664,9.91536458333333,0)" xlink:href="#i"/><use transform="matrix(0.006510416666666664,0,0,0.006510416666666664,17.47395833333333,0)" xlink:href="#j"/><use transform="matrix(0.006510416666666664,0,0,0.006510416666666664,27.454427083333325,0)" xlink:href="#k"/><use transform="matrix(0.006510416666666664,0,0,0.006510416666666664,36.62760416666666,0)" xlink:href="#l"/><use transform="matrix(0.006510416666666664,0,0,0.006510416666666664,46.15885416666666,0)" xlink:href="#m"/><use transform="matrix(0.006510416666666664,0,0,0.006510416666666664,49.824218749999986,0)" xlink:href="#n"/><use transform="matrix(0.006510416666666664,0,0,0.006510416666666664,58.33984374999999,0)" xlink:href="#k"/><use transform="matrix(0.006510416666666664,0,0,0.006510416666666664,67.51302083333331,0)" xlink:href="#o"/><use transform="matrix(0.006510416666666664,0,0,0.006510416666666664,75.39062499999997,0)" xlink:href="#m"/><use transform="matrix(0.006510416666666664,0,0,0.006510416666666664,79.0559895833333,0)" xlink:href="#h"/><use transform="matrix(0.006510416666666664,0,0,0.006510416666666664,88.97135416666663,0)" xlink:href="#l"/></g><path fill="#3a414a" d="M1188-997c0 246-184 430-432 430H375V2H154v-1436l614-2c244-6 420 195 420 439zm-223-3c0-149-109-241-254-241H375v479h336c145 1 254-88 254-238" id="p"/><path fill="#3a414a" d="M940-461c9 277-197 477-461 477C212 16 15-168 20-436v-113h216v105c-3 143 102 249 243 247 144-2 230-113 230-272v-965h231v973" id="q"/><path fill="#3a414a" d="M1094 0H154v-1434h940v220H373v383h678v210H373v402h721V0" id="r"/><path fill="#3a414a" d="M1391-514c-47 295-292 524-639 524C374 10 82-321 82-711c0-404 284-737 684-737 341 0 586 225 625 520h-258c-27-160-182-297-377-297-263 0-422 247-422 516 0 262 160 498 414 498 202 0 352-144 385-303h258" id="s"/><g id="b"><use transform="matrix(0.006510416666666664,0,0,0.006510416666666664,0,0)" xlink:href="#p"/><use transform="matrix(0.006510416666666664,0,0,0.006510416666666664,7.994791666666663,0)" xlink:href="#i"/><use transform="matrix(0.006510416666666664,0,0,0.006510416666666664,15.55338541666666,0)" xlink:href="#h"/><use transform="matrix(0.006510416666666664,0,0,0.006510416666666664,25.338541666666657,0)" xlink:href="#q"/><use transform="matrix(0.006510416666666664,0,0,0.006510416666666664,32.324218749999986,0)" xlink:href="#r"/><use transform="matrix(0.006510416666666664,0,0,0.006510416666666664,39.446614583333314,0)" xlink:href="#s"/><use transform="matrix(0.006510416666666664,0,0,0.006510416666666664,48.567708333333314,0)" xlink:href="#o"/></g><path fill="#3a414a" d="M676 0H465L31-1434h231L571-322l299-1112h213l318 1112 289-1112h229L1505 0h-211L977-1096" id="t"/><path fill="#3a414a" d="M369 0H154v-1434h215v705l635-705h274L674-766 1300 0h-286L518-606 369-438V0" id="u"/><path fill="#3a414a" d="M1190-412c3 272-247 426-531 426C363 14 82-154 72-442h254c34 153 148 243 333 243 144 0 272-89 275-215 0-117-87-183-262-200-197-21-340-69-428-143-89-74-133-164-133-269-2-249 247-420 512-420 311 0 523 166 536 455H918c-5-145-144-234-297-234-136 0-249 77-254 191 0 54 26 98 77 132s122 57 213 68c194 22 331 69 412 142s121 166 121 280" id="v"/><g id="c"><use transform="matrix(0.006510416666666664,0,0,0.006510416666666664,0,0)" xlink:href="#t"/><use transform="matrix(0.006510416666666664,0,0,0.006510416666666664,12.421874999999995,0)" xlink:href="#h"/><use transform="matrix(0.006510416666666664,0,0,0.006510416666666664,22.337239583333325,0)" xlink:href="#i"/><use transform="matrix(0.006510416666666664,0,0,0.006510416666666664,30.29296874999999,0)" xlink:href="#u"/><use transform="matrix(0.006510416666666664,0,0,0.006510416666666664,38.554687499999986,0)" xlink:href="#v"/><use transform="matrix(0.006510416666666664,0,0,0.006510416666666664,46.76432291666665,0)" xlink:href="#p"/><use transform="matrix(0.006510416666666664,0,0,0.006510416666666664,53.42447916666665,0)" xlink:href="#k"/><use transform="matrix(0.006510416666666664,0,0,0.006510416666666664,62.59765624999998,0)" xlink:href="#s"/><use transform="matrix(0.006510416666666664,0,0,0.006510416666666664,72.11588541666664,0)" xlink:href="#r"/></g><g id="d"><use transform="matrix(0.006510416666666664,0,0,0.006510416666666664,0,0)" xlink:href="#v"/><use transform="matrix(0.006510416666666664,0,0,0.006510416666666664,8.07942708333333,0)" xlink:href="#o"/><use transform="matrix(0.006510416666666664,0,0,0.006510416666666664,14.759114583333329,0)" xlink:href="#k"/><use transform="matrix(0.006510416666666664,0,0,0.006510416666666664,23.932291666666657,0)" xlink:href="#s"/><use transform="matrix(0.006510416666666664,0,0,0.006510416666666664,33.45052083333332,0)" xlink:href="#u"/></g><path fill="#3a414a" d="M1296-559c6 348-235 575-581 575S133-211 133-559v-875h225v875c-4 226 138 364 357 364 217 0 356-138 356-364v-875h225v875" id="w"/><g id="e"><use transform="matrix(0.006510416666666664,0,0,0.006510416666666664,0,0)" xlink:href="#i"/><use transform="matrix(0.006510416666666664,0,0,0.006510416666666664,7.955729166666663,0)" xlink:href="#r"/><use transform="matrix(0.006510416666666664,0,0,0.006510416666666664,15.345052083333329,0)" xlink:href="#v"/><use transform="matrix(0.006510416666666664,0,0,0.006510416666666664,23.554687499999993,0)" xlink:href="#h"/><use transform="matrix(0.006510416666666664,0,0,0.006510416666666664,33.47005208333332,0)" xlink:href="#w"/><use transform="matrix(0.006510416666666664,0,0,0.006510416666666664,42.773437499999986,0)" xlink:href="#i"/><use transform="matrix(0.006510416666666664,0,0,0.006510416666666664,50.332031249999986,0)" xlink:href="#s"/><use transform="matrix(0.006510416666666664,0,0,0.006510416666666664,59.85026041666664,0)" xlink:href="#r"/><use transform="matrix(0.006510416666666664,0,0,0.006510416666666664,67.23958333333331,0)" xlink:href="#v"/></g><path fill="#3a414a" d="M1350-727c0 395-282 724-662 727L154 4v-1438l514-4c389-16 682 317 682 711zm-228 8c0-277-188-499-454-495l-301 4v997l292-4c264-4 463-220 463-502" id="x"/><path fill="#3a414a" d="M1026 0H154v-1434h237v1209h635V0" id="y"/><path fill="#3a414a" d="M770 0H549v-578L20-1434h248l391 652 412-652h227L770-578V0" id="z"/><path fill="#3a414a" d="M381 0H154v-1434h278L881-313l436-1121h268V0h-217v-1024L973 0H782L381-1024V0" id="A"/><g id="f"><use transform="matrix(0.006510416666666664,0,0,0.006510416666666664,0,0)" xlink:href="#x"/><use transform="matrix(0.006510416666666664,0,0,0.006510416666666664,9.316406249999996,0)" xlink:href="#r"/><use transform="matrix(0.006510416666666664,0,0,0.006510416666666664,16.835937499999993,0)" xlink:href="#p"/><use transform="matrix(0.006510416666666664,0,0,0.006510416666666664,24.830729166666657,0)" xlink:href="#y"/><use transform="matrix(0.006510416666666664,0,0,0.006510416666666664,31.171874999999982,0)" xlink:href="#h"/><use transform="matrix(0.006510416666666664,0,0,0.006510416666666664,40.423177083333314,0)" xlink:href="#z"/><use transform="matrix(0.006510416666666664,0,0,0.006510416666666664,49.00390624999998,0)" xlink:href="#A"/><use transform="matrix(0.006510416666666664,0,0,0.006510416666666664,60.31901041666664,0)" xlink:href="#r"/><use transform="matrix(0.006510416666666664,0,0,0.006510416666666664,67.83854166666664,0)" xlink:href="#l"/><use transform="matrix(0.006510416666666664,0,0,0.006510416666666664,77.36979166666664,0)" xlink:href="#o"/><use transform="matrix(0.006510416666666664,0,0,0.006510416666666664,85.24739583333331,0)" xlink:href="#v"/></g><g id="g"><use transform="matrix(0.006510416666666664,0,0,0.006510416666666664,0,0)" xlink:href="#s"/><use transform="matrix(0.006510416666666664,0,0,0.006510416666666664,9.518229166666663,0)" xlink:href="#h"/><use transform="matrix(0.006510416666666664,0,0,0.006510416666666664,19.433593749999993,0)" xlink:href="#A"/><use transform="matrix(0.006510416666666664,0,0,0.006510416666666664,30.748697916666657,0)" xlink:href="#p"/><use transform="matrix(0.006510416666666664,0,0,0.006510416666666664,38.74348958333332,0)" xlink:href="#h"/><use transform="matrix(0.006510416666666664,0,0,0.006510416666666664,48.65885416666665,0)" xlink:href="#l"/><use transform="matrix(0.006510416666666664,0,0,0.006510416666666664,58.19010416666664,0)" xlink:href="#r"/><use transform="matrix(0.006510416666666664,0,0,0.006510416666666664,65.70963541666664,0)" xlink:href="#l"/><use transform="matrix(0.006510416666666664,0,0,0.006510416666666664,75.24088541666664,0)" xlink:href="#o"/><use transform="matrix(0.006510416666666664,0,0,0.006510416666666664,83.11848958333331,0)" xlink:href="#v"/></g></defs></g></svg>