<svg xmlns="http://www.w3.org/2000/svg" viewBox="0 0 800 335" width="800" height="335" font-family="Inter, ui-sans-serif, system-ui, sans-serif" role="img" aria-label="Terraform Landing Zone workspace hierarchy diagram showing Platform Management Workspace at top, Control Workspaces per App Team in the middle tier, and App Workspaces at the bottom tier">
  <title>Terraform Landing Zone - Workspace Hierarchy</title>

  <rect width="800" height="335" fill="#F8FAFC" rx="8"/>

  <text x="16" y="26" font-size="12" font-weight="600" fill="#374151">Platform Team</text>
  <text x="16" y="43" font-size="11" fill="#6B7280">manages</text>
  <line x1="35" y1="47" x2="35" y2="55" stroke="#9CA3AF" stroke-width="1.5"/>
  <polygon points="29,55 35,63 41,55" fill="#9CA3AF"/>

  <rect x="15" y="65" width="770" height="56" rx="6" fill="#1563FF"/>
  <text x="400" y="87" text-anchor="middle" font-size="14" font-weight="600" fill="#FFFFFF">Platform Management Workspace</text>
  <text x="400" y="107" text-anchor="middle" font-size="11" fill="rgba(255,255,255,0.82)">Vends one control workspace per App Team - all control workspace state is tracked here</text>

  <line x1="135" y1="121" x2="135" y2="153" stroke="#94A3B8" stroke-width="1.5"/>
  <line x1="400" y1="121" x2="400" y2="153" stroke="#94A3B8" stroke-width="1.5"/>
  <line x1="665" y1="121" x2="665" y2="153" stroke="#94A3B8" stroke-width="1.5"/>
  <line x1="135" y1="153" x2="665" y2="153" stroke="#94A3B8" stroke-width="1.5"/>

  <rect x="20" y="153" width="230" height="52" rx="5" fill="#0F9B8E"/>
  <text x="135" y="175" text-anchor="middle" font-size="12" font-weight="600" fill="#FFFFFF">Control Workspace</text>
  <text x="135" y="193" text-anchor="middle" font-size="11" fill="rgba(255,255,255,0.85)">App Team A</text>

  <rect x="285" y="153" width="230" height="52" rx="5" fill="#0F9B8E"/>
  <text x="400" y="175" text-anchor="middle" font-size="12" font-weight="600" fill="#FFFFFF">Control Workspace</text>
  <text x="400" y="193" text-anchor="middle" font-size="11" fill="rgba(255,255,255,0.85)">App Team B</text>

  <rect x="550" y="153" width="230" height="52" rx="5" fill="#0F9B8E" opacity="0.40"/>
  <text x="665" y="184" text-anchor="middle" font-size="18" fill="rgba(255,255,255,0.80)" font-style="italic">more...</text>

  <line x1="55" y1="205" x2="55" y2="240" stroke="#94A3B8" stroke-width="1.5"/>
  <line x1="135" y1="205" x2="135" y2="240" stroke="#94A3B8" stroke-width="1.5"/>
  <line x1="215" y1="205" x2="215" y2="240" stroke="#94A3B8" stroke-width="1.5"/>
  <line x1="55" y1="240" x2="215" y2="240" stroke="#94A3B8" stroke-width="1.5"/>

  <rect x="17" y="240" width="76" height="44" rx="4" fill="#FFFFFF" stroke="#CBD5E1" stroke-width="1.5"/>
  <text x="55" y="258" text-anchor="middle" font-size="9" font-weight="600" fill="#374151">App Workspace</text>
  <text x="55" y="273" text-anchor="middle" font-size="10" fill="#6B7280">dev</text>

  <rect x="97" y="240" width="76" height="44" rx="4" fill="#FFFFFF" stroke="#CBD5E1" stroke-width="1.5"/>
  <text x="135" y="258" text-anchor="middle" font-size="9" font-weight="600" fill="#374151">App Workspace</text>
  <text x="135" y="273" text-anchor="middle" font-size="10" fill="#6B7280">staging</text>

  <rect x="177" y="240" width="76" height="44" rx="4" fill="#FFFFFF" stroke="#CBD5E1" stroke-width="1.5"/>
  <text x="215" y="258" text-anchor="middle" font-size="9" font-weight="600" fill="#374151">App Workspace</text>
  <text x="215" y="273" text-anchor="middle" font-size="10" fill="#6B7280">prod</text>

  <line x1="360" y1="205" x2="360" y2="240" stroke="#94A3B8" stroke-width="1.5"/>
  <line x1="440" y1="205" x2="440" y2="240" stroke="#94A3B8" stroke-width="1.5"/>
  <line x1="360" y1="240" x2="440" y2="240" stroke="#94A3B8" stroke-width="1.5"/>

  <rect x="322" y="240" width="76" height="44" rx="4" fill="#FFFFFF" stroke="#CBD5E1" stroke-width="1.5"/>
  <text x="360" y="258" text-anchor="middle" font-size="9" font-weight="600" fill="#374151">App Workspace</text>
  <text x="360" y="273" text-anchor="middle" font-size="10" fill="#6B7280">dev</text>

  <rect x="402" y="240" width="76" height="44" rx="4" fill="#FFFFFF" stroke="#CBD5E1" stroke-width="1.5"/>
  <text x="440" y="258" text-anchor="middle" font-size="9" font-weight="600" fill="#374151">App Workspace</text>
  <text x="440" y="273" text-anchor="middle" font-size="10" fill="#6B7280">prod</text>

  <rect x="20" y="302" width="14" height="14" rx="2" fill="#1563FF"/>
  <text x="40" y="313" font-size="11" fill="#374151">Platform Management Workspace</text>
  <rect x="230" y="302" width="14" height="14" rx="2" fill="#0F9B8E"/>
  <text x="250" y="313" font-size="11" fill="#374151">Control Workspace (one per App Team)</text>
  <rect x="470" y="302" width="14" height="14" rx="2" fill="#FFFFFF" stroke="#CBD5E1" stroke-width="1.5"/>
  <text x="490" y="313" font-size="11" fill="#374151">App Workspace</text>
</svg>
