<svg xmlns="http://www.w3.org/2000/svg" xmlns:xlink="http://www.w3.org/1999/xlink" xmlns:lucid="lucid" width="710.3" height="700.5"><g transform="translate(-1310.3598539465668 -126)" lucid:page-tab-id="coCuh2Aoq1z7"><path d="M1000 0h1500v1000H1000z" fill="#fff"/><path d="M1311.36 146a2 2 0 0 1 2-2h704.3a2 2 0 0 1 2 2v677.5a2 2 0 0 1-2 2h-704.3a2 2 0 0 1-2-2z" stroke="#ced4db" stroke-width="2" fill="#fff"/><path d="M1669.44 530.74c0 2.2-1.8 4-4 4s-4-1.8-4-4 1.8-4 4-4 4 1.8 4 4z" stroke="#ec585d" stroke-width="2" fill="#fff"/><path d="M1594.86 194.07a2 2 0 0 1 2-2h139.45a2 2 0 0 1 2 2V776a2 2 0 0 1-2 2h-139.44a2 2 0 0 1-2-2z" stroke="#ced4db" stroke-width="2" fill="#fff"/><path d="M1687.35 274.77h-42c-1.32 0-1.98.67-1.98 2v42c0 1.32.66 1.98 2 1.98h41.98c1.33 0 2-.66 2-2v-41.98c0-1.33-.67-2-2-2z" stroke="#000" stroke-opacity="0" fill="#fff"/><path d="M1687.35 274h-42c-1.84 0-2.74.9-2.74 2.77v42c0 1.84.9 2.74 2.76 2.74h42c1.85 0 2.75-.9 2.75-2.74v-42c0-1.85-.9-2.75-2.75-2.75z" stroke="#000" stroke-opacity=".16" stroke-width="1.5" fill-opacity="0"/><path d="M1648.36 279.76h36v36h-36v-36z" stroke="#000" stroke-opacity="0" fill-opacity="0"/><path d="M1664.06 294.75c-.96 0-1.76.8-1.76 1.75v4.52c0 .96.8 1.75 1.76 1.75h4.5c.97 0 1.76-.8 1.76-1.75v-4.5c0-.97-.8-1.77-1.75-1.77h-4.5zm-.24 1.75c0-.14.1-.24.24-.24h4.5c.15 0 .25.1.25.25v4.52c0 .14-.1.24-.23.24h-4.5c-.16 0-.25-.1-.25-.24v-4.5z" stroke="#000" stroke-opacity="0" fill="#1d1e1f"/><path d="M1663.55 286.76c.43 0 .77.34.77.75v2.26h3.98v-2.25c0-.4.34-.74.77-.74.4 0 .75.34.75.75v2.26h2.73c1.54 0 2.76 1.23 2.76 2.76v2.74h2.27c.4 0 .74.33.74.74 0 .43-.33.77-.73.77h-2.26v3h2.27c.4 0 .74.34.74.74 0 .42-.33.76-.73.76h-2.26V305c0 1.54-1.2 2.76-2.75 2.76h-2.73v2.26c0 .4-.34.74-.75.74-.43 0-.77-.33-.77-.74v-2.26h-3.98v2.26c0 .4-.34.74-.77.74-.4 0-.74-.33-.74-.74v-2.26h-2.73c-1.53 0-2.76-1.22-2.76-2.76v-3.74h-2.24c-.4 0-.75-.34-.75-.75 0-.4.35-.73.76-.73h2.25v-3h-2.24c-.4 0-.75-.34-.75-.77 0-.4.35-.74.76-.74h2.25v-2.74c0-1.53 1.24-2.76 2.77-2.76h2.74v-2.25c0-.4.34-.74.75-.74zm-4.73 18.24c0 .7.56 1.27 1.25 1.27h12.48c.7 0 1.27-.57 1.27-1.27v-12.48c0-.7-.57-1.25-1.27-1.25h-12.48c-.7 0-1.25.56-1.25 1.25V305z" stroke="#000" stroke-opacity="0" fill="#1d1e1f"/><path d="M1594.08 327.5a6 6 0 0 1 6-6h134.5a6 6 0 0 1 6 6v12.57a6 6 0 0 1-6 6h-134.5a6 6 0 0 1-6-6z" fill="none"/><use xlink:href="#a" transform="matrix(1,0,0,1,1594.0822565707435,321.5111495463476) translate(15.993333333333325 17.833333333333336)"/><use xlink:href="#b" transform="matrix(1,0,0,1,1594.0822565707435,321.5111495463476) translate(75.66 17.833333333333336)"/><path d="M1669.44 622.77c0 2.2-1.8 4-4 4s-4-1.8-4-4 1.8-4 4-4 4 1.8 4 4z" stroke="#ec585d" stroke-width="2" fill="#fff"/><path d="M1686.63 635.24h-42c-1.32 0-2 .67-2 2v42c0 1.32.68 1.98 2 1.98h42c1.33 0 2-.66 2-2v-41.98c0-1.33-.67-2-2-2z" stroke="#000" stroke-opacity="0" fill="#fff"/><path d="M1686.63 634.48h-42c-1.84 0-2.75.9-2.75 2.76v42c0 1.84.9 2.74 2.76 2.74h42c1.84 0 2.74-.9 2.74-2.75v-42c0-1.85-.9-2.75-2.75-2.75z" stroke="#000" stroke-opacity=".16" stroke-width="1.5" fill-opacity="0"/><path d="M1647.63 640.23h36v36h-36v-36z" stroke="#000" stroke-opacity="0" fill-opacity="0"/><path d="M1663.33 655.22c-.96 0-1.75.8-1.75 1.76v4.5c0 .97.8 1.76 1.75 1.76h4.5c.97 0 1.77-.8 1.77-1.75v-4.52c0-.96-.8-1.76-1.76-1.76h-4.5zm-.24 1.76c0-.15.1-.24.23-.24h4.5c.16 0 .25.1.25.24v4.5c0 .15-.1.25-.24.25h-4.5c-.15 0-.25-.1-.25-.24v-4.52z" stroke="#000" stroke-opacity="0" fill="#1d1e1f"/><path d="M1662.83 647.23c.43 0 .77.34.77.75v2.25h3.98v-2.25c0-.4.34-.75.77-.75.4 0 .74.34.74.75v2.25h2.73c1.53 0 2.76 1.23 2.76 2.76v2.73h2.24c.4 0 .75.33.75.74 0 .43-.35.77-.76.77h-2.25v3h2.24c.4 0 .75.34.75.74 0 .4-.35.75-.76.75h-2.25v3.74c0 1.54-1.24 2.76-2.77 2.76h-2.74v2.26c0 .4-.34.73-.75.73-.43 0-.77-.33-.77-.74v-2.27h-3.98v2.26c0 .4-.34.73-.77.73-.4 0-.75-.33-.75-.74v-2.27h-2.73c-1.54 0-2.76-1.22-2.76-2.76v-3.74h-2.27c-.4 0-.74-.34-.74-.75 0-.4.32-.74.73-.74h2.26v-3h-2.27c-.4 0-.74-.34-.74-.77 0-.4.32-.74.73-.74h2.26V653c0-1.54 1.2-2.77 2.75-2.77h2.73v-2.25c0-.4.34-.75.75-.75zm-4.73 18.24c0 .7.55 1.27 1.25 1.27h12.48c.7 0 1.27-.57 1.27-1.27V653c0-.7-.58-1.26-1.27-1.26h-12.48c-.7 0-1.25.56-1.25 1.25v12.47z" stroke="#000" stroke-opacity="0" fill="#1d1e1f"/><path d="M1594.08 689.02a6 6 0 0 1 6-6h134.5a6 6 0 0 1 6 6v10.4a6 6 0 0 1-6 6h-134.5a6 6 0 0 1-6-6z" fill="none"/><use xlink:href="#c" transform="matrix(1,0,0,1,1594.0822565707433,683.0250273201043) translate(18.873333333333335 16.833333333333336)"/><use xlink:href="#b" transform="matrix(1,0,0,1,1594.0822565707433,683.0250273201043) translate(72.78 16.833333333333336)"/><path d="M1401.64 194a2 2 0 0 1 2-2h139.45a2 2 0 0 1 2 2v582a2 2 0 0 1-2 2h-139.46a2 2 0 0 1-2-2z" stroke="#ced4db" stroke-width="2" fill="#fff"/><path d="M1494.13 274.63h-42c-1.32 0-2 .66-2 2v41.98c0 1.34.68 2 2 2h42c1.33 0 2-.66 2-2v-41.98c0-1.33-.67-2-2-2z" stroke="#000" stroke-opacity="0" fill="#fff"/><path d="M1494.13 273.87h-42c-1.84 0-2.75.9-2.75 2.75v42c0 1.84.9 2.75 2.76 2.75h42c1.84 0 2.74-.9 2.74-2.76v-41.98c0-1.85-.9-2.75-2.75-2.75z" stroke="#000" stroke-opacity=".16" stroke-width="1.5" fill-opacity="0"/><path d="M1455.13 279.6h36v36.02h-36v-36z" stroke="#000" stroke-opacity="0" fill-opacity="0"/><path d="M1470.83 294.6c-.96 0-1.75.8-1.75 1.76v4.5c0 .97.8 1.76 1.75 1.76h4.52c.96 0 1.75-.8 1.75-1.75v-4.5c0-.97-.8-1.76-1.75-1.76h-4.52zm-.24 1.76c0-.14.1-.24.23-.24h4.52c.14 0 .24.1.24.24v4.5c0 .16-.1.25-.25.25h-4.52c-.14 0-.24-.08-.24-.23v-4.5z" stroke="#000" stroke-opacity="0" fill="#1d1e1f"/><path d="M1470.33 286.62c.43 0 .77.33.77.74v2.26h3.98v-2.26c0-.4.34-.74.77-.74.4 0 .74.33.74.74v2.26h2.73c1.54 0 2.76 1.22 2.76 2.76v2.73h2.25c.4 0 .74.35.74.76 0 .43-.35.76-.75.76h-2.26v3h2.25c.4 0 .74.34.74.75 0 .4-.35.74-.75.74h-2.26v3.76c0 1.53-1.23 2.76-2.77 2.76h-2.74v2.25c0 .4-.34.75-.75.75-.43 0-.77-.34-.77-.75v-2.25h-3.98v2.25c0 .4-.34.75-.77.75-.4 0-.74-.34-.74-.75v-2.25h-2.75c-1.54 0-2.76-1.23-2.76-2.76v-3.75h-2.27c-.4 0-.74-.32-.74-.73 0-.4.33-.75.73-.75h2.26v-3h-2.27c-.4 0-.74-.33-.74-.76 0-.4.33-.75.73-.75h2.26v-2.72c0-1.54 1.2-2.76 2.75-2.76h2.74v-2.26c0-.4.32-.74.73-.74zm-4.73 18.24c0 .7.55 1.27 1.25 1.27h12.48c.7 0 1.27-.58 1.27-1.27v-12.48c0-.7-.57-1.25-1.27-1.25h-12.48c-.7 0-1.25.55-1.25 1.25v12.48z" stroke="#000" stroke-opacity="0" fill="#1d1e1f"/><path d="M1400.86 327.37a6 6 0 0 1 6-6h134.5a6 6 0 0 1 6 6v12.55a6 6 0 0 1-6 6h-134.5a6 6 0 0 1-6-6z" fill="none"/><use xlink:href="#a" transform="matrix(1,0,0,1,1400.8598539465802,321.36678197237575) translate(15.993333333333325 17.833333333333336)"/><use xlink:href="#b" transform="matrix(1,0,0,1,1400.8598539465802,321.36678197237575) translate(75.66 17.833333333333336)"/><path d="M1476.2 622.63c0 2.2-1.78 4-4 4-2.2 0-4-1.8-4-4s1.8-4 4-4c2.22 0 4 1.8 4 4z" stroke="#ec585d" stroke-width="2" fill="#fff"/><path d="M1493.4 635.1h-41.98c-1.33 0-2 .66-2 2v41.98c0 1.33.67 2 2 2h42c1.32 0 1.98-.67 1.98-2v-42c0-1.32-.66-1.98-2-1.98z" stroke="#000" stroke-opacity="0" fill="#fff"/><path d="M1493.4 634.34h-41.98c-1.86 0-2.76.9-2.76 2.75v41.98c0 1.85.9 2.76 2.76 2.76h42c1.84 0 2.74-.9 2.74-2.76v-42c0-1.84-.9-2.74-2.75-2.74z" stroke="#000" stroke-opacity=".16" stroke-width="1.5" fill-opacity="0"/><path d="M1454.4 640.1h36v36h-36v-36z" stroke="#000" stroke-opacity="0" fill-opacity="0"/><path d="M1470.1 655.08c-.95 0-1.74.8-1.74 1.75v4.5c0 .97.8 1.76 1.75 1.76h4.52c.96 0 1.75-.8 1.75-1.76v-4.5c0-.97-.8-1.76-1.75-1.76h-4.5zm-.23 1.75c0-.14.1-.24.24-.24h4.52c.15 0 .24.1.24.23v4.5c0 .16-.1.25-.24.25h-4.5c-.15 0-.25-.1-.25-.24v-4.5z" stroke="#000" stroke-opacity="0" fill="#1d1e1f"/><path d="M1469.6 647.1c.44 0 .77.32.77.73v2.26h4v-2.27c0-.4.32-.74.76-.74.4 0 .74.32.74.73v2.26h2.74c1.54 0 2.77 1.2 2.77 2.75v2.73h2.25c.4 0 .75.34.75.75 0 .43-.34.76-.75.76h-2.25v3h2.25c.4 0 .75.33.75.74 0 .4-.34.74-.75.74h-2.25v3.75c0 1.53-1.23 2.76-2.76 2.76h-2.73v2.24c0 .4-.34.75-.74.75-.44 0-.77-.35-.77-.76v-2.25h-4v2.24c0 .4-.32.75-.75.75-.4 0-.74-.35-.74-.76v-2.25h-2.73c-1.54 0-2.77-1.24-2.77-2.77v-3.75h-2.25c-.4 0-.73-.33-.73-.74 0-.4.33-.75.74-.75h2.27v-3h-2.26c-.4 0-.73-.34-.73-.77 0-.4.33-.75.74-.75h2.27v-2.73c0-1.54 1.22-2.76 2.76-2.76h2.73v-2.27c0-.4.34-.74.75-.74zm-4.72 18.23c0 .7.55 1.27 1.24 1.27h12.5c.68 0 1.26-.58 1.26-1.27v-12.48c0-.7-.58-1.25-1.28-1.25h-12.47c-.7 0-1.25.55-1.25 1.25v12.48z" stroke="#000" stroke-opacity="0" fill="#1d1e1f"/><path d="M1400.86 688.88a6 6 0 0 1 6-6h134.5a6 6 0 0 1 6 6v10.4a6 6 0 0 1-6 6h-134.5a6 6 0 0 1-6-6z" fill="none"/><use xlink:href="#c" transform="matrix(1,0,0,1,1400.8598539465802,682.8806597461326) translate(18.873333333333335 16.833333333333336)"/><use xlink:href="#b" transform="matrix(1,0,0,1,1400.8598539465802,682.8806597461326) translate(72.78 16.833333333333336)"/><path d="M1786.32 194.07a2 2 0 0 1 2-2h139.44a2 2 0 0 1 2 2V776a2 2 0 0 1-2 2h-139.44a2 2 0 0 1-2-2z" stroke="#ced4db" stroke-width="2" fill="#fff"/><path d="M1878.8 274.77h-41.98c-1.33 0-2 .67-2 2v42c0 1.32.67 1.98 2 1.98h42c1.32 0 1.98-.66 1.98-2v-41.98c0-1.33-.66-2-2-2z" stroke="#000" stroke-opacity="0" fill="#fff"/><path d="M1878.8 274h-41.98c-1.86 0-2.76.9-2.76 2.77v42c0 1.84.9 2.74 2.76 2.74h42c1.84 0 2.74-.9 2.74-2.74v-42c0-1.85-.9-2.75-2.75-2.75z" stroke="#000" stroke-opacity=".16" stroke-width="1.5" fill-opacity="0"/><path d="M1839.8 279.76h36.02v36h-36v-36z" stroke="#000" stroke-opacity="0" fill-opacity="0"/><path d="M1855.5 294.75c-.95 0-1.74.8-1.74 1.75v4.52c0 .96.8 1.75 1.75 1.75h4.52c.96 0 1.75-.8 1.75-1.75v-4.5c0-.97-.8-1.77-1.75-1.77h-4.5zm-.23 1.75c0-.14.1-.24.24-.24h4.52c.15 0 .24.1.24.25v4.52c0 .14-.1.24-.24.24h-4.5c-.15 0-.25-.1-.25-.24v-4.5z" stroke="#000" stroke-opacity="0" fill="#1d1e1f"/><path d="M1855 286.76c.44 0 .77.34.77.75v2.26h4v-2.25c0-.4.32-.74.76-.74.4 0 .74.34.74.75v2.26h2.74c1.54 0 2.77 1.23 2.77 2.76v2.74h2.25c.4 0 .75.33.75.74 0 .43-.34.77-.75.77h-2.25v3h2.25c.4 0 .75.34.75.74 0 .42-.34.76-.75.76h-2.25V305c0 1.54-1.23 2.76-2.76 2.76h-2.73v2.26c0 .4-.34.74-.74.74-.44 0-.77-.33-.77-.74v-2.26h-4v2.26c0 .4-.32.74-.75.74-.4 0-.74-.33-.74-.74v-2.26h-2.73c-1.54 0-2.76-1.22-2.76-2.76v-3.74h-2.26c-.4 0-.73-.34-.73-.75 0-.4.33-.73.74-.73h2.27v-3h-2.26c-.4 0-.73-.34-.73-.77 0-.4.33-.74.74-.74h2.27v-2.74c0-1.53 1.22-2.76 2.76-2.76h2.73v-2.25c0-.4.34-.74.75-.74zM1850.3 305c0 .7.55 1.27 1.25 1.27H1864c.7 0 1.28-.57 1.28-1.27v-12.48c0-.7-.58-1.25-1.27-1.25h-12.47c-.7 0-1.25.56-1.25 1.25V305z" stroke="#000" stroke-opacity="0" fill="#1d1e1f"/><path d="M1785.54 327.5a6 6 0 0 1 6-6h134.5a6 6 0 0 1 6 6v12.57a6 6 0 0 1-6 6h-134.5a6 6 0 0 1-6-6z" fill="none"/><use xlink:href="#a" transform="matrix(1,0,0,1,1785.5367380861176,321.5111495463474) translate(15.993333333333325 17.833333333333336)"/><use xlink:href="#b" transform="matrix(1,0,0,1,1785.5367380861176,321.5111495463474) translate(75.66 17.833333333333336)"/><path d="M1669.44 560.46a6 6 0 0 1 6-6h27.86a6 6 0 0 1 6 6v8.82a6 6 0 0 1-6 6h-27.86a6 6 0 0 1-6-6z" fill="none"/><use xlink:href="#d" transform="matrix(1,0,0,1,1669.437607477344,554.4599857406417) translate(4.713333333333333 15.833333333333334)"/><path d="M1860.9 622.77c0 2.2-1.8 4-4 4-2.22 0-4-1.8-4-4s1.78-4 4-4c2.2 0 4 1.8 4 4z" stroke="#ec585d" stroke-width="2" fill="#fff"/><path d="M1878.08 635.24h-42c-1.32 0-1.98.67-1.98 2v42c0 1.32.66 1.98 2 1.98h41.98c1.33 0 2-.66 2-2v-41.98c0-1.33-.67-2-2-2z" stroke="#000" stroke-opacity="0" fill="#fff"/><path d="M1878.08 634.48h-42c-1.84 0-2.74.9-2.74 2.76v42c0 1.84.9 2.74 2.75 2.74h41.98c1.86 0 2.76-.9 2.76-2.75v-42c0-1.85-.9-2.75-2.76-2.75z" stroke="#000" stroke-opacity=".16" stroke-width="1.5" fill-opacity="0"/><path d="M1839.1 640.23h36v36h-36v-36z" stroke="#000" stroke-opacity="0" fill-opacity="0"/><path d="M1854.8 655.22c-.97 0-1.77.8-1.77 1.76v4.5c0 .97.8 1.76 1.76 1.76h4.5c.96 0 1.75-.8 1.75-1.75v-4.52c0-.96-.8-1.76-1.75-1.76h-4.5zm-.25 1.76c0-.15.1-.24.24-.24h4.5c.14 0 .24.1.24.24v4.5c0 .15-.1.25-.24.25h-4.5c-.16 0-.25-.1-.25-.24v-4.52z" stroke="#000" stroke-opacity="0" fill="#1d1e1f"/><path d="M1854.28 647.23c.43 0 .77.34.77.75v2.25h3.98v-2.25c0-.4.34-.75.77-.75.4 0 .75.34.75.75v2.25h2.73c1.54 0 2.76 1.23 2.76 2.76v2.73h2.26c.4 0 .74.33.74.74 0 .43-.33.77-.74.77h-2.26v3h2.26c.4 0 .74.34.74.74 0 .4-.33.75-.74.75h-2.26v3.74c0 1.54-1.22 2.76-2.76 2.76h-2.73v2.26c0 .4-.34.73-.75.73-.43 0-.77-.33-.77-.74v-2.27h-3.98v2.26c0 .4-.34.73-.77.73-.4 0-.74-.33-.74-.74v-2.27h-2.74c-1.53 0-2.76-1.22-2.76-2.76v-3.74h-2.25c-.42 0-.76-.34-.76-.75 0-.4.34-.74.75-.74h2.24v-3h-2.25c-.42 0-.76-.34-.76-.77 0-.4.34-.74.75-.74h2.24V653c0-1.54 1.23-2.77 2.76-2.77h2.74v-2.25c0-.4.33-.75.74-.75zm-4.73 18.24c0 .7.56 1.27 1.25 1.27h12.48c.7 0 1.27-.57 1.27-1.27V653c0-.7-.57-1.26-1.27-1.26h-12.48c-.7 0-1.25.56-1.25 1.25v12.47z" stroke="#000" stroke-opacity="0" fill="#1d1e1f"/><path d="M1785.54 689.02a6 6 0 0 1 6-6h134.5a6 6 0 0 1 6 6v10.4a6 6 0 0 1-6 6h-134.5a6 6 0 0 1-6-6z" fill="none"/><use xlink:href="#c" transform="matrix(1,0,0,1,1785.5367380861173,683.0250273201045) translate(18.873333333333335 16.833333333333336)"/><use xlink:href="#b" transform="matrix(1,0,0,1,1785.5367380861173,683.0250273201045) translate(72.78 16.833333333333336)"/><path d="M1361.26 378.14a2 2 0 0 1-2-2V236.7a2 2 0 0 1 2-2h38a2 2 0 0 1 2 2v139.44a2 2 0 0 1-2 2z" stroke="#000" stroke-opacity="0" stroke-width="2" fill="#ec585d"/><use xlink:href="#e" transform="matrix(6.123233995736766e-17,-1,1,6.123233995736766e-17,1364.258058275493,373.1405460219346) translate(13.906666666666666 21.333333333333336)"/><path d="M1358.86 306.42c0 2.2-1.8 4-4 4s-4-1.8-4-4 1.8-4 4-4 4 1.8 4 4z" stroke="#000" stroke-opacity="0" stroke-width="2" fill="#fff"/><path d="M1668.54 408.26a6 6 0 0 1 6-6h27.86a6 6 0 0 1 6 6v8.82a6 6 0 0 1-6 6h-27.86a6 6 0 0 1-6-6z" fill="none"/><use xlink:href="#d" transform="matrix(1,0,0,1,1668.5392928466977,402.2611495463475) translate(4.713333333333333 15.833333333333334)"/><path d="M1324 129a2 2 0 0 1 2-2h36a2 2 0 0 1 2 2v27.26a2 2 0 0 1-2 2h-36a2 2 0 0 1-2-2z" stroke="#000" stroke-opacity="0" stroke-width="2" fill="#fff"/><path d="M1326.48 133a6 6 0 0 1 6-6h24.16a6 6 0 0 1 6 6v19.4a6 6 0 0 1-6 6h-24.16a6 6 0 0 1-6-6z" fill="none"/><use xlink:href="#f" transform="matrix(1,0,0,1,1326.4783108432584,127) translate(5.426666666666671 21.333333333333332)"/><path d="M1361.7 736a2 2 0 0 1-2-2V600.78a2 2 0 0 1 2-2h38a2 2 0 0 1 2 2V734a2 2 0 0 1-2 2z" stroke="#000" stroke-opacity="0" stroke-width="2" fill="#ec585d"/><use xlink:href="#g" transform="matrix(6.123233995736766e-17,-1,1,6.123233995736766e-17,1364.6862593021306,731.0000000000002) translate(37.653333333333336 21.333333333333336)"/><path d="M1359.26 600.78a2 2 0 0 1 2-2h608.9a2 2 0 0 1 2 2V734a2 2 0 0 1-2 2h-608.9a2 2 0 0 1-2-2z" fill-opacity="0"/><path d="M1368.24 598.78h6m4 0h5.98m4 0h5.98m4 0h5.98m4 0h5.98m4 0h5.98m4 0h6m3.98 0h6m3.98 0h6m3.98 0h6m4 0h5.98m4 0h5.98m4 0h5.98m4 0h5.98m4 0h5.98m4 0h5.98m4 0h6m3.98 0h6m3.98 0h6m3.98 0h6m4 0h5.97m4 0h6m3.98 0h6m3.98 0h6m3.98 0h6m4 0h6m3.98 0h6m3.98 0h6m3.98 0h6m3.98 0h6m4 0h5.97m4 0h5.98m4 0h5.98m4 0h5.98m4 0h5.98m4 0h6m3.98 0h6m3.98 0h6m3.98 0h6m4 0h5.97m4 0h6m3.98 0h6m4 0h5.98m4 0h5.98m4 0h5.98m4 0h6m3.98 0h6m3.98 0h6m3.98 0h6m3.98 0h6m4 0h5.98m4 0h5.98m4 0h5.98m4 0h5.98m4 0h5.98m4 0h6m3.98 0h6m3.98 0h6m3.98 0h6m3.98 0h6m4 0h2.98a2 2 0 0 1 2 2v3.07m0 4.1v6.15m0 4.1v6.15m0 4.1v6.15m0 4.1v6.14m0 4.1v6.15m0 4.1v6.14m0 4.1v6.15m0 4.1v6.13m0 4.1v6.15m0 4.1v6.15m0 4.1v6.15m0 4.1v6.15m0 4.1V734a2 2 0 0 1-2 2h-3m-4 0h-5.98m-4 0h-5.98m-4 0h-5.98m-4 0h-5.98m-4 0h-5.98m-4 0h-5.98m-4 0h-6m-3.98 0h-6m-3.98 0h-6m-3.98 0h-6m-4 0h-5.97m-4 0h-6m-3.98 0h-6m-4 0h-5.98m-4 0h-5.98m-4 0h-6m-3.98 0h-6m-3.98 0h-6m-3.98 0h-6m-3.98 0h-6m-4 0h-5.97m-4 0h-6m-3.98 0h-6m-3.98 0h-6m-4 0h-5.98m-4 0h-6m-3.98 0h-6m-3.98 0h-6m-3.98 0h-6m-4 0h-5.97m-4 0h-5.98m-4 0h-5.98m-4 0h-5.98m-4 0h-5.98m-4 0h-5.98m-4 0h-6m-3.98 0h-6m-3.98 0h-6m-3.98 0h-6m-3.98 0h-6m-4 0h-5.98m-4 0h-5.98m-4 0h-5.98m-4 0h-5.98m-4 0h-5.98m-4 0h-6m-3.98 0h-6m-3.98 0h-6m-3.98 0h-6m-3.98 0h-6m-4 0h-5.98m-4 0h-5.98m-4 0h-5.98m-4 0h-5.98m-4 0h-5.98m-4 0h-6m-3.98 0h-6m-3.98 0h-6m-3.98 0h-6m-4 0h-5.98m-4 0h-2.98a2 2 0 0 1-2-2v-3.07m0-4.1v-6.15m0-4.1v-6.15m0-4.1v-6.15m0-4.1v-6.15m0-4.1v-6.14m0-4.1v-6.16m0-4.1v-6.15m0-4.1v-6.16m0-4.1v-6.14m0-4.1v-6.15m0-4.1v-6.15m0-4.1v-6.15m0-4.1v-3.07a2 2 0 0 1 2-2h3" stroke="#ced4db" stroke-width="2" fill="none"/><path d="M1785.86 738a2 2 0 0 1 2-2h139.45a2 2 0 0 1 2 2v38a2 2 0 0 1-2 2h-139.44a2 2 0 0 1-2-2z" stroke="#000" stroke-opacity="0" stroke-width="2" fill="#ec585d"/><use xlink:href="#h" transform="matrix(1,0,0,1,1790.8573132616675,741.0000000000002) translate(52.81999999999999 21.333333333333336)"/><use xlink:href="#i" transform="matrix(1,0,0,1,1790.8573132616675,741.0000000000002) translate(73.84666666666666 21.333333333333336)"/><path d="M1401.64 738a2 2 0 0 1 2-2h139.45a2 2 0 0 1 2 2v38a2 2 0 0 1-2 2h-139.46a2 2 0 0 1-2-2z" stroke="#000" stroke-opacity="0" stroke-width="2" fill="#ec585d"/><use xlink:href="#h" transform="matrix(1,0,0,1,1406.6393511619053,741.0000000000002) translate(52.8 21.333333333333336)"/><use xlink:href="#j" transform="matrix(1,0,0,1,1406.6393511619053,741.0000000000002) translate(73.82666666666667 21.333333333333336)"/><path d="M1595 738a2 2 0 0 1 2-2h139.43a2 2 0 0 1 2 2v38a2 2 0 0 1-2 2H1597a2 2 0 0 1-2-2z" stroke="#000" stroke-opacity="0" stroke-width="2" fill="#ec585d"/><use xlink:href="#h" transform="matrix(1,0,0,1,1599.9862489528814,741) translate(52.9 21.333333333333336)"/><use xlink:href="#k" transform="matrix(1,0,0,1,1599.9862489528814,741) translate(73.92666666666668 21.333333333333336)"/><path d="M1359.26 236.7a2 2 0 0 1 2-2h608.9a2 2 0 0 1 2 2v139.44a2 2 0 0 1-2 2h-608.9a2 2 0 0 1-2-2z" fill-opacity="0"/><path d="M1368.24 234.7h6m4 0h5.98m4 0h5.98m4 0h5.98m4 0h5.98m4 0h5.98m4 0h6m3.98 0h6m3.98 0h6m3.98 0h6m4 0h5.98m4 0h5.98m4 0h5.98m4 0h5.98m4 0h5.98m4 0h5.98m4 0h6m3.98 0h6m3.98 0h6m3.98 0h6m4 0h5.97m4 0h6m3.98 0h6m3.98 0h6m3.98 0h6m4 0h6m3.98 0h6m3.98 0h6m3.98 0h6m3.98 0h6m4 0h5.97m4 0h5.98m4 0h5.98m4 0h5.98m4 0h5.98m4 0h6m3.98 0h6m3.98 0h6m3.98 0h6m4 0h5.97m4 0h6m3.98 0h6m4 0h5.98m4 0h5.98m4 0h5.98m4 0h6m3.98 0h6m3.98 0h6m3.98 0h6m3.98 0h6m4 0h5.98m4 0h5.98m4 0h5.98m4 0h5.98m4 0h5.98m4 0h6m3.98 0h6m3.98 0h6m3.98 0h6m3.98 0h6m4 0h2.98a2 2 0 0 1 2 2v2.98m0 4v5.96m0 4v5.96m0 4v5.96m0 4v5.96m0 4v5.96m0 4v5.96m0 4v5.96m0 4v5.97m0 3.98v5.98m0 3.98v6m0 3.97v5.98m0 3.98v5.98m0 4v5.97m0 3.98v3a2 2 0 0 1-2 2h-3m-4 0h-5.98m-4 0h-5.98m-4 0h-5.98m-4 0h-5.98m-4 0h-5.98m-4 0h-5.98m-4 0h-6m-3.98 0h-6m-3.98 0h-6m-3.98 0h-6m-4 0h-5.97m-4 0h-6m-3.98 0h-6m-4 0h-5.98m-4 0h-5.98m-4 0h-6m-3.98 0h-6m-3.98 0h-6m-3.98 0h-6m-3.98 0h-6m-4 0h-5.97m-4 0h-6m-3.98 0h-6m-3.98 0h-6m-4 0h-5.98m-4 0h-6m-3.98 0h-6m-3.98 0h-6m-3.98 0h-6m-4 0h-5.97m-4 0h-5.98m-4 0h-5.98m-4 0h-5.98m-4 0h-5.98m-4 0h-5.98m-4 0h-6m-3.98 0h-6m-3.98 0h-6m-3.98 0h-6m-3.98 0h-6m-4 0h-5.98m-4 0h-5.98m-4 0h-5.98m-4 0h-5.98m-4 0h-5.98m-4 0h-6m-3.98 0h-6m-3.98 0h-6m-3.98 0h-6m-3.98 0h-6m-4 0h-5.98m-4 0h-5.98m-4 0h-5.98m-4 0h-5.98m-4 0h-5.98m-4 0h-6m-3.98 0h-6m-3.98 0h-6m-3.98 0h-6m-4 0h-5.98m-4 0h-2.98a2 2 0 0 1-2-2v-3m0-3.98v-5.98m0-4v-5.97m0-3.98v-5.98m0-3.98v-6m0-3.97v-5.98m0-3.98v-5.98m0-4v-5.97m0-4v-5.96m0-4v-5.96m0-3.98v-5.97m0-4v-5.96m0-4v-5.97m0-4v-5.96m0-4v-2.98a2 2 0 0 1 2-2h3" stroke="#ced4db" stroke-width="2" fill="none"/><path d="M1665.98 425.87v-61.3M1665.98 425.85v1.02" stroke="#ec585d" stroke-width="2" fill="none"/><path d="M1665.98 349.3l4.64 14.27h-9.27z" stroke="#ec585d" stroke-width="2" fill="#ec585d"/><path d="M1665.44 616.7V536.8" stroke="#ec585d" stroke-width="2" fill="none"/><path d="M1666.4 618.1l-.96-.4-.98.4v-1.43h1.95zM1665.44 535.83l.97-.4v1.42h-1.94v-1.43z" stroke="#ec585d" stroke-width=".05" fill="#ec585d"/><path d="M1665.7 425.76v-17.5a6 6 0 0 0-6-6h-180.44a6 6 0 0 1-6-6v-31.83M1665.7 425.73v1.03" stroke="#ec585d" stroke-width="2" fill="none"/><path d="M1473.26 349.16l4.63 14.27h-9.28z" stroke="#ec585d" stroke-width="2" fill="#ec585d"/><path d="M1665.7 425.76v-17.5a6 6 0 0 1 6-6h179.56a6 6 0 0 0 6-6v-31.7M1665.7 425.73v1.03" stroke="#ec585d" stroke-width="2" fill="none"/><path d="M1857.26 349.3l4.64 14.27h-9.27z" stroke="#ec585d" stroke-width="2" fill="#ec585d"/><path d="M1857.16 616.8v-33.98a6 6 0 0 0-6-6h-179.72a6 6 0 0 1-6-6v-34" stroke="#ec585d" stroke-width="2" fill="none"/><path d="M1858.14 618.2l-1.25-.5-.7.28v-1.2h1.94zM1665.44 535.83l.97-.4v1.42h-1.94v-1.43z" stroke="#ec585d" stroke-width=".05" fill="#ec585d"/><path d="M1472.5 616.66v-33.92a6 6 0 0 1 6-6h180.94a6 6 0 0 0 6-6v-33.9" stroke="#ec585d" stroke-width="2" fill="none"/><path d="M1473.46 618.06l-1.25-.5-.7.28v-1.2h1.96zM1665.44 535.83l.97-.4v1.42h-1.94v-1.43z" stroke="#ec585d" stroke-width=".05" fill="#ec585d"/><path d="M1665.44 562.8l.5-136.3M1665.44 562.76v1.03M1665.93 426.52v-1.02" stroke="#ec585d" stroke-width="2" fill="none"/><defs><path fill="#3a414a" d="M92 0v-700h79V0H92" id="l"/><path fill="#3a414a" d="M531 1L162-584V0H87v-700h93l373 591v-590h75V1h-97" id="m"/><path fill="#3a414a" d="M373 6C191 6 52-139 52-346c0-213 140-361 328-361 155 0 273 102 293 237h-84c-15-89-103-162-210-162-139 0-243 121-243 287 0 159 103 275 240 274 89 0 207-58 223-205H388v-77l288 1V0l-70 1-3-123C552-35 460 6 373 6" id="n"/><path fill="#3a414a" d="M87 1v-701l281-1c130-1 205 75 205 188 0 77-49 143-110 162 74 23 88 82 94 171 8 108 7 137 30 180h-87c-15-35-14-68-20-155-7-90-8-163-136-163H164V1H87zm77-387h193c80 0 141-47 141-123 0-82-54-123-141-123H165" id="o"/><path fill="#3a414a" d="M87 0v-700h441v75H164v234h343v73H164v243h364V0H87" id="p"/><path fill="#3a414a" d="M328 7C189 7 58-66 47-216h88c14 94 86 150 199 150 103 0 162-55 162-129 0-68-44-104-164-123-193-29-266-96-266-197 0-106 101-191 235-191 162 0 263 84 265 222h-82c-7-96-74-147-180-147-91 0-153 53-153 115 0 71 74 105 176 120 193 29 254 92 254 202C581-72 478 7 328 7" id="q"/><g id="a"><use transform="matrix(0.013333333333333334,0,0,0.013333333333333334,0,0)" xlink:href="#l"/><use transform="matrix(0.013333333333333334,0,0,0.013333333333333334,3.4533333333333336,0)" xlink:href="#m"/><use transform="matrix(0.013333333333333334,0,0,0.013333333333333334,12.986666666666666,0)" xlink:href="#n"/><use transform="matrix(0.013333333333333334,0,0,0.013333333333333334,23.14666666666667,0)" xlink:href="#o"/><use transform="matrix(0.013333333333333334,0,0,0.013333333333333334,31.853333333333335,0)" xlink:href="#p"/><use transform="matrix(0.013333333333333334,0,0,0.013333333333333334,39.34666666666667,0)" xlink:href="#q"/><use transform="matrix(0.013333333333333334,0,0,0.013333333333333334,47.77333333333334,0)" xlink:href="#q"/></g><path fill="#3a414a" d="M225 0L27-700h78l164 592 161-592h75l165 593 157-593h79L712 0h-87L467-573 311 0h-86" id="r"/><path fill="#3a414a" d="M378 10C192 10 52-147 52-350c0-205 137-358 326-358s326 154 326 360c0 202-140 358-326 358zm-2-76c147 0 249-122 249-278 0-164-100-289-247-289-146 0-245 125-245 287 0 157 100 280 243 280" id="s"/><path fill="#3a414a" d="M87 0v-700h75v356l331-356 99-1-287 310L598 0h-99L251-335l-89 96V0H87" id="t"/><g id="b"><use transform="matrix(0.013333333333333334,0,0,0.013333333333333334,0,0)" xlink:href="#r"/><use transform="matrix(0.013333333333333334,0,0,0.013333333333333334,12.08,0)" xlink:href="#s"/><use transform="matrix(0.013333333333333334,0,0,0.013333333333333334,22.213333333333335,0)" xlink:href="#o"/><use transform="matrix(0.013333333333333334,0,0,0.013333333333333334,30.92,0)" xlink:href="#t"/><use transform="matrix(0.013333333333333334,0,0,0.013333333333333334,39.013333333333335,0)" xlink:href="#p"/><use transform="matrix(0.013333333333333334,0,0,0.013333333333333334,46.64,0)" xlink:href="#o"/></g><g id="c"><use transform="matrix(0.013333333333333334,0,0,0.013333333333333334,0,0)" xlink:href="#p"/><use transform="matrix(0.013333333333333334,0,0,0.013333333333333334,7.2266666666666675,0)" xlink:href="#n"/><use transform="matrix(0.013333333333333334,0,0,0.013333333333333334,17.386666666666667,0)" xlink:href="#o"/><use transform="matrix(0.013333333333333334,0,0,0.013333333333333334,26.093333333333334,0)" xlink:href="#p"/><use transform="matrix(0.013333333333333334,0,0,0.013333333333333334,33.586666666666666,0)" xlink:href="#q"/><use transform="matrix(0.013333333333333334,0,0,0.013333333333333334,42.013333333333335,0)" xlink:href="#q"/></g><path fill="#3a414a" d="M267-707c146 0 257 116 257 352C524-77 392 7 266 6 139 6 58-75 44-176h73c18 78 82 115 154 113 121-2 184-117 179-302-38 78-114 116-194 116-124 0-222-90-222-225 0-144 106-232 233-233zm-1 71c-92 0-151 72-151 161 0 88 64 151 151 151 88 0 155-69 155-157 0-80-64-155-155-155" id="u"/><path fill="#3a414a" d="M47 0v-76l213-191c110-97 163-150 163-226 0-86-59-142-147-142s-150 57-158 148H39c8-130 106-219 237-219 130 0 222 91 222 210 0 102-65 168-166 260L153-73l357-1V0H47" id="v"/><path fill="#3a414a" d="M313 10C154 10 52-132 52-346c0-215 103-358 263-358s262 143 262 358c0 214-103 356-264 356zm2-71c114 0 185-112 185-284 0-174-72-288-188-288-113 0-183 112-183 284 0 176 71 288 186 288" id="w"/><g id="d"><use transform="matrix(0.013333333333333334,0,0,0.013333333333333334,0,0)" xlink:href="#u"/><use transform="matrix(0.013333333333333334,0,0,0.013333333333333334,7.493333333333334,0)" xlink:href="#v"/><use transform="matrix(0.013333333333333334,0,0,0.013333333333333334,14.840000000000002,0)" xlink:href="#w"/><use transform="matrix(0.013333333333333334,0,0,0.013333333333333334,23.226666666666667,0)" xlink:href="#v"/></g><path fill="#fff" d="M75 1v-701l300-1c123 0 205 93 205 214 0 120-84 210-211 210H183V1H75zm108-373h164c69 0 124-39 124-116 0-78-55-118-124-118H183v234" id="x"/><path fill="#fff" d="M349 8C177 8 65-101 65-273v-427h110v427c0 115 69 178 174 178 103 0 174-63 174-178v-427h110v427C633-101 521 8 349 8" id="y"/><path fill="#fff" d="M75 2v-702h289c113 0 202 65 202 181 0 69-43 118-89 140 69 26 122 100 121 184C596-74 517 2 392 2H75zm107-413h181c48 0 88-40 88-92 0-54-31-98-93-98H182v190zm2 307h187c61 0 104-39 104-103 0-60-43-106-104-106H184v209" id="z"/><path fill="#fff" d="M75 0v-700h116v590h310V0H75" id="A"/><path fill="#fff" d="M80 0v-700h115V0H80" id="B"/><path fill="#fff" d="M367 5C185 5 39-144 40-347c1-206 138-360 334-360 174 0 284 112 305 254H553c-14-75-81-145-184-145-127 0-206 114-206 252 0 135 79 243 202 243 108 0 174-77 188-148h126C656-113 547 5 367 5" id="C"/><path fill="#fff" d="M72 200l440-950h104L177 200H72" id="D"/><path fill="#fff" d="M75 1v-701l302-1c123 0 205 85 205 193 0 92-53 155-106 173 62 20 87 75 94 161 8 97 3 130 27 174H473c-15-36-14-74-19-149-7-98-21-147-144-147H185V1H75zm110-392c129-5 288 32 288-107 1-141-158-103-288-108v215" id="E"/><path fill="#fff" d="M272 0L10-700h113l201 552 201-552h112L375 0H272" id="F"/><path fill="#fff" d="M145 0L20-1l268-699h112L668 0H543l-66-172H210zm95-272h207L344-563" id="G"/><path fill="#fff" d="M242 0l1-597H1L0-700h590l1 103-241-1-1 598H242" id="H"/><path fill="#fff" d="M75 0v-700h459v107H182v187h331v103H182v196h352V0H75" id="I"/><g id="e"><use transform="matrix(0.013333333333333334,0,0,0.013333333333333334,0,0)" xlink:href="#x"/><use transform="matrix(0.013333333333333334,0,0,0.013333333333333334,8,0)" xlink:href="#y"/><use transform="matrix(0.013333333333333334,0,0,0.013333333333333334,17.306666666666665,0)" xlink:href="#z"/><use transform="matrix(0.013333333333333334,0,0,0.013333333333333334,25.746666666666666,0)" xlink:href="#A"/><use transform="matrix(0.013333333333333334,0,0,0.013333333333333334,32.626666666666665,0)" xlink:href="#B"/><use transform="matrix(0.013333333333333334,0,0,0.013333333333333334,36.29333333333333,0)" xlink:href="#C"/><use transform="matrix(0.013333333333333334,0,0,0.013333333333333334,45.81333333333333,0)" xlink:href="#D"/><use transform="matrix(0.013333333333333334,0,0,0.013333333333333334,53.49333333333333,0)" xlink:href="#x"/><use transform="matrix(0.013333333333333334,0,0,0.013333333333333334,61.49333333333334,0)" xlink:href="#E"/><use transform="matrix(0.013333333333333334,0,0,0.013333333333333334,70.12,0)" xlink:href="#B"/><use transform="matrix(0.013333333333333334,0,0,0.013333333333333334,73.78666666666668,0)" xlink:href="#F"/><use transform="matrix(0.013333333333333334,0,0,0.013333333333333334,81.61333333333334,0)" xlink:href="#G"/><use transform="matrix(0.013333333333333334,0,0,0.013333333333333334,90.78666666666668,0)" xlink:href="#H"/><use transform="matrix(0.013333333333333334,0,0,0.013333333333333334,98.66666666666667,0)" xlink:href="#I"/></g><path fill="#3a414a" d="M272 0L10-700h113l201 552 201-552h112L375 0H272" id="J"/><path fill="#3a414a" d="M75 1v-701l300-1c123 0 205 93 205 214 0 120-84 210-211 210H183V1H75zm108-373h164c69 0 124-39 124-116 0-78-55-118-124-118H183v234" id="K"/><path fill="#3a414a" d="M367 5C185 5 39-144 40-347c1-206 138-360 334-360 174 0 284 112 305 254H553c-14-75-81-145-184-145-127 0-206 114-206 252 0 135 79 243 202 243 108 0 174-77 188-148h126C656-113 547 5 367 5" id="L"/><g id="f"><use transform="matrix(0.013333333333333329,0,0,0.013333333333333329,0,0)" xlink:href="#J"/><use transform="matrix(0.013333333333333329,0,0,0.013333333333333329,8.626666666666663,0)" xlink:href="#K"/><use transform="matrix(0.013333333333333329,0,0,0.013333333333333329,16.62666666666666,0)" xlink:href="#L"/></g><g id="g"><use transform="matrix(0.013333333333333334,0,0,0.013333333333333334,0,0)" xlink:href="#x"/><use transform="matrix(0.013333333333333334,0,0,0.013333333333333334,8,0)" xlink:href="#E"/><use transform="matrix(0.013333333333333334,0,0,0.013333333333333334,16.626666666666665,0)" xlink:href="#B"/><use transform="matrix(0.013333333333333334,0,0,0.013333333333333334,20.293333333333333,0)" xlink:href="#F"/><use transform="matrix(0.013333333333333334,0,0,0.013333333333333334,28.119999999999997,0)" xlink:href="#G"/><use transform="matrix(0.013333333333333334,0,0,0.013333333333333334,37.29333333333333,0)" xlink:href="#H"/><use transform="matrix(0.013333333333333334,0,0,0.013333333333333334,45.17333333333333,0)" xlink:href="#I"/></g><path fill="#fff" d="M40 0v-109l434-482H46v-109h563v109L183-109h420V0H40" id="M"/><g id="h"><use transform="matrix(0.013333333333333334,0,0,0.013333333333333334,0,0)" xlink:href="#G"/><use transform="matrix(0.013333333333333334,0,0,0.013333333333333334,9.173333333333334,0)" xlink:href="#M"/></g><path fill="#fff" d="M394-362c71 26 132 82 130 176C522-70 423 14 282 14 132 14 31-81 27-216h115c-3 75 52 127 137 127 76 0 129-40 129-101 0-78-82-117-192-107v-108c101 8 181-27 178-105 0-58-48-96-118-96-80 0-124 48-127 130H35c3-141 95-234 245-234 135 0 229 77 229 184 0 87-63 145-115 164" id="N"/><use transform="matrix(0.013333333333333334,0,0,0.013333333333333334,0,0)" xlink:href="#N" id="i"/><path fill="#fff" d="M506 0H60v-92h168v-490L60-462v-103l183-135h88v608h175V0" id="O"/><use transform="matrix(0.013333333333333334,0,0,0.013333333333333334,0,0)" xlink:href="#O" id="j"/><path fill="#fff" d="M34 0v-107l159-137c127-109 204-162 204-244 0-72-49-119-123-119-72 0-124 50-133 127H26c6-137 106-229 249-229 134 0 233 92 233 216S407-297 291-194l-104 92h326V0H34" id="P"/><use transform="matrix(0.013333333333333334,0,0,0.013333333333333334,0,0)" xlink:href="#P" id="k"/></defs></g></svg>