<svg xmlns="http://www.w3.org/2000/svg" xmlns:lucid="lucid" xmlns:xlink="http://www.w3.org/1999/xlink" width="879.07" height="881.12">
  <g lucid:page-tab-id="0_0" transform="translate(105.279 -341)">
    <path fill="#fff" d="M-768-1368h2336v4136H-768z"/>
    <path fill="#fff" stroke="#6f7681" stroke-width="2" d="M-104.28 358a2 2 0 0 1 2-2H770.8a2 2 0 0 1 2 2v861.13a2 2 0 0 1-2 2h-873.1a2 2 0 0 1-2-2z"/>
    <path fill="#fff" stroke="#979ea8" stroke-width="2" d="M-57.7 522.5a2 2 0 0 1 2-2h379a2 2 0 0 1 2 2v649.13a2 2 0 0 1-2 2h-379a2 2 0 0 1-2-2z"/>
    <path fill="#fff" stroke="#f2f3f5" stroke-width="2" d="M38.3 736.88a2 2 0 0 1 2-2h235.5a2 2 0 0 1 2 2v387.25a2 2 0 0 1-2 2H40.3a2 2 0 0 1-2-2z"/>
    <path fill="#fff" stroke="#dfe3e8" stroke-width="2" d="M14.3 712.88a2 2 0 0 1 2-2h236a2 2 0 0 1 2 2v387.25a2 2 0 0 1-2 2h-236a2 2 0 0 1-2-2z"/>
    <path fill="#fff" stroke="#ced4db" stroke-width="2" d="M-9.7 689.88a2 2 0 0 1 2-2h236a2 2 0 0 1 2 2v386.25a2 2 0 0 1-2 2h-236a2 2 0 0 1-2-2z"/>
    <path fill="#fff" stroke="#000" stroke-opacity="0" stroke-width="2" d="M-1.7 675.88a2 2 0 0 1 2-2h156a2 2 0 0 1 2 2v17a2 2 0 0 1-2 2H.3a2 2 0 0 1-2-2z"/>
    <use xlink:href="#a" transform="translate(3.998 692.208)"/>
    <use xlink:href="#b" transform="translate(65.998 692.208)"/>
    <path fill="#fff" stroke="#000" stroke-opacity="0" stroke-width="2" d="M188.3 1065.88a2 2 0 0 1 2-2h28a2 2 0 0 1 2 2v17a2 2 0 0 1-2 2h-28a2 2 0 0 1-2-2z"/>
    <use xlink:href="#c" transform="translate(191.558 1082.208)"/>
    <path fill="#fff" stroke="#000" stroke-opacity="0" stroke-width="2" d="M204.3 1089.88a2 2 0 0 1 2-2h36a2 2 0 0 1 2 2v17a2 2 0 0 1-2 2h-36a2 2 0 0 1-2-2z"/>
    <use xlink:href="#d" transform="translate(208.678 1106.208)"/>
    <path fill="#fff" stroke="#000" stroke-opacity="0" stroke-width="2" d="M228.3 1114.63a2 2 0 0 1 2-2h36a2 2 0 0 1 2 2v17a2 2 0 0 1-2 2h-36a2 2 0 0 1-2-2z"/>
    <use xlink:href="#e" transform="translate(230.558 1130.96)"/>
    <path fill="#fff" stroke="#000" stroke-opacity="0" stroke-width="2" d="M-49.7 508a2 2 0 0 1 2-2h156a2 2 0 0 1 2 2v17a2 2 0 0 1-2 2h-156a2 2 0 0 1-2-2z"/>
    <use xlink:href="#f" transform="translate(-42.776 524.333)"/>
    <use xlink:href="#g" transform="translate(11.944 524.333)"/>
    <use xlink:href="#h" transform="translate(24.851 524.333)"/>
    <path fill="#fff" stroke="#979ea8" stroke-width="2" d="M342.3 522.5a2 2 0 0 1 2-2h379a2 2 0 0 1 2 2v649.13a2 2 0 0 1-2 2h-379a2 2 0 0 1-2-2z"/>
    <path fill="#fff" stroke="#f2f3f5" stroke-width="2" d="M438.3 736.88a2 2 0 0 1 2-2h235.5a2 2 0 0 1 2 2v387.25a2 2 0 0 1-2 2H440.3a2 2 0 0 1-2-2z"/>
    <path fill="#fff" stroke="#dfe3e8" stroke-width="2" d="M414.3 712.88a2 2 0 0 1 2-2h236a2 2 0 0 1 2 2v387.25a2 2 0 0 1-2 2h-236a2 2 0 0 1-2-2z"/>
    <path fill="#fff" stroke="#ced4db" stroke-width="2" d="M390.3 689.88a2 2 0 0 1 2-2h236a2 2 0 0 1 2 2v386.25a2 2 0 0 1-2 2h-236a2 2 0 0 1-2-2z"/>
    <path fill="#fff" stroke="#000" stroke-opacity="0" stroke-width="2" d="M398.3 675.88a2 2 0 0 1 2-2h156a2 2 0 0 1 2 2v17a2 2 0 0 1-2 2h-156a2 2 0 0 1-2-2z"/>
    <use xlink:href="#a" transform="translate(403.998 692.208)"/>
    <use xlink:href="#b" transform="translate(465.998 692.208)"/>
    <path fill="#fff" stroke="#000" stroke-opacity="0" stroke-width="2" d="M588.3 1065.88a2 2 0 0 1 2-2h28a2 2 0 0 1 2 2v17a2 2 0 0 1-2 2h-28a2 2 0 0 1-2-2z"/>
    <use xlink:href="#c" transform="translate(591.558 1082.208)"/>
    <path fill="#fff" stroke="#000" stroke-opacity="0" stroke-width="2" d="M616 1089.88a2 2 0 0 1 2-2h24.3a2 2 0 0 1 2 2v17a2 2 0 0 1-2 2H618a2 2 0 0 1-2-2z"/>
    <use xlink:href="#i" transform="translate(620.62 1106.208)"/>
    <path fill="#fff" stroke="#000" stroke-opacity="0" stroke-width="2" d="M632 1114.63a2 2 0 0 1 2-2h32.3a2 2 0 0 1 2 2v17a2 2 0 0 1-2 2H634a2 2 0 0 1-2-2z"/>
    <use xlink:href="#j" transform="translate(637.453 1130.96)"/>
    <path fill="#fff" stroke="#000" stroke-opacity="0" stroke-width="2" d="M350.3 508a2 2 0 0 1 2-2h156a2 2 0 0 1 2 2v17a2 2 0 0 1-2 2h-156a2 2 0 0 1-2-2z"/>
    <use xlink:href="#f" transform="translate(357.791 524.333)"/>
    <use xlink:href="#k" transform="translate(412.511 524.333)"/>
    <use xlink:href="#h" transform="translate(424.284 524.333)"/>
    <path fill="#fff" stroke="#000" stroke-opacity="0" stroke-width="2" d="M-96 343a2 2 0 0 1 2-2H30.93a2 2 0 0 1 2 2v17a2 2 0 0 1-2 2H-94a2 2 0 0 1-2-2z"/>
    <use xlink:href="#l" transform="translate(-90.06 359.333)"/>
    <use xlink:href="#m" transform="translate(-51.447 359.333)"/>
    <path fill="#ffec6e" stroke="#000" stroke-opacity="0" d="M555.77 562.44H511.8c-1.34 0-2 .67-2 2v43.98c0 1.35.66 2.02 2 2.02h43.97c1.35 0 2.02-.67 2.02-2.02v-43.96c0-1.35-.68-2.02-2.02-2.02z"/>
    <path stroke="#000" stroke-opacity="0" d="M523 578.33a.77.77 0 0 0-1.07.2c-.23.33-.2.76.15 1l3.7 2.64-3.7 2.64c-.34.3-.38.73-.15 1.06.25.34.73.43 1.06.2l4.5-3.27.15-.15c.24-.34.2-.82-.15-1.06l-4.5-3.27zm8.53 3.12c-.43 0-.7.33-.7.72 0 .43.27.76.7.76h9.5c.44 0 .78-.33.78-.76 0-.4-.33-.72-.76-.72h-9.5zm-3.74 5.76c0-.43.33-.76.76-.76h12.48c.43 0 .77.33.77.77 0 .4-.33.73-.76.73h-12.48c-.43 0-.77-.34-.77-.72zm.76 4.23c-.43 0-.77.34-.77.77 0 .38.33.72.76.72h12.48c.43 0 .77-.34.77-.72 0-.43-.33-.77-.76-.77h-12.48z"/>
    <path fill="#fff" fill-opacity="0" d="M480.7 616.44a6 6 0 0 1 6-6h94.2a6 6 0 0 1 6 6v16a6 6 0 0 1-6 6h-94.2a6 6 0 0 1-6-6z"/>
    <use xlink:href="#n" transform="translate(487.531 628.8)"/>
    <use xlink:href="#o" transform="translate(533.131 628.8)"/>
    <path fill="#ffec6e" stroke="#000" stroke-opacity="0" d="M424.05 403H380.1c-1.36 0-2.03.67-2.03 2.02v43.96c0 1.35.67 2.02 2.02 2.02h43.95c1.35 0 2.02-.67 2.02-2.02v-43.96c0-1.35-.67-2.02-2.02-2.02z"/>
    <path stroke="#000" stroke-opacity="0" d="M391.27 418.9a.756.756 0 0 0-1.06.18c-.23.34-.18.77.16 1l3.7 2.65-3.7 2.64c-.34.3-.4.72-.15 1.05.25.34.73.44 1.07.2l4.5-3.27.16-.14c.24-.33.2-.8-.15-1.05l-4.5-3.26zm8.54 3.1c-.42 0-.7.34-.7.73 0 .43.28.77.7.77h9.52c.43 0 .77-.34.77-.77 0-.4-.35-.72-.78-.72h-9.5zm-3.73 5.77c0-.43.34-.77.77-.77h12.48c.43 0 .77.34.77.77 0 .38-.35.72-.78.72h-12.48c-.43 0-.77-.35-.77-.73zm.77 4.22c-.43 0-.77.33-.77.76 0 .38.34.72.77.72h12.48c.43 0 .77-.34.77-.72 0-.43-.35-.77-.78-.77h-12.48z"/>
    <path fill="#fff" fill-opacity="0" d="M346.1 457.5a6 6 0 0 1 6-6h95.8a6 6 0 0 1 6 6v9.5a6 6 0 0 1-6 6h-95.8a6 6 0 0 1-6-6z"/>
    <use xlink:href="#n" transform="translate(353.449 467.607)"/>
    <use xlink:href="#o" transform="translate(399.049 467.607)"/>
    <path fill="#fff" fill-opacity="0" d="M218.86 457.5a6 6 0 0 1 6-6h75.86a6 6 0 0 1 6 6v9a6 6 0 0 1-6 6h-75.86a6 6 0 0 1-6-6z"/>
    <use xlink:href="#p" transform="translate(226.01 467.607)"/>
    <use xlink:href="#q" transform="translate(269.822 467.607)"/>
    <path fill="#ffec6e" stroke="#000" stroke-opacity="0" d="M238.8 405.5a2 2 0 0 1 2-2h44a2 2 0 0 1 2 2v44a2 2 0 0 1-2 2h-44a2 2 0 0 1-2-2z"/>
    <path fill="#1d1e1f" stroke="#000" stroke-opacity="0" d="M265.66 416.77c-3.8-.86-7.57.48-10 3.16-.28.3-.24.8.06 1.08.3.27.77.25 1.05-.06 2.22-2.46 5.32-3.45 8.56-2.72 1.86.44 3.35 1.3 4.6 2.72.3.3.76.33 1.06.07.3-.28.35-.74.06-1.07-1.5-1.67-3.22-2.68-5.4-3.16zm-10.07 5.85c.2-.36.06-.8-.3-1.02a.756.756 0 0 0-1.02.3c-.48.9-.8 1.68-1 2.65-.46 2.05-.9 3.08-1.34 3.85-.2.37-.06.8.3 1.03.36.2.82.07 1-.3.54-.93 1.02-2.1 1.5-4.25.18-.8.48-1.56.85-2.26zm16.84-.7a.74.74 0 0 0-1-.32c-.38.2-.5.66-.3 1 1.06 2 1.34 4.02.84 6.2-.37 1.7-.83 3.27-1.38 4.76-.13.4.07.82.46.95.37.16.8-.03.96-.4.57-1.6 1.03-3.22 1.43-4.96.6-2.57.26-4.92-1-7.23zm-8 .17c-2.6-.6-5.2 1.02-5.78 3.64-.24 1.05-.5 1.93-.84 2.94-.13.4.1.82.5.95.36.15.8-.07.93-.46.37-1.06.63-1.98.87-3.1.4-1.8 2.2-2.93 4-2.5 1.17.25 2.02 1 2.4 2.12.17.4.58.6.97.45.4-.13.58-.57.45-.94-.56-1.62-1.8-2.74-3.5-3.1zm3.67 5.8c.1-.4-.15-.82-.56-.9-.4-.1-.8.17-.9.56-.7 3.08-1.55 5.48-2.8 7.76-.4.7-.8 1.34-1.25 2-.23.36-.14.8.2 1.04.32.24.78.15 1.02-.18.5-.72.9-1.36 1.33-2.13 1.34-2.44 2.24-5 2.96-8.16zm-10.1 4.17c.2-.37.06-.8-.3-1.03a.72.72 0 0 0-1 .3c-.5.88-1.1 1.74-1.9 2.75-.24.32-.2.8.14 1.05.32.26.8.2 1.05-.13.83-1.06 1.46-1.98 2-2.95zm5.23-12.12c.07.4-.2.77-.63.84-2.58.34-4.55 2.14-5.12 4.67-.56 2.44-1.13 3.96-1.86 5.26-.38.66-.73 1.2-1.2 1.82-.23.33-.7.4-1.02.16-.35-.24-.4-.7-.17-1.05.45-.6.8-1.12 1.08-1.65.64-1.14 1.18-2.5 1.7-4.86.73-3.16 3.18-5.4 6.4-5.84.4-.05.78.24.83.65zm.97.05c.1-.42.48-.66.9-.57 4.1.92 6.63 5 5.7 9.08-.2.93-.4 1.72-.67 2.62-.1.4-.53.64-.92.5a.72.72 0 0 1-.53-.9c.24-.83.46-1.66.66-2.54.75-3.28-1.3-6.55-4.56-7.3a.74.74 0 0 1-.57-.88zm4.55 12.95c.4.15.6.6.44.97-.48 1.25-.97 2.28-1.62 3.45-.22.35-.68.48-1.03.26a.74.74 0 0 1-.27-1c.6-1.1 1.07-2.08 1.53-3.24.15-.4.6-.6.96-.45zm-4.88-8.2c-.68-.16-1.33.02-1.86.48-.33.3-.35.77-.06 1.08.26.32.74.34 1.05.05.26-.22.63-.2.87.05.13.15.2.35.15.55-.46 1.98-.97 3.58-1.58 5.03-.15.38.02.8.4.97.37.18.8 0 .98-.38.65-1.56 1.18-3.25 1.64-5.27.26-1.15-.44-2.3-1.6-2.55zm-1.5 3.63c.12-.4-.12-.82-.5-.93a.77.77 0 0 0-.93.53c-.5 1.9-1.1 3.34-1.85 4.68-.55 1-1.23 2-2.06 3.06-.27.33-.2.8.13 1.05.32.27.78.2 1.05-.13.87-1.12 1.57-2.15 2.18-3.25.8-1.46 1.45-3.05 2-5.02zm.4 6.33c.23-.34.1-.8-.28-1-.35-.2-.8-.07-1.02.28-.57 1.06-1.14 1.9-1.87 2.86-.24.33-.17.8.16 1.03.33.27.8.2 1.05-.13.76-1 1.36-1.9 1.97-3.03z"/>
    <path fill="#ffec6e" stroke="#000" stroke-opacity="0" d="M132.54 848.44a2 2 0 0 1 2-2h44a2 2 0 0 1 2 2v44a2 2 0 0 1-2 2h-44a2 2 0 0 1-2-2zM82.53 958.2H38.56c-1.35 0-2.02.66-2.02 2v43.97c0 1.35.67 2.02 2.02 2.02h43.97c1.34 0 2-.68 2-2.03V960.2c0-1.34-.66-2-2-2z"/>
    <path stroke="#000" stroke-opacity="0" d="M60.54 986.46c.43 0 .77.34.77.72v2.02c0 .38-.33.72-.76.72s-.77-.34-.77-.72v-2.02c0-.38.34-.72.77-.72z"/>
    <path stroke="#000" stroke-opacity="0" d="M54.54 980.27v-3.3c0-1.55.63-3.04 1.78-4.1 1.2-1.15 2.6-1.67 4.22-1.67 1.6 0 3.12.57 4.23 1.68 1.15 1.1 1.77 2.44 1.77 4.08v3.3c1.2.4 2.02 1.45 2.02 2.7v7.48c0 1.54-1.25 2.74-2.8 2.74H55.32c-1.53 0-2.77-1.2-2.77-2.74v-7.48c0-1.25.8-2.3 2-2.7zm2.8-6.34h-.02c.92-.8 1.97-1.25 3.22-1.25 1.2 0 2.35.48 3.22 1.25.8.82 1.3 1.87 1.3 3.03v3.2h-9.03v-3.2c0-1.16.48-2.2 1.3-3.03zm8.43 7.78H55.3c-.7 0-1.24.54-1.24 1.26v7.48c0 .68.53 1.25 1.25 1.25h10.47c.72 0 1.25-.58 1.25-1.26v-7.48c0-.72-.53-1.25-1.25-1.25z"/>
    <path fill="#ffec6e" stroke="#000" stroke-opacity="0" d="M132.54 960.2a2 2 0 0 1 2-2h44a2 2 0 0 1 2 2v44a2 2 0 0 1-2 2h-44a2 2 0 0 1-2-2zM82.53 846.44H38.56c-1.35 0-2.02.67-2.02 2v43.98c0 1.35.67 2.02 2.02 2.02h43.97c1.34 0 2-.67 2-2.02v-43.97c0-1.34-.66-2-2-2z"/>
    <path stroke="#000" stroke-opacity="0" d="M60.54 874.7c.43 0 .77.35.77.73v2.02c0 .38-.33.72-.76.72s-.77-.34-.77-.72v-2.02c0-.38.34-.72.77-.72z"/>
    <path stroke="#000" stroke-opacity="0" d="M54.54 868.52v-3.3c0-1.55.63-3.04 1.78-4.1 1.2-1.15 2.6-1.67 4.22-1.67 1.6 0 3.12.57 4.23 1.68 1.15 1.1 1.77 2.44 1.77 4.08v3.32c1.2.38 2.02 1.44 2.02 2.7v7.47c0 1.53-1.25 2.73-2.8 2.73H55.32c-1.53 0-2.77-1.2-2.77-2.74v-7.5c0-1.24.8-2.3 2-2.68zm2.8-6.34h-.02c.92-.8 1.97-1.25 3.22-1.25 1.2 0 2.35.48 3.22 1.25.8.82 1.3 1.87 1.3 3.03v3.22h-9.03v-3.2c0-1.17.48-2.22 1.3-3.04zm8.43 7.78H55.3c-.7 0-1.24.53-1.24 1.25v7.5c0 .67.53 1.24 1.25 1.24h10.47c.72 0 1.25-.57 1.25-1.25v-7.5c0-.7-.53-1.24-1.25-1.24z"/>
    <path fill="#fff" fill-opacity="0" d="M19.04 900.44a6 6 0 0 1 6-6h73a6 6 0 0 1 6 6v21.12a6 6 0 0 1-6 6h-73a6 6 0 0 1-6-6z"/>
    <use xlink:href="#r" transform="translate(41.397 910.549)"/>
    <use xlink:href="#s" transform="translate(37.152 923.882)"/>
    <use xlink:href="#t" transform="translate(79.786 923.882)"/>
    <path fill="#fff" fill-opacity="0" d="M19.04 1012.2a6 6 0 0 1 6-6h73a6 6 0 0 1 6 6v21.36a6 6 0 0 1-6 6h-73a6 6 0 0 1-6-6z"/>
    <use xlink:href="#r" transform="translate(41.397 1022.299)"/>
    <use xlink:href="#s" transform="translate(37.236 1035.632)"/>
    <use xlink:href="#u" transform="translate(79.869 1035.632)"/>
    <path fill="#fff" fill-opacity="0" d="M116.54 900.44a6 6 0 0 1 6-6h73a6 6 0 0 1 6 6v21.12a6 6 0 0 1-6 6h-73a6 6 0 0 1-6-6z"/>
    <use xlink:href="#v" transform="translate(134.052 910.549)"/>
    <use xlink:href="#w" transform="translate(139.469 923.882)"/>
    <use xlink:href="#t" transform="translate(172.469 923.882)"/>
    <path fill="#fff" fill-opacity="0" d="M116.54 1012.2a6 6 0 0 1 6-6h73a6 6 0 0 1 6 6v21.36a6 6 0 0 1-6 6h-73a6 6 0 0 1-6-6z"/>
    <use xlink:href="#v" transform="translate(134.052 1022.299)"/>
    <use xlink:href="#w" transform="translate(139.552 1035.632)"/>
    <use xlink:href="#u" transform="translate(172.552 1035.632)"/>
    <path fill="#ffec6e" stroke="#000" stroke-opacity="0" d="M130.53 726.44H86.56c-1.35 0-2.02.67-2.02 2v43.98c0 1.35.67 2.02 2.02 2.02h43.97c1.34 0 2-.67 2-2.02v-43.97c0-1.34-.66-2-2-2z"/>
    <path stroke="#000" stroke-opacity="0" d="M97.74 742.33c-.33-.24-.8-.15-1.05.2-.26.32-.2.76.13 1l3.7 2.64-3.7 2.64c-.34.3-.4.73-.14 1.06.22.34.7.43 1.04.2l4.5-3.27.16-.15c.24-.34.2-.82-.15-1.06l-4.5-3.27zm8.55 3.12h-.02c-.43 0-.72.33-.72.72 0 .43.3.76.72.76h9.5c.44 0 .78-.33.78-.76 0-.4-.34-.72-.77-.72h-9.52zm-3.76 5.76c0-.43.34-.76.77-.76h12.5c.42 0 .76.33.76.77 0 .4-.34.73-.77.73h-12.5c-.42 0-.76-.34-.76-.72zm.77 4.23c-.42 0-.76.34-.76.77 0 .38.34.72.77.72h12.5c.42 0 .76-.34.76-.72 0-.43-.34-.77-.77-.77h-12.5z"/>
    <path fill="#fff" fill-opacity="0" d="M42.83 780.44a6 6 0 0 1 6-6h119.42a6 6 0 0 1 6 6v16a6 6 0 0 1-6 6H48.83a6 6 0 0 1-6-6z"/>
    <use xlink:href="#x" transform="translate(50.821 792.799)"/>
    <use xlink:href="#o" transform="translate(119.132 792.799)"/>
    <path fill="#1d1e1f" stroke="#000" stroke-opacity="0" d="M161.08 866.54c.3.28.3.76 0 1.06l-5.5 5.5c-.3.28-.78.28-1.07 0l-2.5-2.5c-.3-.3-.32-.77-.03-1.07.3-.3.76-.3 1.06-.02.02 0 .02.03.04.03l1.98 1.97 4.97-4.96c.28-.3.75-.3 1.06 0z"/>
    <path fill="#1d1e1f" stroke="#000" stroke-opacity="0" d="M155.34 859.62c.65-.24 1.26-.24 1.9 0l6.27 2.34c1.1.4 1.8 1.4 1.8 2.57v5.78c0 2.76-1.47 5.05-3.1 6.78-1.66 1.76-3.57 3-4.67 3.66-.8.46-1.7.46-2.48 0-1.1-.65-3-1.9-4.66-3.66-1.65-1.73-3.1-4.02-3.1-6.77v-5.77c0-1.17.67-2.16 1.77-2.57l6.27-2.34zm1.38 1.4c-.28-.1-.57-.1-.86 0l-6.25 2.34c-.5.2-.8.63-.8 1.17l-.02 5.78c0 2.2 1.18 4.16 2.7 5.77 1.52 1.6 3.3 2.77 4.33 3.37.3.17.67.17.98 0 1.02-.6 2.8-1.77 4.32-3.37 1.5-1.6 2.7-3.58 2.7-5.76v-5.77c0-.54-.33-.97-.83-1.17l-6.25-2.34zm4.36 117.28c.3.27.3.75 0 1.05l-5.5 5.5c-.3.28-.78.28-1.07 0l-2.5-2.5c-.3-.3-.32-.77-.03-1.07.3-.3.76-.3 1.06-.02l.04.02 1.98 1.97 4.97-4.96c.28-.3.75-.3 1.06 0z"/>
    <path fill="#1d1e1f" stroke="#000" stroke-opacity="0" d="M155.34 971.37c.65-.24 1.26-.24 1.9 0l6.27 2.34c1.1.42 1.8 1.4 1.8 2.58v5.78c0 2.75-1.47 5.04-3.1 6.77-1.66 1.76-3.57 3-4.67 3.66-.8.45-1.7.45-2.48 0-1.1-.66-3-1.9-4.66-3.67-1.65-1.73-3.1-4.02-3.1-6.77v-5.78c0-1.17.67-2.16 1.77-2.57l6.27-2.33zm1.38 1.4c-.28-.1-.57-.1-.86 0l-6.25 2.34c-.5.2-.8.64-.8 1.18l-.02 5.78c0 2.2 1.18 4.15 2.7 5.76 1.52 1.6 3.3 2.77 4.33 3.37.3.16.67.16.98 0 1.02-.6 2.8-1.78 4.32-3.38 1.5-1.6 2.7-3.58 2.7-5.76v-5.78c0-.54-.33-.97-.83-1.17l-6.25-2.33z"/>
    <path fill="#ffec6e" stroke="#000" stroke-opacity="0" d="M532.54 848.44a2 2 0 0 1 2-2h44a2 2 0 0 1 2 2v44a2 2 0 0 1-2 2h-44a2 2 0 0 1-2-2zM482.52 958.2h-43.96c-1.35 0-2.02.66-2.02 2v43.97c0 1.35.67 2.02 2.02 2.02h43.96c1.35 0 2.02-.68 2.02-2.03V960.2c0-1.34-.67-2-2.02-2z"/>
    <path stroke="#000" stroke-opacity="0" d="M460.54 986.46c.43 0 .77.34.77.72v2.02c0 .38-.33.72-.76.72s-.77-.34-.77-.72v-2.02c0-.38.34-.72.77-.72z"/>
    <path stroke="#000" stroke-opacity="0" d="M454.54 980.27v-3.3c0-1.55.63-3.04 1.78-4.1 1.2-1.15 2.6-1.67 4.22-1.67 1.58 0 3.12.57 4.22 1.68 1.16 1.1 1.78 2.44 1.78 4.08v3.3c1.2.4 2.02 1.45 2.02 2.7v7.48c0 1.54-1.25 2.74-2.8 2.74h-10.45c-1.53 0-2.78-1.2-2.78-2.74v-7.48c0-1.25.82-2.3 2.02-2.7zm2.78-6.34c.92-.8 1.97-1.25 3.22-1.25 1.2 0 2.35.48 3.22 1.25.8.82 1.3 1.87 1.3 3.03v3.2h-9.03v-3.2c0-1.16.48-2.2 1.3-3.03zm8.45 7.78H455.3c-.7 0-1.24.54-1.24 1.26v7.48c0 .68.53 1.25 1.25 1.25h10.47c.72 0 1.25-.58 1.25-1.26v-7.48c0-.72-.53-1.25-1.25-1.25z"/>
    <path fill="#ffec6e" stroke="#000" stroke-opacity="0" d="M532.54 960.2a2 2 0 0 1 2-2h44a2 2 0 0 1 2 2v44a2 2 0 0 1-2 2h-44a2 2 0 0 1-2-2zm-50.02-113.76h-43.96c-1.35 0-2.02.67-2.02 2v43.98c0 1.35.67 2.02 2.02 2.02h43.96c1.35 0 2.02-.67 2.02-2.02v-43.97c0-1.34-.67-2-2.02-2z"/>
    <path stroke="#000" stroke-opacity="0" d="M460.54 874.7c.43 0 .77.35.77.73v2.02c0 .38-.33.72-.76.72s-.77-.34-.77-.72v-2.02c0-.38.34-.72.77-.72z"/>
    <path stroke="#000" stroke-opacity="0" d="M454.54 868.52v-3.3c0-1.55.63-3.04 1.78-4.1 1.2-1.15 2.6-1.67 4.22-1.67 1.58 0 3.12.57 4.22 1.68 1.16 1.1 1.78 2.44 1.78 4.08v3.32c1.2.38 2.02 1.44 2.02 2.7v7.47c0 1.53-1.25 2.73-2.8 2.73h-10.45c-1.53 0-2.78-1.2-2.78-2.74v-7.5c0-1.24.82-2.3 2.02-2.68zm2.78-6.34c.92-.8 1.97-1.25 3.22-1.25 1.2 0 2.35.48 3.22 1.25.8.82 1.3 1.87 1.3 3.03v3.22h-9.03v-3.2c0-1.17.48-2.22 1.3-3.04zm8.45 7.78H455.3c-.7 0-1.24.53-1.24 1.25v7.5c0 .67.53 1.24 1.25 1.24h10.47c.72 0 1.25-.57 1.25-1.25v-7.5c0-.7-.53-1.24-1.25-1.24z"/>
    <path fill="#fff" fill-opacity="0" d="M419.04 900.44a6 6 0 0 1 6-6h73a6 6 0 0 1 6 6v21.12a6 6 0 0 1-6 6h-73a6 6 0 0 1-6-6z"/>
    <use xlink:href="#r" transform="translate(441.397 910.549)"/>
    <use xlink:href="#s" transform="translate(437.152 923.882)"/>
    <use xlink:href="#t" transform="translate(479.786 923.882)"/>
    <path fill="#fff" fill-opacity="0" d="M419.04 1012.2a6 6 0 0 1 6-6h73a6 6 0 0 1 6 6v21.36a6 6 0 0 1-6 6h-73a6 6 0 0 1-6-6z"/>
    <use xlink:href="#r" transform="translate(441.397 1022.299)"/>
    <use xlink:href="#s" transform="translate(437.236 1035.632)"/>
    <use xlink:href="#u" transform="translate(479.869 1035.632)"/>
    <path fill="#fff" fill-opacity="0" d="M516.54 900.44a6 6 0 0 1 6-6h73a6 6 0 0 1 6 6v21.12a6 6 0 0 1-6 6h-73a6 6 0 0 1-6-6z"/>
    <use xlink:href="#v" transform="translate(534.052 910.549)"/>
    <use xlink:href="#w" transform="translate(539.469 923.882)"/>
    <use xlink:href="#t" transform="translate(572.469 923.882)"/>
    <path fill="#fff" fill-opacity="0" d="M516.54 1012.2a6 6 0 0 1 6-6h73a6 6 0 0 1 6 6v21.36a6 6 0 0 1-6 6h-73a6 6 0 0 1-6-6z"/>
    <use xlink:href="#v" transform="translate(534.052 1022.299)"/>
    <use xlink:href="#w" transform="translate(539.552 1035.632)"/>
    <use xlink:href="#u" transform="translate(572.552 1035.632)"/>
    <path fill="#ffec6e" stroke="#000" stroke-opacity="0" d="M530.52 726.44h-43.96c-1.35 0-2.02.67-2.02 2v43.98c0 1.35.67 2.02 2.02 2.02h43.96c1.35 0 2.02-.67 2.02-2.02v-43.97c0-1.34-.67-2-2-2z"/>
    <path stroke="#000" stroke-opacity="0" d="M497.74 742.33c-.34-.24-.8-.15-1.06.2-.24.32-.2.76.15 1l3.7 2.64-3.7 2.64c-.34.3-.38.73-.14 1.06.23.34.7.43 1.04.2l4.5-3.27.16-.15c.24-.34.2-.82-.15-1.06l-4.5-3.27zm8.55 3.12c-.45 0-.74.33-.74.72 0 .43.3.76.73.76h9.5c.42 0 .76-.33.76-.76 0-.4-.34-.72-.77-.72h-9.5zm-3.76 5.76c0-.43.34-.76.77-.76h12.5c.42 0 .76.33.76.77 0 .4-.34.73-.77.73h-12.5c-.42 0-.76-.34-.76-.72zm.77 4.23c-.42 0-.76.34-.76.77 0 .38.34.72.77.72h12.5c.42 0 .76-.34.76-.72 0-.43-.34-.77-.77-.77h-12.5z"/>
    <path fill="#fff" fill-opacity="0" d="M442.83 780.44a6 6 0 0 1 6-6h119.42a6 6 0 0 1 6 6v16a6 6 0 0 1-6 6H448.83a6 6 0 0 1-6-6z"/>
    <use xlink:href="#x" transform="translate(450.821 792.799)"/>
    <use xlink:href="#o" transform="translate(519.132 792.799)"/>
    <path fill="#1d1e1f" stroke="#000" stroke-opacity="0" d="M561.08 866.54c.3.28.3.76 0 1.06l-5.5 5.5c-.3.28-.78.28-1.07 0l-2.5-2.5c-.3-.3-.32-.77-.03-1.07.3-.3.76-.3 1.06-.02.02 0 .02.03.04.03l1.98 1.97 4.97-4.96c.28-.3.75-.3 1.06 0z"/>
    <path fill="#1d1e1f" stroke="#000" stroke-opacity="0" d="M555.34 859.62c.64-.24 1.26-.24 1.9 0l6.27 2.34c1.1.4 1.8 1.4 1.8 2.57v5.78c0 2.76-1.47 5.05-3.1 6.78-1.66 1.76-3.57 3-4.67 3.66-.8.46-1.7.46-2.48 0-1.1-.65-3-1.9-4.66-3.66-1.65-1.73-3.1-4.02-3.1-6.77v-5.77c0-1.17.68-2.16 1.77-2.57l6.27-2.34zm1.38 1.4c-.3-.1-.57-.1-.86 0l-6.25 2.34c-.5.2-.82.63-.82 1.17v5.78c0 2.2 1.18 4.16 2.7 5.77 1.52 1.6 3.3 2.77 4.32 3.37.3.17.67.17.98 0 1.02-.6 2.8-1.77 4.32-3.37 1.5-1.6 2.7-3.58 2.7-5.76v-5.77c0-.54-.33-.97-.83-1.17l-6.25-2.34zm4.36 117.28c.3.27.3.75 0 1.05l-5.5 5.5c-.3.28-.78.28-1.07 0l-2.5-2.5c-.3-.3-.32-.77-.03-1.07.3-.3.76-.3 1.06-.02l.04.02 1.98 1.97 4.97-4.96c.28-.3.75-.3 1.06 0z"/>
    <path fill="#1d1e1f" stroke="#000" stroke-opacity="0" d="M555.34 971.37c.64-.24 1.26-.24 1.9 0l6.27 2.34c1.1.42 1.8 1.4 1.8 2.58v5.78c0 2.75-1.47 5.04-3.1 6.77-1.66 1.76-3.57 3-4.67 3.66-.8.45-1.7.45-2.48 0-1.1-.66-3-1.9-4.66-3.67-1.65-1.73-3.1-4.02-3.1-6.77v-5.78c0-1.17.68-2.16 1.77-2.57l6.27-2.33zm1.38 1.4c-.3-.1-.57-.1-.86 0l-6.25 2.34c-.5.2-.82.64-.82 1.18v5.78c0 2.2 1.18 4.15 2.7 5.76 1.52 1.6 3.3 2.77 4.32 3.37.3.16.67.16.98 0 1.02-.6 2.8-1.78 4.32-3.38 1.5-1.6 2.7-3.58 2.7-5.76v-5.78c0-.54-.33-.97-.83-1.17l-6.25-2.33z"/>
    <path fill="#ffec6e" stroke="#000" stroke-opacity="0" d="M158.02 562.44h-43.97c-1.34 0-2.02.67-2.02 2v43.98c0 1.35.68 2.02 2.02 2.02h43.97c1.34 0 2-.67 2-2.02v-43.96c0-1.35-.66-2.02-2-2.02z"/>
    <path stroke="#000" stroke-opacity="0" d="M125.23 578.33c-.33-.24-.8-.15-1.05.2-.24.33-.2.76.14 1l3.7 2.64-3.7 2.64c-.33.3-.38.73-.14 1.06.24.34.72.43 1.05.2l4.52-3.27c.04-.06.1-.1.14-.15.23-.34.18-.82-.15-1.06l-4.52-3.27zm8.55 3.12c-.43 0-.72.33-.72.72 0 .43.3.76.72.76h9.5c.44 0 .77-.33.77-.76 0-.4-.34-.72-.77-.72h-9.5zm-3.75 5.76c0-.43.34-.76.77-.76h12.48c.44 0 .77.33.77.77 0 .4-.34.73-.77.73H130.8c-.43 0-.77-.34-.77-.72zm.77 4.23c-.43 0-.77.34-.77.77 0 .38.34.72.77.72h12.48c.44 0 .77-.34.77-.72 0-.43-.34-.77-.77-.77H130.8z"/>
    <path fill="#fff" fill-opacity="0" d="M78.2 616.44a6 6 0 0 1 6-6h99.2a6 6 0 0 1 6 6v16a6 6 0 0 1-6 6H84.2a6 6 0 0 1-6-6z"/>
    <use xlink:href="#n" transform="translate(87.531 628.8)"/>
    <use xlink:href="#o" transform="translate(133.131 628.8)"/>
    <defs>
      <path id="y" fill="#3a414a" d="M145 0 20-1l268-699h112L668 0H543l-66-172H210zm95-272h207L344-563"/>
      <path id="z" fill="#3a414a" d="M75 1v-701l300-1c123 0 205 93 205 214 0 120-84 210-211 210H183V1H75zm108-373h164c69 0 124-39 124-116 0-78-55-118-124-118H183v234"/>
      <path id="A" fill="#3a414a" d="m72 200 440-950h104L177 200H72"/>
      <path id="B" fill="#3a414a" d="M75 0v-700h459v107H182v187h331v103H182v196h352V0H75"/>
      <path id="C" fill="#3a414a" d="M495 0 180-535V0H75v-700h135l325 552v-552h105V1"/>
      <path id="D" fill="#3a414a" d="M272 0 10-700h113l201 552 201-552h112L375 0H272"/>
      <path id="E" fill="#3a414a" d="M75 0v-700h136l219 547 213-547h131V0H668v-500L475 0h-93L186-500V0H75"/>
      <path id="F" fill="#3a414a" d="M322 7C183 7 46-66 35-216h124c17 74 72 119 163 119 87 0 134-55 134-105 0-53-33-88-128-98C123-322 54-407 54-501c0-113 105-205 250-205 158 0 256 84 262 222H448c-5-73-69-114-145-114-82 0-124 49-124 93 0 55 56 88 142 98 201 23 260 105 260 206C581-73 472 7 322 7"/>
      <path id="G" fill="#3a414a" d="M367 5C185 5 39-144 40-347c1-206 138-360 334-360 174 0 284 112 305 254H553c-14-75-81-145-184-145-127 0-206 114-206 252 0 135 79 243 202 243 108 0 174-77 188-148h126C656-113 547 5 367 5"/>
      <path id="H" fill="#3a414a" d="M75 2v-702l251-2c189-2 333 143 333 347C659-148 519-1 336 0zm104-106 143-2c126-2 226-99 226-245 0-147-98-244-222-242l-147 2v487"/>
      <path id="I" fill="#3a414a" d="m242 0 1-597H1L0-700h590l1 103-241-1-1 598H242"/>
      <path id="J" fill="#3a414a" d="M75 1v-701l302-1c123 0 205 85 205 193 0 92-53 155-106 173 62 20 87 75 94 161 8 97 3 130 27 174H473c-15-36-14-74-19-149-7-98-21-147-144-147H185V1H75zm110-392c129-5 288 32 288-107 1-141-158-103-288-108v215"/>
      <path id="K" fill="#3a414a" d="M372 10C188 10 40-139 40-350c0-210 148-358 332-358s332 149 332 360c0 210-148 358-332 358zm-1-107c128 0 218-105 218-248 0-148-90-258-217-258-126 0-215 109-215 256 0 144 89 250 214 250"/>
      <path id="L" fill="#3a414a" d="M80 0v-700h115V0H80"/>
      <path id="M" fill="#3a414a" d="M349 8C177 8 65-101 65-273v-427h110v427c0 115 69 178 174 178 103 0 174-63 174-178v-427h110v427C633-101 521 8 349 8"/>
      <path id="P" fill="#3a414a" d="M75 2v-702h289c113 0 202 65 202 181 0 69-43 118-89 140 69 26 122 100 121 184C596-74 517 2 392 2H75zm107-413h181c48 0 88-40 88-92 0-54-31-98-93-98H182v190zm2 307h187c61 0 104-39 104-103 0-60-43-106-104-106H184v209"/>
      <path id="N" fill="#3a414a" d="M75 0v-700h116v590h310V0H75"/>
      <path id="O" fill="#3a414a" d="M75 0v-700h117v292h329v-292h117V0H521v-312H192V0H75"/>
      <path id="Q" fill="#3a414a" d="M506 0H60v-92h168v-490L60-462v-103l183-135h88v608h175V0"/>
      <path id="R" fill="#3a414a" d="M34 0v-107l159-137c127-109 204-162 204-244 0-72-49-119-123-119-72 0-124 50-133 127H26c6-137 106-229 249-229 134 0 233 92 233 216S407-297 291-194l-104 92h326V0H34"/>
      <g id="a">
        <use xlink:href="#y" transform="scale(.01333)"/>
        <use xlink:href="#z" transform="translate(9.173) scale(.01333)"/>
        <use xlink:href="#z" transform="translate(17.173) scale(.01333)"/>
        <use xlink:href="#A" transform="translate(25.173) scale(.01333)"/>
        <use xlink:href="#B" transform="translate(32.853) scale(.01333)"/>
        <use xlink:href="#C" transform="translate(40.373) scale(.01333)"/>
        <use xlink:href="#D" transform="translate(49.907) scale(.01333)"/>
      </g>
      <g id="b">
        <use xlink:href="#C" transform="scale(.01333)"/>
        <use xlink:href="#y" transform="translate(9.533) scale(.01333)"/>
        <use xlink:href="#E" transform="translate(18.707) scale(.01333)"/>
        <use xlink:href="#B" transform="translate(30.027) scale(.01333)"/>
        <use xlink:href="#F" transform="translate(37.413) scale(.01333)"/>
        <use xlink:href="#z" transform="translate(45.627) scale(.01333)"/>
        <use xlink:href="#y" transform="translate(52.293) scale(.01333)"/>
        <use xlink:href="#G" transform="translate(61.467) scale(.01333)"/>
        <use xlink:href="#B" transform="translate(70.987) scale(.01333)"/>
        <use xlink:href="#F" transform="translate(78.373) scale(.01333)"/>
      </g>
      <g id="c">
        <use xlink:href="#H" transform="scale(.01333)"/>
        <use xlink:href="#B" transform="translate(9.32) scale(.01333)"/>
        <use xlink:href="#D" transform="translate(16.84) scale(.01333)"/>
      </g>
      <g id="d">
        <use xlink:href="#I" transform="scale(.01333)"/>
        <use xlink:href="#B" transform="translate(7.88) scale(.01333)"/>
        <use xlink:href="#F" transform="translate(15.267) scale(.01333)"/>
        <use xlink:href="#I" transform="translate(23.347) scale(.01333)"/>
      </g>
      <g id="e">
        <use xlink:href="#z" transform="scale(.01333)"/>
        <use xlink:href="#J" transform="translate(8) scale(.01333)"/>
        <use xlink:href="#K" transform="translate(16.227) scale(.01333)"/>
        <use xlink:href="#H" transform="translate(26.147) scale(.01333)"/>
      </g>
      <g id="f">
        <use xlink:href="#I" transform="scale(.01333)"/>
        <use xlink:href="#B" transform="translate(7.88) scale(.01333)"/>
        <use xlink:href="#C" transform="translate(15.4) scale(.01333)"/>
        <use xlink:href="#y" transform="translate(24.933) scale(.01333)"/>
        <use xlink:href="#C" transform="translate(34.107) scale(.01333)"/>
        <use xlink:href="#I" transform="translate(43.64) scale(.01333)"/>
      </g>
      <g id="h">
        <use xlink:href="#C" transform="scale(.01333)"/>
        <use xlink:href="#y" transform="translate(9.533) scale(.01333)"/>
        <use xlink:href="#E" transform="translate(18.707) scale(.01333)"/>
        <use xlink:href="#B" transform="translate(30.027) scale(.01333)"/>
        <use xlink:href="#F" transform="translate(37.413) scale(.01333)"/>
        <use xlink:href="#z" transform="translate(45.627) scale(.01333)"/>
        <use xlink:href="#y" transform="translate(52.293) scale(.01333)"/>
        <use xlink:href="#G" transform="translate(61.467) scale(.01333)"/>
        <use xlink:href="#B" transform="translate(70.987) scale(.01333)"/>
      </g>
      <g id="i">
        <use xlink:href="#F" transform="scale(.01333)"/>
        <use xlink:href="#L" transform="translate(8.213) scale(.01333)"/>
        <use xlink:href="#I" transform="translate(11.88) scale(.01333)"/>
      </g>
      <g id="j">
        <use xlink:href="#M" transform="scale(.01333)"/>
        <use xlink:href="#y" transform="translate(9.04) scale(.01333)"/>
        <use xlink:href="#I" transform="translate(18.213) scale(.01333)"/>
      </g>
      <g id="l">
        <use xlink:href="#J" transform="scale(.01333)"/>
        <use xlink:href="#K" transform="translate(8.227) scale(.01333)"/>
        <use xlink:href="#K" transform="translate(18.147) scale(.01333)"/>
        <use xlink:href="#I" transform="translate(27.533) scale(.01333)"/>
      </g>
      <g id="m">
        <use xlink:href="#C" transform="scale(.01333)"/>
        <use xlink:href="#y" transform="translate(9.533) scale(.01333)"/>
        <use xlink:href="#E" transform="translate(18.707) scale(.01333)"/>
        <use xlink:href="#B" transform="translate(30.027) scale(.01333)"/>
        <use xlink:href="#F" transform="translate(37.413) scale(.01333)"/>
        <use xlink:href="#z" transform="translate(45.627) scale(.01333)"/>
        <use xlink:href="#y" transform="translate(52.293) scale(.01333)"/>
        <use xlink:href="#G" transform="translate(61.467) scale(.01333)"/>
        <use xlink:href="#B" transform="translate(70.987) scale(.01333)"/>
      </g>
      <g id="n">
        <use xlink:href="#I" transform="scale(.01111)"/>
        <use xlink:href="#B" transform="translate(6.567) scale(.01111)"/>
        <use xlink:href="#C" transform="translate(12.833) scale(.01111)"/>
        <use xlink:href="#y" transform="translate(20.778) scale(.01111)"/>
        <use xlink:href="#C" transform="translate(28.422) scale(.01111)"/>
        <use xlink:href="#I" transform="translate(36.367) scale(.01111)"/>
      </g>
      <g id="o">
        <use xlink:href="#z" transform="scale(.01111)"/>
        <use xlink:href="#K" transform="translate(6.667) scale(.01111)"/>
        <use xlink:href="#N" transform="translate(14.933) scale(.01111)"/>
        <use xlink:href="#L" transform="translate(20.667) scale(.01111)"/>
        <use xlink:href="#G" transform="translate(23.722) scale(.01111)"/>
        <use xlink:href="#L" transform="translate(31.656) scale(.01111)"/>
        <use xlink:href="#B" transform="translate(34.711) scale(.01111)"/>
        <use xlink:href="#F" transform="translate(40.867) scale(.01111)"/>
      </g>
      <g id="p">
        <use xlink:href="#O" transform="scale(.01111)"/>
        <use xlink:href="#M" transform="translate(7.922) scale(.01111)"/>
        <use xlink:href="#E" transform="translate(15.678) scale(.01111)"/>
        <use xlink:href="#y" transform="translate(25.111) scale(.01111)"/>
        <use xlink:href="#C" transform="translate(32.756) scale(.01111)"/>
      </g>
      <g id="q">
        <use xlink:href="#y" transform="scale(.01111)"/>
        <use xlink:href="#M" transform="translate(7.644) scale(.01111)"/>
        <use xlink:href="#I" transform="translate(15.4) scale(.01111)"/>
        <use xlink:href="#O" transform="translate(21.967) scale(.01111)"/>
      </g>
      <g id="r">
        <use xlink:href="#F" transform="scale(.01111)"/>
        <use xlink:href="#B" transform="translate(6.844) scale(.01111)"/>
        <use xlink:href="#G" transform="translate(12.778) scale(.01111)"/>
        <use xlink:href="#J" transform="translate(20.711) scale(.01111)"/>
        <use xlink:href="#B" transform="translate(27.9) scale(.01111)"/>
        <use xlink:href="#I" transform="translate(34.167) scale(.01111)"/>
      </g>
      <g id="s">
        <use xlink:href="#E" transform="scale(.01111)"/>
        <use xlink:href="#K" transform="translate(9.433) scale(.01111)"/>
        <use xlink:href="#M" transform="translate(17.7) scale(.01111)"/>
        <use xlink:href="#C" transform="translate(25.456) scale(.01111)"/>
        <use xlink:href="#I" transform="translate(33.4) scale(.01111)"/>
      </g>
      <g id="v">
        <use xlink:href="#E" transform="scale(.01111)"/>
        <use xlink:href="#y" transform="translate(9.433) scale(.01111)"/>
        <use xlink:href="#G" transform="translate(17.078) scale(.01111)"/>
        <use xlink:href="#O" transform="translate(25.011) scale(.01111)"/>
        <use xlink:href="#L" transform="translate(32.933) scale(.01111)"/>
        <use xlink:href="#C" transform="translate(35.989) scale(.01111)"/>
        <use xlink:href="#B" transform="translate(43.933) scale(.01111)"/>
      </g>
      <g id="w">
        <use xlink:href="#y" transform="scale(.01111)"/>
        <use xlink:href="#M" transform="translate(7.644) scale(.01111)"/>
        <use xlink:href="#I" transform="translate(15.4) scale(.01111)"/>
        <use xlink:href="#O" transform="translate(21.967) scale(.01111)"/>
      </g>
      <g id="x">
        <use xlink:href="#C" transform="scale(.01111)"/>
        <use xlink:href="#y" transform="translate(7.944) scale(.01111)"/>
        <use xlink:href="#E" transform="translate(15.589) scale(.01111)"/>
        <use xlink:href="#B" transform="translate(25.022) scale(.01111)"/>
        <use xlink:href="#F" transform="translate(31.178) scale(.01111)"/>
        <use xlink:href="#z" transform="translate(38.022) scale(.01111)"/>
        <use xlink:href="#y" transform="translate(43.578) scale(.01111)"/>
        <use xlink:href="#G" transform="translate(51.222) scale(.01111)"/>
        <use xlink:href="#B" transform="translate(59.156) scale(.01111)"/>
      </g>
      <use xlink:href="#y" id="g" transform="scale(.01333)"/>
      <use xlink:href="#P" id="k" transform="scale(.01333)"/>
      <use xlink:href="#Q" id="t" transform="scale(.01111)"/>
      <use xlink:href="#R" id="u" transform="scale(.01111)"/>
    </defs>
  </g>
</svg>
