<svg xmlns="http://www.w3.org/2000/svg" xmlns:lucid="lucid" xmlns:xlink="http://www.w3.org/1999/xlink" width="973.14" height="975.08">
  <g lucid:page-tab-id="0_0" transform="translate(640.464 -898)">
    <path fill="#fff" d="M-768 0H800v2768H-768z"/>
    <path fill="#fff" d="M-639.46 913.95a2 2 0 0 1 2-2h967.14a2 2 0 0 1 2 2v956.13a2 2 0 0 1-2 2h-967.14a2 2 0 0 1-2-2z"/>
    <path fill="none" stroke="#000" stroke-width="2" d="M-627.5 911.95h3.97m7.96 0h3.98m7.97 0h3.98m7.96 0h4m7.95 0h3.98m7.96 0h3.97m7.96 0h3.98m7.97 0h3.98m7.96 0h4m7.95 0h3.98m7.96 0h3.97m7.96 0h3.98m7.97 0h3.98m7.96 0h4m7.95 0h3.98m7.96 0h3.97m7.96 0h3.98m7.97 0h3.98m7.96 0h4m7.95 0h3.98m7.96 0h3.97m7.96 0h3.98m7.97 0h3.98m7.96 0h4m7.95 0h3.98m7.96 0h3.97m7.96 0h3.98m7.97 0h3.98m7.96 0h4m7.95 0h3.98m7.96 0h3.97m7.96 0h3.98m7.97 0h3.98m7.96 0h4m7.95 0h3.98m7.96 0h3.97m7.96 0h3.98m7.97 0h3.98m7.96 0h4m7.95 0h3.98m7.96 0h3.97m7.96 0h3.98m7.97 0h3.98m7.96 0h4m7.95 0h3.98m7.96 0h3.97m7.96 0h3.98m7.97 0h3.98m7.96 0h4m7.95 0h3.98m7.95 0h3.98m7.96 0h3.98m7.96 0h3.98m7.96 0h4m7.95 0h3.98m7.95 0h3.98m7.97 0h3.97m7.96 0h3.98m7.96 0h3.98m7.96 0h3.98m7.97 0h3.96m7.97 0h3.98m7.97 0h3.98m7.95 0h3.98m7.97 0h3.97m7.97 0h3.97m7.96 0h3.97m7.97 0h3.97m7.97 0h3.98m7.97 0h3.97m7.97 0h3.96m7.97 0h3.98m7.97 0h3.98m7.95 0h4m7.95 0h3.97m7.97 0h3.96m7.97 0H284m7.97 0h3.98m7.95 0h4m7.94 0h4m7.94 0h2l.3.02.3.08.3.12.27.16.24.2.2.24.16.27.12.3.07.3.03.3v2m0 7.97v4m0 7.96v4m0 7.95v4m0 7.96v4m0 7.96v3.98m0 7.97v3.98m0 7.97v3.98m0 7.97v3.98m0 7.97v4m0 7.95v4m0 7.96v3.98m0 7.98v3.98m0 7.97v3.98m0 7.98v3.98m0 7.97v4m0 7.95v4m0 7.95v4m0 7.96v3.97m0 7.97v3.98m0 7.97v3.97m0 7.97v4m0 7.95v3.98m0 7.96v4m0 7.96v3.98m0 7.97v3.98m0 7.97v3.98m0 7.97v3.98m0 7.97v4m0 7.96v3.98m0 7.97v4m0 7.96v3.98m0 7.97v4m0 7.96v4m0 7.95v4m0 7.96v4m0 7.96v3.98m0 7.97v3.98m0 7.97v3.98m0 7.97v4m0 7.95v4m0 7.95v4m0 7.96v3.98m0 7.98v3.98m0 7.97v3.98m0 7.98v3.98m0 7.97v4m0 7.95v4m0 7.95v4m0 7.96v3.97m0 7.97v3.98m0 7.97v3.97m0 7.97v4m0 7.95v3.98m0 7.96v4m0 7.96v3.98m0 7.97v3.98m0 7.97v3.98m0 7.97v3.98m0 7.97v4m0 7.96v3.98m0 7.97v4m0 7.96v3.98m0 7.97v4m0 7.96v4m0 7.95v4m0 7.96v4m0 7.96v3.98m0 7.97v3.98m0 7.97v3.98m0 7.97v4m0 7.95v4m0 7.95v4m0 7.95v4m0 7.96v3.98m0 7.97v3.98m0 7.98v3.98m0 7.97v4m0 7.95v4m0 7.95v4m0 7.96v1.98l-.03.3-.07.32-.12.3-.17.25-.2.24-.25.2-.27.16-.3.12-.3.07-.3.03h-2m-7.95 0h-4m-7.94 0h-4m-7.95 0h-4m-7.95 0H280m-7.97 0H268m-7.98 0h-3.97m-7.97 0h-3.98m-7.95 0h-4m-7.94 0h-3.97m-7.97 0h-3.97m-7.98 0h-3.97m-7.97 0h-3.97m-7.96 0h-3.97m-7.97 0h-3.97m-7.97 0h-3.97m-7.97 0h-3.98m-7.97 0h-3.98m-7.95 0h-3.98m-7.96 0h-3.97m-7.97 0H88.9m-7.98 0h-3.98m-7.95 0h-4m-7.95 0h-3.98m-7.97 0h-3.98m-7.95 0h-4m-7.95 0h-3.97m-7.96 0h-4m-7.95 0h-3.98m-7.97 0h-3.97m-7.96 0h-3.98m-7.98 0h-3.97m-7.96 0h-4m-7.95 0h-3.98m-7.96 0h-3.97m-7.96 0h-3.98m-7.97 0h-3.98m-7.96 0h-4m-7.95 0h-3.98m-7.96 0h-3.97m-7.96 0h-3.98m-7.97 0h-3.98m-7.96 0h-4m-7.95 0h-3.98m-7.96 0h-3.97m-7.96 0h-3.98m-7.97 0h-3.98m-7.96 0h-4m-7.95 0h-3.98m-7.96 0h-3.97m-7.96 0h-3.98m-7.97 0h-3.98m-7.96 0h-4m-7.95 0h-3.98m-7.96 0h-3.97m-7.96 0h-3.9m-7.97 0h-3.98m-7.96 0h-4m-7.95 0h-3.98m-7.96 0h-3.97m-7.96 0h-3.98m-7.97 0h-3.98m-7.96 0h-4m-7.95 0h-3.98m-7.96 0h-3.97m-7.96 0h-3.98m-7.97 0h-3.98m-7.96 0h-4m-7.95 0h-3.98m-7.96 0h-3.97m-7.96 0h-3.98m-7.97 0h-3.98m-7.96 0h-4m-7.95 0h-3.98m-7.96 0h-3.97m-7.96 0h-3.98m-7.97 0h-3.98m-7.96 0h-4m-7.95 0h-3.98m-7.96 0h-3.97m-7.96 0h-3.98m-7.97 0h-2l-.3-.03-.3-.07-.3-.12-.27-.16-.24-.2-.2-.25-.17-.26-.12-.3-.07-.3-.02-.32v-2m0-7.96v-3.98m0-7.97v-4m0-7.95v-4m0-7.96v-3.98m0-7.97v-3.97m0-7.97v-3.98m0-7.97v-3.98m0-7.96v-4m0-7.95v-3.98m0-7.96v-4m0-7.96v-3.98m0-7.97v-3.98m0-7.97v-3.98m0-7.97v-4m0-7.95v-4m0-7.95v-4m0-7.96v-4m0-7.96v-3.98m0-7.97v-4m0-7.96v-3.98m0-7.97v-4m0-7.96v-4m0-7.96v-3.98m0-7.97v-3.98m0-7.97v-3.98m0-7.97v-3.98m0-7.97v-4m0-7.95v-4m0-7.96v-3.98m0-7.98v-3.98m0-7.97v-3.98m0-7.98v-3.98m0-7.97v-4m0-7.95v-4m0-7.96v-3.98m0-7.97v-3.97m0-7.97v-3.98m0-7.97v-3.97m0-7.97v-4m0-7.95v-3.98m0-7.96v-4m0-7.96v-3.98m0-7.97v-3.98m0-7.97v-3.98m0-7.97v-4m0-7.95v-4m0-7.95v-4m0-7.96v-4m0-7.96v-3.98m0-7.97v-4m0-7.96v-3.98m0-7.97v-4m0-7.96v-4m0-7.96v-3.98m0-7.97v-3.98m0-7.97v-3.98m0-7.97v-3.98m0-7.97v-4m0-7.95v-4m0-7.96V1151m0-7.98v-3.98m0-7.97v-3.98m0-7.98v-3.98m0-7.97v-4m0-7.95v-4m0-7.96v-3.98m0-7.97v-3.97m0-7.97v-3.98m0-7.97v-3.97m0-7.97v-4m0-7.95v-3.98m0-7.97v-3.98m0-7.97v-3.98m0-7.97v-3.98m0-7.97v-3.98m0-7.97v-4m0-7.95v-4m0-7.95v-4m0-7.96v-4m0-7.96v-2l.02-.3.07-.3.12-.3.17-.27.2-.23.24-.2.27-.17.3-.12.3-.08.3-.02h2"/>
    <path fill="#fff" stroke="#6f7681" stroke-width="2" d="M-591.96 961.45a2 2 0 0 1 2-2H283.1a2 2 0 0 1 2 2v861.13a2 2 0 0 1-2 2h-873.06a2 2 0 0 1-2-2z"/>
    <path fill="#fff" stroke="#979ea8" stroke-width="2" d="M-545.4 1125.95a2 2 0 0 1 2-2h379a2 2 0 0 1 2 2v649.13a2 2 0 0 1-2 2h-379a2 2 0 0 1-2-2z"/>
    <path fill="#fff" stroke="#f2f3f5" stroke-width="2" d="M-449.4 1340.33a2 2 0 0 1 2-2h235.5a2 2 0 0 1 2 2v387.25a2 2 0 0 1-2 2h-235.5a2 2 0 0 1-2-2z"/>
    <path fill="#fff" stroke="#dfe3e8" stroke-width="2" d="M-473.4 1316.33a2 2 0 0 1 2-2h236a2 2 0 0 1 2 2v387.25a2 2 0 0 1-2 2h-236a2 2 0 0 1-2-2z"/>
    <path fill="#fff" stroke="#ced4db" stroke-width="2" d="M-497.4 1293.33a2 2 0 0 1 2-2h236a2 2 0 0 1 2 2v386.25a2 2 0 0 1-2 2h-236a2 2 0 0 1-2-2z"/>
    <path fill="#fff" stroke="#000" stroke-opacity="0" stroke-width="2" d="M-489.4 1279.33a2 2 0 0 1 2-2h156a2 2 0 0 1 2 2v17a2 2 0 0 1-2 2h-156a2 2 0 0 1-2-2z"/>
    <use xlink:href="#a" transform="translate(-483.688 1295.662)"/>
    <use xlink:href="#b" transform="translate(-421.688 1295.662)"/>
    <path fill="#fff" stroke="#000" stroke-opacity="0" stroke-width="2" d="M-299.4 1669.33a2 2 0 0 1 2-2h28a2 2 0 0 1 2 2v17a2 2 0 0 1-2 2h-28a2 2 0 0 1-2-2z"/>
    <use xlink:href="#c" transform="translate(-296.128 1685.662)"/>
    <path fill="#fff" stroke="#000" stroke-opacity="0" stroke-width="2" d="M-283.4 1694.33a2 2 0 0 1 2-2h36a2 2 0 0 1 2 2v17a2 2 0 0 1-2 2h-36a2 2 0 0 1-2-2z"/>
    <use xlink:href="#d" transform="translate(-279.008 1710.662)"/>
    <path fill="#fff" stroke="#000" stroke-opacity="0" stroke-width="2" d="M-259.4 1718.08a2 2 0 0 1 2-2h36a2 2 0 0 1 2 2v17a2 2 0 0 1-2 2h-36a2 2 0 0 1-2-2z"/>
    <use xlink:href="#e" transform="translate(-257.128 1734.415)"/>
    <path fill="#fff" stroke="#000" stroke-opacity="0" stroke-width="2" d="M-537.4 1111.45a2 2 0 0 1 2-2h156a2 2 0 0 1 2 2v17a2 2 0 0 1-2 2h-156a2 2 0 0 1-2-2z"/>
    <use xlink:href="#f" transform="translate(-530.461 1127.787)"/>
    <use xlink:href="#g" transform="translate(-475.741 1127.787)"/>
    <use xlink:href="#h" transform="translate(-462.834 1127.787)"/>
    <path fill="#fff" stroke="#979ea8" stroke-width="2" d="M-145.4 1125.95a2 2 0 0 1 2-2h379a2 2 0 0 1 2 2v649.13a2 2 0 0 1-2 2h-379a2 2 0 0 1-2-2z"/>
    <path fill="#fff" stroke="#f2f3f5" stroke-width="2" d="M-49.4 1340.33a2 2 0 0 1 2-2h235.5a2 2 0 0 1 2 2v387.25a2 2 0 0 1-2 2H-47.4a2 2 0 0 1-2-2z"/>
    <path fill="#fff" stroke="#dfe3e8" stroke-width="2" d="M-73.4 1316.33a2 2 0 0 1 2-2h236a2 2 0 0 1 2 2v387.25a2 2 0 0 1-2 2h-236a2 2 0 0 1-2-2z"/>
    <path fill="#fff" stroke="#ced4db" stroke-width="2" d="M-97.4 1293.33a2 2 0 0 1 2-2h236a2 2 0 0 1 2 2v386.25a2 2 0 0 1-2 2h-236a2 2 0 0 1-2-2z"/>
    <path fill="#fff" stroke="#000" stroke-opacity="0" stroke-width="2" d="M-89.4 1279.33a2 2 0 0 1 2-2h156a2 2 0 0 1 2 2v17a2 2 0 0 1-2 2h-156a2 2 0 0 1-2-2z"/>
    <use xlink:href="#a" transform="translate(-83.688 1295.662)"/>
    <use xlink:href="#b" transform="translate(-21.688 1295.662)"/>
    <path fill="#fff" stroke="#000" stroke-opacity="0" stroke-width="2" d="M100.6 1669.33a2 2 0 0 1 2-2h28a2 2 0 0 1 2 2v17a2 2 0 0 1-2 2h-28a2 2 0 0 1-2-2z"/>
    <use xlink:href="#c" transform="translate(103.872 1685.662)"/>
    <path fill="#fff" stroke="#000" stroke-opacity="0" stroke-width="2" d="M125.2 1693.33a2 2 0 0 1 2-2H154a2 2 0 0 1 2 2v17a2 2 0 0 1-2 2h-26.8a2 2 0 0 1-2-2z"/>
    <use xlink:href="#i" transform="translate(130.831 1709.662)"/>
    <path fill="#fff" stroke="#000" stroke-opacity="0" stroke-width="2" d="M143.6 1717.55a2 2 0 0 1 2-2H176a2 2 0 0 1 2 2v17a2 2 0 0 1-2 2h-30.4a2 2 0 0 1-2-2z"/>
    <use xlink:href="#j" transform="translate(148.059 1733.886)"/>
    <path fill="#fff" stroke="#000" stroke-opacity="0" stroke-width="2" d="M-137.4 1111.45a2 2 0 0 1 2-2h156a2 2 0 0 1 2 2v17a2 2 0 0 1-2 2h-156a2 2 0 0 1-2-2z"/>
    <use xlink:href="#f" transform="translate(-129.894 1127.787)"/>
    <use xlink:href="#k" transform="translate(-75.174 1127.787)"/>
    <use xlink:href="#h" transform="translate(-63.401 1127.787)"/>
    <path fill="#fff" stroke="#000" stroke-opacity="0" stroke-width="2" d="M-583.68 946.45a2 2 0 0 1 2-2h208.54a2 2 0 0 1 2 2v17a2 2 0 0 1-2 2h-208.54a2 2 0 0 1-2-2z"/>
    <use xlink:href="#l" transform="translate(-576.392 962.787)"/>
    <use xlink:href="#m" transform="translate(-546.165 962.787)"/>
    <use xlink:href="#n" transform="translate(-503.232 962.787)"/>
    <use xlink:href="#h" transform="translate(-456.485 962.787)"/>
    <path fill="#ffec6e" stroke="#000" stroke-opacity="0" d="M-63.63 1006.45h-43.97c-1.34 0-2.02.68-2.02 2.02v43.97c0 1.34.68 2 2.02 2h43.97c1.34 0 2-.66 2-2v-43.97c0-1.34-.66-2.02-2-2.02z"/>
    <path stroke="#000" stroke-opacity="0" d="M-96.42 1022.34c-.33-.24-.8-.14-1.05.2-.24.33-.2.76.14 1l3.7 2.64-3.7 2.64c-.33.3-.38.72-.14 1.06.24.33.72.43 1.05.2l4.52-3.27.14-.14c.24-.33.2-.8-.14-1.05l-4.52-3.26zm8.55 3.12a.71.71 0 0 0-.72.72c0 .43.3.77.73.77h9.5c.43 0 .77-.34.77-.77 0-.38-.34-.72-.77-.72h-9.5zm-3.75 5.76c0-.43.34-.77.77-.77h12.48c.43 0 .77.34.77.77 0 .4-.34.72-.77.72h-12.48c-.43 0-.77-.33-.77-.72zm.77 4.23c-.43 0-.77.33-.77.76 0 .4.34.73.77.73h12.48c.43 0 .77-.33.77-.72 0-.42-.34-.75-.77-.75h-12.48z"/>
    <path fill="#fff" fill-opacity="0" d="M-141.58 1060.95a6 6 0 0 1 6-6h95.8a6 6 0 0 1 6 6v9.5a6 6 0 0 1-6 6h-95.8a6 6 0 0 1-6-6z"/>
    <use xlink:href="#o" transform="translate(-134.237 1071.06)"/>
    <use xlink:href="#p" transform="translate(-88.637 1071.06)"/>
    <path fill="#fff" fill-opacity="0" d="M-268.82 1060.95a6 6 0 0 1 6-6h75.86a6 6 0 0 1 6 6v9a6 6 0 0 1-6 6h-75.86a6 6 0 0 1-6-6z"/>
    <use xlink:href="#q" transform="translate(-261.675 1071.06)"/>
    <use xlink:href="#r" transform="translate(-217.864 1071.06)"/>
    <path fill="#ffec6e" stroke="#000" stroke-opacity="0" d="M-248.9 1008.95a2 2 0 0 1 2-2h44a2 2 0 0 1 2 2v44a2 2 0 0 1-2 2h-44a2 2 0 0 1-2-2z"/>
    <path fill="#1d1e1f" stroke="#000" stroke-opacity="0" d="M-222.03 1020.22c-3.78-.86-7.57.48-10 3.17-.28.3-.24.78.07 1.06.3.27.77.25 1.05-.06 2.2-2.47 5.3-3.45 8.54-2.73 1.86.44 3.35 1.3 4.62 2.73.28.3.74.33 1.05.06.3-.28.36-.74.07-1.07-1.48-1.68-3.2-2.7-5.4-3.18zm-10.06 5.85c.2-.35.07-.8-.3-1a.72.72 0 0 0-1 .3c-.48.88-.8 1.67-1 2.63-.47 2.05-.9 3.08-1.34 3.85-.2.38-.07.82.3 1.04.35.18.8.05 1-.32.53-.93 1-2.1 1.5-4.25.17-.8.48-1.56.85-2.26zm16.85-.7c-.2-.38-.63-.5-1-.3-.38.2-.5.65-.3 1 1.06 1.98 1.35 4 .84 6.2-.38 1.7-.84 3.25-1.4 4.75-.12.4.08.8.47.94.38.16.8-.04.97-.4.57-1.6 1.03-3.22 1.42-4.96.6-2.57.26-4.93-1-7.23zm-7.98.17c-2.6-.6-5.2 1.03-5.8 3.65-.24 1.05-.48 1.93-.83 2.94-.13.4.1.8.48.94.37.16.8-.06.94-.46.37-1.05.64-1.98.88-3.1.4-1.8 2.18-2.92 4-2.5 1.16.26 2 1 2.4 2.13.16.4.57.6.97.46.4-.12.6-.56.47-.94-.57-1.62-1.82-2.75-3.5-3.12zm3.65 5.8c.1-.4-.15-.8-.57-.9-.4-.08-.78.18-.9.58-.7 3.07-1.55 5.47-2.8 7.76-.4.68-.8 1.34-1.24 2-.2.35-.12.8.2 1.03.33.25.8.16 1.03-.16.5-.73.9-1.37 1.34-2.14 1.33-2.44 2.23-5 2.95-8.15zm-10.13 4.18c.2-.37.06-.8-.3-1.03a.74.74 0 0 0-1.02.3c-.48.88-1.07 1.73-1.88 2.75-.24.33-.2.8.13 1.05.33.27.8.2 1.05-.13.83-1.06 1.47-1.98 2-2.95zm5.22-12.1c.07.38-.22.76-.63.82-2.6.36-4.56 2.16-5.13 4.7-.57 2.43-1.14 3.94-1.86 5.24-.36.66-.7 1.2-1.17 1.83-.24.34-.7.4-1.03.16-.35-.24-.42-.7-.18-1.06.44-.6.8-1.12 1.08-1.64.63-1.15 1.18-2.5 1.7-4.86.72-3.17 3.17-5.4 6.4-5.85.4-.04.78.24.82.66zm.96.03c.1-.42.5-.66.9-.57 4.1.92 6.63 5 5.7 9.08-.2.92-.4 1.72-.67 2.62-.1.4-.5.63-.9.5a.731.731 0 0 1-.53-.92c.24-.8.46-1.65.66-2.53.74-3.28-1.32-6.55-4.58-7.3-.4-.1-.65-.48-.57-.88zm4.55 12.95c.4.16.6.6.44.97-.48 1.25-.96 2.3-1.62 3.45-.22.35-.68.5-1.03.27a.737.737 0 0 1-.28-1c.6-1.1 1.07-2.1 1.53-3.26.16-.4.6-.6.96-.44zm-4.87-8.2c-.68-.15-1.34.02-1.86.48-.33.3-.35.77-.07 1.08.26.3.74.33 1.05.05.26-.2.63-.2.88.05.13.15.2.35.15.55-.45 1.98-.95 3.58-1.57 5.03-.15.38.03.8.4.97.37.18.8 0 .98-.37.67-1.56 1.2-3.25 1.65-5.28.26-1.14-.44-2.3-1.6-2.55zm-1.5 3.63c.12-.4-.12-.8-.52-.92-.4-.1-.8.14-.92.53-.52 1.9-1.1 3.35-1.85 4.7-.55 1-1.23 2-2.06 3.04-.25.33-.2.82.14 1.06.33.26.8.2 1.05-.13.87-1.13 1.56-2.16 2.18-3.26.8-1.45 1.44-3.03 2-5zm.4 6.33c.22-.35.1-.8-.28-1-.35-.2-.8-.08-1.03.28a21.45 21.45 0 0 1-1.86 2.85c-.25.32-.2.8.14 1.03.33.26.8.2 1.05-.13.76-1.02 1.35-1.92 1.96-3.04z"/>
    <path fill="#fff" stroke="#000" stroke-opacity="0" stroke-width="2" d="M-635 900a2 2 0 0 1 2-2h290.6a2 2 0 0 1 2 2v17a2 2 0 0 1-2 2H-633a2 2 0 0 1-2-2z"/>
    <use xlink:href="#s" transform="translate(-626.72 916.333)"/>
    <use xlink:href="#t" transform="translate(-588.107 916.333)"/>
    <use xlink:href="#u" transform="translate(-506.133 916.333)"/>
    <path fill="#ffec6e" stroke="#000" stroke-opacity="0" d="M-355.14 1451.9a2 2 0 0 1 2-2h44a2 2 0 0 1 2 2v44a2 2 0 0 1-2 2h-44a2 2 0 0 1-2-2zm-50.02 109.74h-43.97c-1.34 0-2 .67-2 2.02v43.96c0 1.35.66 2.02 2 2.02h43.97c1.34 0 2.02-.67 2.02-2.02v-43.96c0-1.35-.68-2.02-2.02-2.02z"/>
    <path stroke="#000" stroke-opacity="0" d="M-427.14 1589.9c.43 0 .76.35.76.73v2.02c0 .38-.33.72-.76.72-.44 0-.77-.34-.77-.72v-2.02c0-.38.32-.72.76-.72z"/>
    <path stroke="#000" stroke-opacity="0" d="M-433.14 1583.72v-3.3c0-1.55.62-3.04 1.77-4.1 1.2-1.14 2.6-1.67 4.23-1.67 1.58 0 3.12.57 4.22 1.68 1.15 1.1 1.78 2.45 1.78 4.08v3.32c1.2.38 2 1.44 2 2.7v7.48c0 1.53-1.24 2.73-2.77 2.73h-10.48c-1.53 0-2.78-1.2-2.78-2.73v-7.5c0-1.24.82-2.3 2.02-2.68zm2.78-6.34c.9-.8 1.97-1.24 3.22-1.24 1.2 0 2.35.48 3.2 1.24.83.82 1.3 1.88 1.3 3.03v3.22h-9.02v-3.2c0-1.16.48-2.22 1.3-3.04zm8.45 7.78h-10.48c-.72 0-1.24.53-1.24 1.25v7.5c0 .67.52 1.24 1.24 1.24h10.47c.7 0 1.24-.57 1.24-1.24v-7.5c0-.7-.53-1.24-1.25-1.24z"/>
    <path fill="#ffec6e" stroke="#000" stroke-opacity="0" d="M-355.14 1563.64a2 2 0 0 1 2-2h44a2 2 0 0 1 2 2v44a2 2 0 0 1-2 2h-44a2 2 0 0 1-2-2zm-50.02-113.74h-43.97c-1.34 0-2 .66-2 2v43.97c0 1.35.66 2.02 2 2.02h43.97c1.34 0 2.02-.68 2.02-2.03v-43.96c0-1.34-.68-2-2.02-2z"/>
    <path stroke="#000" stroke-opacity="0" d="M-427.14 1478.16c.43 0 .76.34.76.72v2.02c0 .38-.33.72-.76.72-.44 0-.77-.34-.77-.72v-2.02c0-.38.32-.72.76-.72z"/>
    <path stroke="#000" stroke-opacity="0" d="M-433.14 1471.97v-3.3c0-1.55.62-3.04 1.77-4.1 1.2-1.14 2.6-1.67 4.23-1.67 1.58 0 3.12.57 4.22 1.68 1.15 1.1 1.78 2.45 1.78 4.08v3.3c1.2.4 2 1.45 2 2.7v7.5c0 1.52-1.24 2.72-2.77 2.72h-10.48c-1.53 0-2.78-1.2-2.78-2.73v-7.5c0-1.24.82-2.3 2.02-2.68zm2.78-6.34c.9-.8 1.97-1.24 3.22-1.24 1.2 0 2.35.47 3.2 1.23.83.82 1.3 1.88 1.3 3.03v3.2l-9.02.02v-3.22c0-1.15.48-2.2 1.3-3.03zm8.45 7.78h-10.48c-.72 0-1.24.54-1.24 1.26v7.5c0 .66.52 1.23 1.24 1.23h10.47c.7 0 1.24-.58 1.24-1.25v-7.5c0-.7-.53-1.24-1.25-1.24z"/>
    <path fill="#fff" fill-opacity="0" d="M-468.64 1503.9a6 6 0 0 1 6-6h73a6 6 0 0 1 6 6v21.1a6 6 0 0 1-6 6h-73a6 6 0 0 1-6-6z"/>
    <use xlink:href="#v" transform="translate(-446.289 1514.002)"/>
    <use xlink:href="#w" transform="translate(-450.533 1527.336)"/>
    <use xlink:href="#x" transform="translate(-407.9 1527.336)"/>
    <path fill="#fff" fill-opacity="0" d="M-468.64 1615.64a6 6 0 0 1 6-6h73a6 6 0 0 1 6 6v21.38a6 6 0 0 1-6 6h-73a6 6 0 0 1-6-6z"/>
    <use xlink:href="#v" transform="translate(-446.289 1625.752)"/>
    <use xlink:href="#w" transform="translate(-450.45 1639.086)"/>
    <use xlink:href="#y" transform="translate(-407.817 1639.086)"/>
    <path fill="#fff" fill-opacity="0" d="M-371.14 1503.9a6 6 0 0 1 6-6h73a6 6 0 0 1 6 6v21.1a6 6 0 0 1-6 6h-73a6 6 0 0 1-6-6z"/>
    <use xlink:href="#z" transform="translate(-353.633 1514.002)"/>
    <use xlink:href="#A" transform="translate(-348.217 1527.336)"/>
    <use xlink:href="#x" transform="translate(-315.217 1527.336)"/>
    <path fill="#fff" fill-opacity="0" d="M-371.14 1615.64a6 6 0 0 1 6-6h73a6 6 0 0 1 6 6v21.38a6 6 0 0 1-6 6h-73a6 6 0 0 1-6-6z"/>
    <use xlink:href="#z" transform="translate(-353.633 1625.752)"/>
    <use xlink:href="#A" transform="translate(-348.133 1639.086)"/>
    <use xlink:href="#y" transform="translate(-315.133 1639.086)"/>
    <path fill="#ffec6e" stroke="#000" stroke-opacity="0" d="M-357.16 1329.9h-43.97c-1.34 0-2 .66-2 2v43.97c0 1.35.66 2.02 2 2.02h43.97c1.34 0 2.02-.68 2.02-2.03v-43.96c0-1.34-.68-2-2.02-2z"/>
    <path stroke="#000" stroke-opacity="0" d="M-389.94 1345.78c-.34-.24-.82-.14-1.06.2-.24.33-.2.76.14 1l3.7 2.64-3.7 2.64c-.33.3-.38.72-.14 1.06.24.33.72.43 1.06.2l4.5-3.28.15-.14c.25-.34.2-.82-.13-1.06l-4.5-3.26zm8.54 3.12c-.43 0-.72.33-.72.72 0 .43.3.77.72.77h9.5c.44 0 .77-.35.77-.78 0-.38-.33-.72-.77-.72h-9.5zm-3.74 5.76c0-.43.33-.77.76-.77h12.48c.44 0 .77.33.77.76 0 .38-.33.72-.77.72h-12.48c-.43 0-.76-.34-.76-.72zm.76 4.22c-.43 0-.76.34-.76.77 0 .38.33.72.76.72h12.48c.44 0 .77-.33.77-.72 0-.43-.33-.77-.77-.77h-12.48z"/>
    <path fill="#fff" fill-opacity="0" d="M-444.85 1383.9a6 6 0 0 1 6-6h119.42a6 6 0 0 1 6 6v16a6 6 0 0 1-6 6h-119.42a6 6 0 0 1-6-6z"/>
    <use xlink:href="#B" transform="translate(-436.864 1396.252)"/>
    <use xlink:href="#p" transform="translate(-368.553 1396.252)"/>
    <path fill="#1d1e1f" stroke="#000" stroke-opacity="0" d="M-326.6 1470c.28.28.28.75 0 1.06l-5.5 5.5c-.3.28-.8.28-1.08 0l-2.5-2.52a.745.745 0 0 1-.03-1.06c.27-.3.74-.3 1.05-.02.02 0 .02.02.03.02l1.98 1.97 4.97-4.95c.3-.3.76-.3 1.06 0z"/>
    <path fill="#1d1e1f" stroke="#000" stroke-opacity="0" d="M-332.35 1463.07c.65-.24 1.26-.24 1.9 0l6.27 2.34c1.1.42 1.8 1.4 1.8 2.58v5.78c0 2.75-1.47 5.05-3.1 6.78-1.67 1.75-3.57 3-4.67 3.65-.8.45-1.7.45-2.5 0-1.08-.65-3-1.9-4.65-3.66-1.64-1.73-3.1-4.03-3.1-6.78v-5.78c0-1.16.7-2.16 1.8-2.57l6.25-2.33zm1.4 1.4c-.3-.1-.6-.1-.88 0l-6.24 2.35c-.5.2-.83.62-.83 1.16v5.78c0 2.2 1.17 4.16 2.7 5.76 1.5 1.6 3.3 2.77 4.32 3.38.3.17.67.17.97 0 1.02-.6 2.8-1.78 4.3-3.38 1.52-1.6 2.7-3.57 2.7-5.76v-5.78c0-.54-.3-.97-.82-1.16l-6.24-2.34zm4.35 117.28c.28.28.28.75 0 1.06l-5.5 5.5c-.3.3-.8.3-1.08 0l-2.5-2.5c-.3-.3-.32-.76-.03-1.07.27-.3.74-.3 1.05-.02.02 0 .02.03.03.03l1.98 1.97 4.97-4.95c.3-.3.76-.3 1.06 0z"/>
    <path fill="#1d1e1f" stroke="#000" stroke-opacity="0" d="M-332.35 1574.82c.65-.24 1.26-.24 1.9 0l6.27 2.34c1.1.4 1.8 1.4 1.8 2.57v5.78c0 2.76-1.47 5.06-3.1 6.8-1.67 1.74-3.57 3-4.67 3.64-.8.46-1.7.46-2.5 0-1.08-.64-3-1.9-4.65-3.65-1.64-1.74-3.1-4.04-3.1-6.8v-5.77c0-1.16.7-2.16 1.8-2.57l6.25-2.34zm1.4 1.4c-.3-.1-.6-.1-.88 0l-6.24 2.35c-.5.2-.83.62-.83 1.16v5.78c0 2.2 1.17 4.17 2.7 5.77 1.5 1.6 3.3 2.77 4.32 3.38.3.17.67.17.97 0 1.02-.6 2.8-1.78 4.3-3.38 1.52-1.6 2.7-3.57 2.7-5.76v-5.77c0-.54-.3-.97-.82-1.16l-6.24-2.34z"/>
    <path fill="#ffec6e" stroke="#000" stroke-opacity="0" d="M44.86 1451.9a2 2 0 0 1 2-2h44a2 2 0 0 1 2 2v44a2 2 0 0 1-2 2h-44a2 2 0 0 1-2-2zm-50.02 109.74h-43.97c-1.34 0-2 .67-2 2.02v43.96c0 1.35.66 2.02 2 2.02h43.97c1.34 0 2.02-.67 2.02-2.02v-43.96c0-1.35-.68-2.02-2.02-2.02z"/>
    <path stroke="#000" stroke-opacity="0" d="M-27.14 1589.9c.43 0 .76.35.76.73v2.02c0 .38-.33.72-.76.72-.44 0-.77-.34-.77-.72v-2.02c0-.38.32-.72.76-.72z"/>
    <path stroke="#000" stroke-opacity="0" d="M-33.14 1583.72v-3.3c0-1.55.62-3.04 1.77-4.1 1.2-1.14 2.6-1.67 4.23-1.67 1.58 0 3.12.57 4.22 1.68 1.15 1.1 1.78 2.45 1.78 4.08v3.32c1.2.38 2 1.44 2 2.7v7.48c0 1.53-1.24 2.73-2.77 2.73H-32.4c-1.53 0-2.78-1.2-2.78-2.73v-7.5c0-1.24.82-2.3 2.02-2.68zm2.78-6.34c.9-.8 1.97-1.24 3.22-1.24 1.2 0 2.35.48 3.2 1.24.83.82 1.3 1.88 1.3 3.03v3.22h-9.02v-3.2c0-1.16.48-2.22 1.3-3.04zm8.45 7.78H-32.4c-.72 0-1.24.53-1.24 1.25v7.5c0 .67.52 1.24 1.24 1.24h10.47c.7 0 1.24-.57 1.24-1.24v-7.5c0-.7-.53-1.24-1.25-1.24z"/>
    <path fill="#ffec6e" stroke="#000" stroke-opacity="0" d="M44.86 1563.64a2 2 0 0 1 2-2h44a2 2 0 0 1 2 2v44a2 2 0 0 1-2 2h-44a2 2 0 0 1-2-2zM-5.16 1449.9h-43.97c-1.34 0-2 .66-2 2v43.97c0 1.35.66 2.02 2 2.02h43.97c1.34 0 2.02-.68 2.02-2.03v-43.96c0-1.34-.68-2-2.02-2z"/>
    <path stroke="#000" stroke-opacity="0" d="M-27.14 1478.16c.43 0 .76.34.76.72v2.02c0 .38-.33.72-.76.72-.44 0-.77-.34-.77-.72v-2.02c0-.38.32-.72.76-.72z"/>
    <path stroke="#000" stroke-opacity="0" d="M-33.14 1471.97v-3.3c0-1.55.62-3.04 1.77-4.1 1.2-1.14 2.6-1.67 4.23-1.67 1.58 0 3.12.57 4.22 1.68 1.15 1.1 1.78 2.45 1.78 4.08v3.3c1.2.4 2 1.45 2 2.7v7.5c0 1.52-1.24 2.72-2.77 2.72H-32.4c-1.53 0-2.78-1.2-2.78-2.73v-7.5c0-1.24.82-2.3 2.02-2.68zm2.78-6.34c.9-.8 1.97-1.24 3.22-1.24 1.2 0 2.35.47 3.2 1.23.83.82 1.3 1.88 1.3 3.03v3.2l-9.02.02v-3.22c0-1.15.48-2.2 1.3-3.03zm8.45 7.78H-32.4c-.72 0-1.24.54-1.24 1.26v7.5c0 .66.52 1.23 1.24 1.23h10.47c.7 0 1.24-.58 1.24-1.25v-7.5c0-.7-.53-1.24-1.25-1.24z"/>
    <path fill="#fff" fill-opacity="0" d="M-68.64 1503.9a6 6 0 0 1 6-6h73a6 6 0 0 1 6 6v21.1a6 6 0 0 1-6 6h-73a6 6 0 0 1-6-6z"/>
    <use xlink:href="#v" transform="translate(-46.289 1514.002)"/>
    <use xlink:href="#w" transform="translate(-50.533 1527.336)"/>
    <use xlink:href="#x" transform="translate(-7.9 1527.336)"/>
    <path fill="#fff" fill-opacity="0" d="M-68.64 1615.64a6 6 0 0 1 6-6h73a6 6 0 0 1 6 6v21.38a6 6 0 0 1-6 6h-73a6 6 0 0 1-6-6z"/>
    <use xlink:href="#v" transform="translate(-46.289 1625.752)"/>
    <use xlink:href="#w" transform="translate(-50.45 1639.086)"/>
    <use xlink:href="#y" transform="translate(-7.817 1639.086)"/>
    <path fill="#fff" fill-opacity="0" d="M28.86 1503.9a6 6 0 0 1 6-6h73a6 6 0 0 1 6 6v21.1a6 6 0 0 1-6 6h-73a6 6 0 0 1-6-6z"/>
    <use xlink:href="#z" transform="translate(46.367 1514.002)"/>
    <use xlink:href="#A" transform="translate(51.783 1527.336)"/>
    <use xlink:href="#x" transform="translate(84.783 1527.336)"/>
    <path fill="#fff" fill-opacity="0" d="M28.86 1615.64a6 6 0 0 1 6-6h73a6 6 0 0 1 6 6v21.38a6 6 0 0 1-6 6h-73a6 6 0 0 1-6-6z"/>
    <use xlink:href="#z" transform="translate(46.367 1625.752)"/>
    <use xlink:href="#A" transform="translate(51.867 1639.086)"/>
    <use xlink:href="#y" transform="translate(84.867 1639.086)"/>
    <path fill="#ffec6e" stroke="#000" stroke-opacity="0" d="M42.84 1329.9H-1.13c-1.34 0-2 .66-2 2v43.97c0 1.35.66 2.02 2 2.02h43.97c1.34 0 2.02-.68 2.02-2.03v-43.96c0-1.34-.68-2-2.02-2z"/>
    <path stroke="#000" stroke-opacity="0" d="M10.06 1345.78c-.34-.24-.82-.14-1.06.2-.24.33-.2.76.14 1l3.7 2.64-3.7 2.64c-.33.3-.38.72-.14 1.06.24.33.72.43 1.06.2l4.5-3.28.15-.14c.25-.34.2-.82-.13-1.06l-4.5-3.26zm8.54 3.12c-.43 0-.72.33-.72.72 0 .43.3.77.72.77h9.5c.44 0 .77-.35.77-.78 0-.38-.33-.72-.77-.72h-9.5zm-3.74 5.76c0-.43.33-.77.76-.77H28.1c.44 0 .77.33.77.76 0 .38-.33.72-.77.72H15.62c-.43 0-.76-.34-.76-.72zm.76 4.22c-.43 0-.76.34-.76.77 0 .38.33.72.76.72H28.1c.44 0 .77-.33.77-.72 0-.43-.33-.77-.77-.77H15.62z"/>
    <path fill="#fff" fill-opacity="0" d="M-44.85 1383.9a6 6 0 0 1 6-6H80.57a6 6 0 0 1 6 6v16a6 6 0 0 1-6 6H-38.86a6 6 0 0 1-6-6z"/>
    <use xlink:href="#B" transform="translate(-36.864 1396.252)"/>
    <use xlink:href="#p" transform="translate(31.447 1396.252)"/>
    <path fill="#1d1e1f" stroke="#000" stroke-opacity="0" d="M73.4 1470c.28.28.28.75 0 1.06l-5.5 5.5c-.3.28-.8.28-1.08 0l-2.5-2.52a.745.745 0 0 1-.03-1.06c.27-.3.74-.3 1.05-.02.02 0 .02.02.03.02l1.98 1.97 4.97-4.95c.3-.3.76-.3 1.06 0z"/>
    <path fill="#1d1e1f" stroke="#000" stroke-opacity="0" d="M67.65 1463.07c.65-.24 1.26-.24 1.9 0l6.27 2.34c1.1.42 1.8 1.4 1.8 2.58v5.78c0 2.75-1.47 5.05-3.1 6.78-1.67 1.75-3.57 3-4.67 3.65-.8.45-1.7.45-2.5 0-1.08-.65-3-1.9-4.65-3.66-1.64-1.73-3.1-4.03-3.1-6.78v-5.78c0-1.16.7-2.16 1.8-2.57l6.25-2.33zm1.4 1.4c-.3-.1-.6-.1-.88 0l-6.24 2.35c-.5.2-.83.62-.83 1.16v5.78c0 2.2 1.17 4.16 2.7 5.76 1.5 1.6 3.3 2.77 4.32 3.38.3.17.67.17.97 0 1.02-.6 2.8-1.78 4.3-3.38 1.52-1.6 2.7-3.57 2.7-5.76v-5.78c0-.54-.3-.97-.82-1.16l-6.24-2.34zm4.35 117.28c.28.28.28.75 0 1.06l-5.5 5.5c-.3.3-.8.3-1.08 0l-2.5-2.5c-.3-.3-.32-.76-.03-1.07.27-.3.74-.3 1.05-.02.02 0 .02.03.03.03l1.98 1.97 4.97-4.95c.3-.3.76-.3 1.06 0z"/>
    <path fill="#1d1e1f" stroke="#000" stroke-opacity="0" d="M67.65 1574.82c.65-.24 1.26-.24 1.9 0l6.27 2.34c1.1.4 1.8 1.4 1.8 2.57v5.78c0 2.76-1.47 5.06-3.1 6.8-1.67 1.74-3.57 3-4.67 3.64-.8.46-1.7.46-2.5 0-1.08-.64-3-1.9-4.65-3.65-1.64-1.74-3.1-4.04-3.1-6.8v-5.77c0-1.16.7-2.16 1.8-2.57l6.25-2.34zm1.4 1.4c-.3-.1-.6-.1-.88 0l-6.24 2.35c-.5.2-.83.62-.83 1.16v5.78c0 2.2 1.17 4.17 2.7 5.77 1.5 1.6 3.3 2.77 4.32 3.38.3.17.67.17.97 0 1.02-.6 2.8-1.78 4.3-3.38 1.52-1.6 2.7-3.57 2.7-5.76v-5.77c0-.54-.3-.97-.82-1.16l-6.24-2.34z"/>
    <path fill="#ffec6e" stroke="#000" stroke-opacity="0" d="M-329.67 1165.9h-43.96c-1.35 0-2.02.66-2.02 2v43.98c0 1.34.67 2 2 2h43.98c1.35 0 2.02-.66 2.02-2v-43.97c0-1.34-.67-2-2.02-2z"/>
    <path stroke="#000" stroke-opacity="0" d="M-362.45 1181.78c-.34-.24-.82-.14-1.06.2-.25.33-.2.76.14 1l3.7 2.64-3.7 2.64c-.34.3-.4.72-.15 1.06.23.33.7.43 1.05.2l4.5-3.28c.06-.04.1-.1.15-.14.25-.34.2-.82-.14-1.06l-4.5-3.26zm8.54 3.12c-.44 0-.73.34-.73.72 0 .43.3.77.72.77h9.5c.43 0 .76-.35.76-.78 0-.38-.33-.72-.76-.72h-9.5zm-3.75 5.76c0-.43.33-.77.77-.77h12.48c.43 0 .76.33.76.76 0 .38-.33.72-.76.72h-12.48c-.44 0-.77-.34-.77-.72zm.77 4.22c-.44 0-.77.34-.77.77 0 .4.33.72.77.72h12.48c.43 0 .76-.33.76-.72 0-.43-.33-.77-.76-.77h-12.48z"/>
    <path fill="#fff" fill-opacity="0" d="M-409.5 1219.9a6 6 0 0 1 6-6h99.2a6 6 0 0 1 6 6v16a6 6 0 0 1-6 6h-99.2a6 6 0 0 1-6-6z"/>
    <use xlink:href="#o" transform="translate(-400.154 1232.254)"/>
    <use xlink:href="#p" transform="translate(-354.554 1232.254)"/>
    <path fill="#ffec6e" stroke="#000" stroke-opacity="0" d="M68.1 1165.9h-44c-1.34 0-2 .66-2 2v43.98c0 1.34.66 2 2 2h44c1.33 0 2-.66 2-2v-43.97c0-1.34-.67-2-2-2z"/>
    <path stroke="#000" stroke-opacity="0" d="M35.3 1181.78c-.33-.24-.8-.14-1.05.2-.24.33-.2.76.14 1l3.7 2.64-3.7 2.64c-.34.3-.4.72-.15 1.06.24.33.72.43 1.06.2l4.52-3.28.14-.14c.24-.34.2-.82-.14-1.06l-4.5-3.26zm8.55 3.12a.71.71 0 0 0-.72.72c0 .43.3.77.72.77h9.5c.44 0 .77-.35.77-.78 0-.38-.33-.72-.77-.72h-9.5zm-3.74 5.76c0-.43.34-.77.77-.77h12.48c.44 0 .77.33.77.76 0 .38-.33.72-.77.72H40.87c-.43 0-.76-.34-.76-.72zm.77 4.22c-.43 0-.76.34-.76.77 0 .4.34.72.77.72h12.48c.44 0 .77-.33.77-.72 0-.43-.33-.77-.77-.77h-12.5z"/>
    <path fill="#fff" fill-opacity="0" d="M-7 1219.9a6 6 0 0 1 6-6h94.2a6 6 0 0 1 6 6v16a6 6 0 0 1-6 6H-1a6 6 0 0 1-6-6z"/>
    <use xlink:href="#o" transform="translate(-.154 1232.254)"/>
    <use xlink:href="#p" transform="translate(45.446 1232.254)"/>
    <defs>
      <path id="C" fill="#3a414a" d="M145 0 20-1l268-699h112L668 0H543l-66-172H210zm95-272h207L344-563"/>
      <path id="D" fill="#3a414a" d="M75 1v-701l300-1c123 0 205 93 205 214 0 120-84 210-211 210H183V1H75zm108-373h164c69 0 124-39 124-116 0-78-55-118-124-118H183v234"/>
      <path id="E" fill="#3a414a" d="m72 200 440-950h104L177 200H72"/>
      <path id="F" fill="#3a414a" d="M75 0v-700h459v107H182v187h331v103H182v196h352V0H75"/>
      <path id="G" fill="#3a414a" d="M495 0 180-535V0H75v-700h135l325 552v-552h105V1"/>
      <path id="H" fill="#3a414a" d="M272 0 10-700h113l201 552 201-552h112L375 0H272"/>
      <path id="I" fill="#3a414a" d="M75 0v-700h136l219 547 213-547h131V0H668v-500L475 0h-93L186-500V0H75"/>
      <path id="J" fill="#3a414a" d="M322 7C183 7 46-66 35-216h124c17 74 72 119 163 119 87 0 134-55 134-105 0-53-33-88-128-98C123-322 54-407 54-501c0-113 105-205 250-205 158 0 256 84 262 222H448c-5-73-69-114-145-114-82 0-124 49-124 93 0 55 56 88 142 98 201 23 260 105 260 206C581-73 472 7 322 7"/>
      <path id="K" fill="#3a414a" d="M367 5C185 5 39-144 40-347c1-206 138-360 334-360 174 0 284 112 305 254H553c-14-75-81-145-184-145-127 0-206 114-206 252 0 135 79 243 202 243 108 0 174-77 188-148h126C656-113 547 5 367 5"/>
      <path id="L" fill="#3a414a" d="M75 2v-702l251-2c189-2 333 143 333 347C659-148 519-1 336 0zm104-106 143-2c126-2 226-99 226-245 0-147-98-244-222-242l-147 2v487"/>
      <path id="M" fill="#3a414a" d="m242 0 1-597H1L0-700h590l1 103-241-1-1 598H242"/>
      <path id="N" fill="#3a414a" d="M75 1v-701l302-1c123 0 205 85 205 193 0 92-53 155-106 173 62 20 87 75 94 161 8 97 3 130 27 174H473c-15-36-14-74-19-149-7-98-21-147-144-147H185V1H75zm110-392c129-5 288 32 288-107 1-141-158-103-288-108v215"/>
      <path id="O" fill="#3a414a" d="M372 10C188 10 40-139 40-350c0-210 148-358 332-358s332 149 332 360c0 210-148 358-332 358zm-1-107c128 0 218-105 218-248 0-148-90-258-217-258-126 0-215 109-215 256 0 144 89 250 214 250"/>
      <path id="P" fill="#3a414a" d="M80 0v-700h115V0H80"/>
      <path id="Q" fill="#3a414a" d="M349 8C177 8 65-101 65-273v-427h110v427c0 115 69 178 174 178 103 0 174-63 174-178v-427h110v427C633-101 521 8 349 8"/>
      <path id="X" fill="#3a414a" d="M75 2v-702h289c113 0 202 65 202 181 0 69-43 118-89 140 69 26 122 100 121 184C596-74 517 2 392 2H75zm107-413h181c48 0 88-40 88-92 0-54-31-98-93-98H182v190zm2 307h187c61 0 104-39 104-103 0-60-43-106-104-106H184v209"/>
      <path id="R" fill="#3a414a" d="M75 0v-700h117v292h329v-292h117V0H521v-312H192V0H75"/>
      <path id="S" fill="#3a414a" d="M75 0v-700h116v590h310V0H75"/>
      <path id="T" fill="#3a414a" d="M221 224C126 103 54-83 54-292c0-198 64-395 167-498h94C205-666 145-481 145-292c0 204 81 389 167 516h-91"/>
      <path id="U" fill="#3a414a" d="M94-283v-82h350v82H94"/>
      <path id="V" fill="#3a414a" d="M364 5C178 5 39-144 40-347c1-206 138-360 334-360 174 0 284 112 305 254H553c-14-75-81-145-184-145-127 0-206 114-206 252 0 135 80 244 203 243 83-1 171-43 198-153H364v-104h315V0h-96l-8-103C530-31 448 5 364 5"/>
      <path id="W" fill="#3a414a" d="M27 224C113 97 194-88 194-292c0-189-60-374-170-498h94c103 103 167 300 167 498 0 209-72 395-167 516H27"/>
      <path id="Y" fill="#3a414a" d="M506 0H60v-92h168v-490L60-462v-103l183-135h88v608h175V0"/>
      <path id="Z" fill="#3a414a" d="M34 0v-107l159-137c127-109 204-162 204-244 0-72-49-119-123-119-72 0-124 50-133 127H26c6-137 106-229 249-229 134 0 233 92 233 216S407-297 291-194l-104 92h326V0H34"/>
      <g id="a">
        <use xlink:href="#C" transform="scale(.01333)"/>
        <use xlink:href="#D" transform="translate(9.173) scale(.01333)"/>
        <use xlink:href="#D" transform="translate(17.173) scale(.01333)"/>
        <use xlink:href="#E" transform="translate(25.173) scale(.01333)"/>
        <use xlink:href="#F" transform="translate(32.853) scale(.01333)"/>
        <use xlink:href="#G" transform="translate(40.373) scale(.01333)"/>
        <use xlink:href="#H" transform="translate(49.907) scale(.01333)"/>
      </g>
      <g id="b">
        <use xlink:href="#G" transform="scale(.01333)"/>
        <use xlink:href="#C" transform="translate(9.533) scale(.01333)"/>
        <use xlink:href="#I" transform="translate(18.707) scale(.01333)"/>
        <use xlink:href="#F" transform="translate(30.027) scale(.01333)"/>
        <use xlink:href="#J" transform="translate(37.413) scale(.01333)"/>
        <use xlink:href="#D" transform="translate(45.627) scale(.01333)"/>
        <use xlink:href="#C" transform="translate(52.293) scale(.01333)"/>
        <use xlink:href="#K" transform="translate(61.467) scale(.01333)"/>
        <use xlink:href="#F" transform="translate(70.987) scale(.01333)"/>
        <use xlink:href="#J" transform="translate(78.373) scale(.01333)"/>
      </g>
      <g id="c">
        <use xlink:href="#L" transform="scale(.01333)"/>
        <use xlink:href="#F" transform="translate(9.32) scale(.01333)"/>
        <use xlink:href="#H" transform="translate(16.84) scale(.01333)"/>
      </g>
      <g id="d">
        <use xlink:href="#M" transform="scale(.01333)"/>
        <use xlink:href="#F" transform="translate(7.88) scale(.01333)"/>
        <use xlink:href="#J" transform="translate(15.267) scale(.01333)"/>
        <use xlink:href="#M" transform="translate(23.347) scale(.01333)"/>
      </g>
      <g id="e">
        <use xlink:href="#D" transform="scale(.01333)"/>
        <use xlink:href="#N" transform="translate(8) scale(.01333)"/>
        <use xlink:href="#O" transform="translate(16.227) scale(.01333)"/>
        <use xlink:href="#L" transform="translate(26.147) scale(.01333)"/>
      </g>
      <g id="f">
        <use xlink:href="#M" transform="scale(.01333)"/>
        <use xlink:href="#F" transform="translate(7.88) scale(.01333)"/>
        <use xlink:href="#G" transform="translate(15.4) scale(.01333)"/>
        <use xlink:href="#C" transform="translate(24.933) scale(.01333)"/>
        <use xlink:href="#G" transform="translate(34.107) scale(.01333)"/>
        <use xlink:href="#M" transform="translate(43.64) scale(.01333)"/>
      </g>
      <g id="h">
        <use xlink:href="#G" transform="scale(.01333)"/>
        <use xlink:href="#C" transform="translate(9.533) scale(.01333)"/>
        <use xlink:href="#I" transform="translate(18.707) scale(.01333)"/>
        <use xlink:href="#F" transform="translate(30.027) scale(.01333)"/>
        <use xlink:href="#J" transform="translate(37.413) scale(.01333)"/>
        <use xlink:href="#D" transform="translate(45.627) scale(.01333)"/>
        <use xlink:href="#C" transform="translate(52.293) scale(.01333)"/>
        <use xlink:href="#K" transform="translate(61.467) scale(.01333)"/>
        <use xlink:href="#F" transform="translate(70.987) scale(.01333)"/>
      </g>
      <g id="i">
        <use xlink:href="#J" transform="scale(.01333)"/>
        <use xlink:href="#P" transform="translate(8.213) scale(.01333)"/>
        <use xlink:href="#M" transform="translate(11.88) scale(.01333)"/>
      </g>
      <g id="j">
        <use xlink:href="#Q" transform="scale(.01333)"/>
        <use xlink:href="#C" transform="translate(9.04) scale(.01333)"/>
        <use xlink:href="#M" transform="translate(18.213) scale(.01333)"/>
      </g>
      <g id="l">
        <use xlink:href="#R" transform="scale(.01333)"/>
        <use xlink:href="#K" transform="translate(9.507) scale(.01333)"/>
        <use xlink:href="#D" transform="translate(19.027) scale(.01333)"/>
      </g>
      <g id="m">
        <use xlink:href="#H" transform="scale(.01333)"/>
        <use xlink:href="#C" transform="translate(7.827) scale(.01333)"/>
        <use xlink:href="#Q" transform="translate(17) scale(.01333)"/>
        <use xlink:href="#S" transform="translate(26.307) scale(.01333)"/>
        <use xlink:href="#M" transform="translate(31.853) scale(.01333)"/>
      </g>
      <g id="n">
        <use xlink:href="#C" transform="scale(.01333)"/>
        <use xlink:href="#L" transform="translate(9.173) scale(.01333)"/>
        <use xlink:href="#I" transform="translate(18.493) scale(.01333)"/>
        <use xlink:href="#P" transform="translate(29.813) scale(.01333)"/>
        <use xlink:href="#G" transform="translate(33.48) scale(.01333)"/>
      </g>
      <g id="o">
        <use xlink:href="#M" transform="scale(.01111)"/>
        <use xlink:href="#F" transform="translate(6.567) scale(.01111)"/>
        <use xlink:href="#G" transform="translate(12.833) scale(.01111)"/>
        <use xlink:href="#C" transform="translate(20.778) scale(.01111)"/>
        <use xlink:href="#G" transform="translate(28.422) scale(.01111)"/>
        <use xlink:href="#M" transform="translate(36.367) scale(.01111)"/>
      </g>
      <g id="p">
        <use xlink:href="#D" transform="scale(.01111)"/>
        <use xlink:href="#O" transform="translate(6.667) scale(.01111)"/>
        <use xlink:href="#S" transform="translate(14.933) scale(.01111)"/>
        <use xlink:href="#P" transform="translate(20.667) scale(.01111)"/>
        <use xlink:href="#K" transform="translate(23.722) scale(.01111)"/>
        <use xlink:href="#P" transform="translate(31.656) scale(.01111)"/>
        <use xlink:href="#F" transform="translate(34.711) scale(.01111)"/>
        <use xlink:href="#J" transform="translate(40.867) scale(.01111)"/>
      </g>
      <g id="q">
        <use xlink:href="#R" transform="scale(.01111)"/>
        <use xlink:href="#Q" transform="translate(7.922) scale(.01111)"/>
        <use xlink:href="#I" transform="translate(15.678) scale(.01111)"/>
        <use xlink:href="#C" transform="translate(25.111) scale(.01111)"/>
        <use xlink:href="#G" transform="translate(32.756) scale(.01111)"/>
      </g>
      <g id="r">
        <use xlink:href="#C" transform="scale(.01111)"/>
        <use xlink:href="#Q" transform="translate(7.644) scale(.01111)"/>
        <use xlink:href="#M" transform="translate(15.4) scale(.01111)"/>
        <use xlink:href="#R" transform="translate(21.967) scale(.01111)"/>
      </g>
      <g id="s">
        <use xlink:href="#N" transform="scale(.01333)"/>
        <use xlink:href="#O" transform="translate(8.227) scale(.01333)"/>
        <use xlink:href="#O" transform="translate(18.147) scale(.01333)"/>
        <use xlink:href="#M" transform="translate(27.533) scale(.01333)"/>
      </g>
      <g id="t">
        <use xlink:href="#G" transform="scale(.01333)"/>
        <use xlink:href="#C" transform="translate(9.533) scale(.01333)"/>
        <use xlink:href="#I" transform="translate(18.707) scale(.01333)"/>
        <use xlink:href="#F" transform="translate(30.027) scale(.01333)"/>
        <use xlink:href="#J" transform="translate(37.413) scale(.01333)"/>
        <use xlink:href="#D" transform="translate(45.627) scale(.01333)"/>
        <use xlink:href="#C" transform="translate(52.293) scale(.01333)"/>
        <use xlink:href="#K" transform="translate(61.467) scale(.01333)"/>
        <use xlink:href="#F" transform="translate(70.987) scale(.01333)"/>
      </g>
      <g id="u">
        <use xlink:href="#T" transform="scale(.01333)"/>
        <use xlink:href="#R" transform="translate(4.133) scale(.01333)"/>
        <use xlink:href="#C" transform="translate(13.64) scale(.01333)"/>
        <use xlink:href="#J" transform="translate(22.813) scale(.01333)"/>
        <use xlink:href="#R" transform="translate(31.027) scale(.01333)"/>
        <use xlink:href="#P" transform="translate(40.533) scale(.01333)"/>
        <use xlink:href="#K" transform="translate(44.2) scale(.01333)"/>
        <use xlink:href="#O" transform="translate(53.72) scale(.01333)"/>
        <use xlink:href="#N" transform="translate(63.64) scale(.01333)"/>
        <use xlink:href="#D" transform="translate(72.267) scale(.01333)"/>
        <use xlink:href="#U" transform="translate(80.267) scale(.01333)"/>
        <use xlink:href="#I" transform="translate(87.427) scale(.01333)"/>
        <use xlink:href="#C" transform="translate(98.747) scale(.01333)"/>
        <use xlink:href="#G" transform="translate(107.92) scale(.01333)"/>
        <use xlink:href="#C" transform="translate(117.453) scale(.01333)"/>
        <use xlink:href="#V" transform="translate(126.627) scale(.01333)"/>
        <use xlink:href="#F" transform="translate(136.613) scale(.01333)"/>
        <use xlink:href="#L" transform="translate(144.133) scale(.01333)"/>
        <use xlink:href="#W" transform="translate(153.453) scale(.01333)"/>
      </g>
      <g id="v">
        <use xlink:href="#J" transform="scale(.01111)"/>
        <use xlink:href="#F" transform="translate(6.844) scale(.01111)"/>
        <use xlink:href="#K" transform="translate(12.778) scale(.01111)"/>
        <use xlink:href="#N" transform="translate(20.711) scale(.01111)"/>
        <use xlink:href="#F" transform="translate(27.9) scale(.01111)"/>
        <use xlink:href="#M" transform="translate(34.167) scale(.01111)"/>
      </g>
      <g id="w">
        <use xlink:href="#I" transform="scale(.01111)"/>
        <use xlink:href="#O" transform="translate(9.433) scale(.01111)"/>
        <use xlink:href="#Q" transform="translate(17.7) scale(.01111)"/>
        <use xlink:href="#G" transform="translate(25.456) scale(.01111)"/>
        <use xlink:href="#M" transform="translate(33.4) scale(.01111)"/>
      </g>
      <g id="z">
        <use xlink:href="#I" transform="scale(.01111)"/>
        <use xlink:href="#C" transform="translate(9.433) scale(.01111)"/>
        <use xlink:href="#K" transform="translate(17.078) scale(.01111)"/>
        <use xlink:href="#R" transform="translate(25.011) scale(.01111)"/>
        <use xlink:href="#P" transform="translate(32.933) scale(.01111)"/>
        <use xlink:href="#G" transform="translate(35.989) scale(.01111)"/>
        <use xlink:href="#F" transform="translate(43.933) scale(.01111)"/>
      </g>
      <g id="A">
        <use xlink:href="#C" transform="scale(.01111)"/>
        <use xlink:href="#Q" transform="translate(7.644) scale(.01111)"/>
        <use xlink:href="#M" transform="translate(15.4) scale(.01111)"/>
        <use xlink:href="#R" transform="translate(21.967) scale(.01111)"/>
      </g>
      <g id="B">
        <use xlink:href="#G" transform="scale(.01111)"/>
        <use xlink:href="#C" transform="translate(7.944) scale(.01111)"/>
        <use xlink:href="#I" transform="translate(15.589) scale(.01111)"/>
        <use xlink:href="#F" transform="translate(25.022) scale(.01111)"/>
        <use xlink:href="#J" transform="translate(31.178) scale(.01111)"/>
        <use xlink:href="#D" transform="translate(38.022) scale(.01111)"/>
        <use xlink:href="#C" transform="translate(43.578) scale(.01111)"/>
        <use xlink:href="#K" transform="translate(51.222) scale(.01111)"/>
        <use xlink:href="#F" transform="translate(59.156) scale(.01111)"/>
      </g>
      <use xlink:href="#C" id="g" transform="scale(.01333)"/>
      <use xlink:href="#X" id="k" transform="scale(.01333)"/>
      <use xlink:href="#Y" id="x" transform="scale(.01111)"/>
      <use xlink:href="#Z" id="y" transform="scale(.01111)"/>
    </defs>
  </g>
</svg>
