<svg xmlns="http://www.w3.org/2000/svg" xmlns:lucid="lucid" xmlns:xlink="http://www.w3.org/1999/xlink" width="986.36" height="841.39">
  <defs>
    <path id="n" fill="#ffec6e" stroke="#000" stroke-opacity="0" d="M-66.75 1068.45h-43.97c-1.35 0-2.02.68-2.02 2.02v43.97c0 1.34.67 2 2.02 2h43.97c1.34 0 2-.66 2-2v-43.97c0-1.34-.66-2.02-2-2.02z"/>
    <path id="o" stroke="#000" stroke-opacity="0" d="M-99.54 1084.34c-.33-.24-.8-.14-1.05.2-.23.33-.2.76.15 1l3.7 2.64-3.7 2.64c-.34.3-.38.72-.14 1.06.24.33.72.43 1.06.2l4.5-3.27.16-.14c.24-.33.2-.8-.15-1.05l-4.5-3.26zm8.55 3.12a.71.71 0 0 0-.72.72c0 .43.3.77.72.77h9.5c.44 0 .78-.34.78-.77 0-.38-.34-.72-.77-.72H-91zm-3.74 5.76c0-.43.34-.77.77-.77h12.48c.44 0 .78.34.78.77 0 .4-.34.72-.77.72h-12.47c-.43 0-.77-.33-.77-.72zm.77 4.23c-.43 0-.77.33-.77.76 0 .4.34.73.77.73h12.48c.44 0 .78-.33.78-.72 0-.42-.34-.75-.77-.75h-12.47z"/>
    <path id="p" fill="#fff" fill-opacity="0" d="M-144.7 1122.95a6 6 0 0 1 6-6h95.8a6 6 0 0 1 6 6v9.5a6 6 0 0 1-6 6h-95.8a6 6 0 0 1-6-6z"/>
    <path id="q" fill="#fff" fill-opacity="0" d="M-271.95 1122.95a6 6 0 0 1 6-6h75.86a6 6 0 0 1 6 6v9a6 6 0 0 1-6 6h-75.85a6 6 0 0 1-6-6z"/>
    <path id="t" fill="#ffec6e" stroke="#000" stroke-opacity="0" d="M-252.02 1070.95a2 2 0 0 1 2-2h44a2 2 0 0 1 2 2v44a2 2 0 0 1-2 2h-44a2 2 0 0 1-2-2z"/>
    <path id="u" fill="#1d1e1f" stroke="#000" stroke-opacity="0" d="M-225.15 1082.22c-3.8-.86-7.57.48-10 3.17-.28.3-.24.78.07 1.06.3.27.76.25 1.05-.06 2.2-2.47 5.3-3.45 8.55-2.73 1.86.44 3.35 1.3 4.62 2.73.28.3.74.33 1.05.06.3-.28.34-.74.05-1.07-1.5-1.7-3.2-2.7-5.4-3.18zm-10.06 5.85h-.02c.2-.35.07-.8-.3-1a.72.72 0 0 0-1 .3c-.5.88-.8 1.67-1 2.63-.47 2.05-.9 3.08-1.35 3.85-.2.38-.06.82.3 1.04.36.18.82.05 1-.32.54-.93 1.02-2.1 1.5-4.25.18-.8.48-1.56.85-2.26zm16.83-.7c-.2-.38-.63-.5-1-.3-.38.2-.5.65-.3 1 1.06 1.98 1.34 4 .84 6.2-.37 1.7-.83 3.25-1.38 4.75-.14.4.06.8.45.94.37.16.8-.04.96-.4.58-1.6 1.04-3.22 1.44-4.96.6-2.57.26-4.93-1-7.23zm-7.98.17c-2.6-.6-5.2 1.03-5.8 3.65-.24 1.05-.48 1.93-.83 2.94-.13.4.08.8.48.94.37.16.8-.06.94-.46.37-1.05.63-1.98.87-3.1.4-1.8 2.2-2.92 4.02-2.5 1.16.26 2 1 2.4 2.13.16.4.57.6.97.46.38-.12.58-.56.45-.94-.57-1.62-1.82-2.75-3.5-3.12zm3.65 5.8c.1-.4-.16-.8-.57-.9-.4-.08-.8.18-.9.58-.7 3.07-1.55 5.47-2.8 7.76-.4.68-.8 1.34-1.24 2-.23.35-.15.8.18 1.03.33.25.8.16 1.03-.16.5-.73.9-1.37 1.34-2.14 1.34-2.44 2.24-5 2.96-8.15zm-10.13 4.18c.2-.37.07-.8-.28-1.03-.4-.2-.85-.08-1.04.3-.48.88-1.08 1.73-1.88 2.75-.24.33-.2.8.13 1.05.34.27.82.2 1.06-.13.83-1.06 1.46-1.98 2-2.95zm5.23-12.1c.06.38-.22.76-.64.82-2.58.36-4.55 2.16-5.1 4.7-.58 2.43-1.15 3.94-1.88 5.24-.37.66-.72 1.2-1.18 1.83-.24.34-.7.4-1.02.16-.35-.24-.42-.7-.18-1.06.44-.6.8-1.12 1.07-1.64.64-1.15 1.18-2.5 1.7-4.86.73-3.17 3.18-5.4 6.4-5.85.4-.05.78.24.83.66zm.96.03c.1-.4.48-.66.9-.57 4.1.92 6.63 5 5.7 9.08-.2.92-.4 1.72-.67 2.62-.12.4-.54.63-.93.5-.4-.1-.63-.52-.53-.92.25-.8.47-1.65.66-2.53.75-3.28-1.3-6.55-4.57-7.3-.42-.1-.66-.48-.57-.88zm4.55 12.95c.4.16.6.6.45.97-.48 1.25-.96 2.3-1.62 3.45-.22.35-.68.5-1.03.27a.737.737 0 0 1-.28-1c.6-1.1 1.07-2.1 1.53-3.26.15-.4.6-.6.96-.44zm-4.87-8.2c-.68-.15-1.33.02-1.86.48-.32.3-.35.77-.06 1.08.27.3.75.33 1.06.05.26-.2.63-.2.87.05.13.15.2.35.16.55-.47 1.98-.98 3.58-1.6 5.03-.14.38.03.8.4.97.38.18.8 0 1-.37.65-1.56 1.17-3.25 1.63-5.28.26-1.14-.44-2.3-1.6-2.55zm-1.5 3.63c.12-.4-.12-.8-.5-.92-.4-.1-.82.14-.93.53-.52 1.9-1.1 3.35-1.86 4.7-.55 1-1.22 2-2.06 3.04-.26.33-.2.82.14 1.06.33.26.78.2 1.05-.13.87-1.13 1.57-2.16 2.18-3.26.8-1.45 1.45-3.03 2-5zm.4 6.33c.23-.35.1-.8-.28-1-.35-.2-.8-.08-1.02.28a21.45 21.45 0 0 1-1.86 2.85c-.24.32-.18.8.15 1.03.33.26.8.2 1.05-.13.77-1.02 1.36-1.92 1.97-3.04z"/>
  </defs>
  <g lucid:page-tab-id="0_0" transform="translate(641 -866)">
    <path fill="#fff" d="M-768 0H800v2768H-768z"/>
    <path fill="#fff" d="M-640 882a2 2 0 0 1 2-2h980.36a2 2 0 0 1 2 2v822.4a2 2 0 0 1-2 2H-638a2 2 0 0 1-2-2z"/>
    <path fill="none" stroke="#000" stroke-width="2" d="M-628.04 880h4m7.96 0h3.98m7.97 0h4m7.96 0h4m7.95 0h4m7.96 0h4m7.96 0h3.98m7.97 0h4m7.96 0h4m7.96 0h4m7.96 0h3.98m7.98 0h3.98m7.97 0h4m7.96 0h3.97m7.97 0h4m7.96 0h3.98m7.97 0h4m7.96 0h4m7.96 0h4m7.96 0h4m7.95 0h4m7.96 0h4m7.96 0h3.97m7.97 0h4m7.96 0h3.98m7.97 0h4m7.96 0h4m7.96 0h4m7.96 0h3.98m7.98 0h3.98m7.97 0h4m7.96 0h3.97m7.97 0h4m7.96 0h3.98m7.97 0h4m7.96 0h4m7.96 0h4m7.96 0h4m7.96 0h3.98m7.97 0h4m7.96 0h3.97m7.97 0h4m7.96 0h3.98m7.97 0h4m7.96 0h4m7.97 0h3.98m7.97 0h4m7.96 0h3.98m7.97 0h4m7.96 0h3.97m7.97 0h4m7.96 0h3.98m7.97 0h4m7.96 0h4m7.97 0h3.98m7.97 0h4m7.96 0h3.98m7.97 0h4m7.96 0h3.97m7.97 0h4m7.96 0h3.98m7.97 0h4m7.96 0h4m7.97 0h3.98m7.97 0h4m7.96 0h3.98m7.97 0h4m7.96 0h3.97m7.97 0h4m7.96 0h3.98m7.97 0h4m7.96 0h4m7.97 0h3.98m7.97 0h4m7.96 0h3.98m7.97 0h4m7.96 0h3.97m7.97 0h4m7.96 0h4m7.95 0h4m7.96 0h4m7.97 0h2l.3.02.3.08.3.12.26.16.24.2.2.24.17.27.12.28.07.3.03.32v2m0 7.93v3.98m0 7.95v3.97m0 7.95v3.97m0 7.95v3.96m0 7.95v3.98m0 7.95v3.97m0 7.95v3.97m0 7.94v3.98m0 7.94v3.98m0 7.94v3.97m0 7.95v3.97m0 7.94v3.97m0 7.96v3.97m0 7.95v3.97m0 7.95v3.97m0 7.94v4m0 7.93v3.97m0 7.95v3.97m0 7.95v3.97m0 7.95v3.96m0 7.95v3.98m0 7.95v3.97m0 7.94v3.98m0 7.94v3.98m0 7.94v3.97m0 7.95v3.97m0 7.95v3.97m0 7.94v3.97m0 7.96v3.97m0 7.95v3.97m0 7.94v3.97m0 7.94v4m0 7.93v3.98m0 7.95v3.97m0 7.95v3.97m0 7.95v3.96m0 7.95v3.98m0 7.95v3.97m0 7.94v3.98m0 7.94v3.98m0 7.94v3.97m0 7.95v3.97m0 7.95v3.97m0 7.94v3.97m0 7.96v3.97m0 7.95v3.97m0 7.94v3.97m0 7.94v4m0 7.93v3.98m0 7.95v3.97m0 7.95v3.97m0 7.95v3.96m0 7.95v3.98m0 7.95v3.97m0 7.95v3.97m0 7.94v3.98m0 7.94v3.97m0 7.95v3.97m0 7.95v3.97m0 7.94v3.97m0 7.96v3.97m0 7.95v3.97m0 7.94v3.97m0 7.94v4m0 7.93v3.97m0 7.95v3.97m0 7.95v3.97m0 7.95v3.96m0 7.95v2l-.03.3-.07.3-.12.3-.16.27-.2.24-.25.2-.26.18-.3.12-.3.07-.3.02h-2m-7.97 0h-4m-7.96 0h-4m-7.95 0h-4m-7.97 0h-4m-7.96 0h-3.98m-7.98 0h-4m-7.96 0h-3.98m-7.97 0h-3.98m-7.97 0h-3.98m-7.97 0h-4m-7.96 0h-4m-7.96 0h-3.98m-7.97 0h-4m-7.96 0H173m-7.98 0h-4m-7.96 0h-3.98m-7.97 0h-3.98m-7.97 0h-3.98m-7.98 0h-4m-7.96 0h-4m-7.96 0H89.3m-7.97 0h-4m-7.96 0H65.4m-7.98 0h-4m-7.96 0h-3.98m-7.97 0h-3.98m-7.97 0h-3.98m-7.97 0h-4m-7.96 0h-4m-7.96 0h-3.98m-7.97 0h-4m-7.96 0h-3.98m-7.98 0h-4m-7.96 0h-3.98m-7.97 0h-3.98m-7.97 0h-3.98m-7.98 0h-4m-7.96 0h-4m-7.96 0h-3.98m-7.97 0h-4m-7.96 0h-3.98m-7.98 0h-4m-7.96 0h-3.98m-7.97 0h-3.98m-7.97 0h-4m-7.96 0h-4m-7.96 0h-4m-7.96 0h-3.98m-7.97 0h-4m-7.96 0h-3.98m-7.98 0h-4m-7.96 0h-4m-7.96 0h-3.98m-7.97 0h-4m-7.96 0h-4m-7.96 0h-4m-7.96 0h-3.98m-7.97 0h-4m-7.96 0H-365m-7.98 0h-4m-7.96 0h-4m-7.95 0h-3.98m-7.97 0h-4m-7.96 0h-4m-7.96 0h-4m-7.96 0h-3.98m-7.97 0h-4m-7.96 0h-3.98m-7.98 0h-4m-7.96 0h-3.98m-7.98 0h-3.98m-7.97 0h-4m-7.96 0h-4m-7.96 0h-4m-7.96 0h-3.98m-7.97 0h-4m-7.96 0h-4m-7.95 0h-4m-7.96 0h-4m-7.96 0h-3.98m-7.97 0h-4m-7.96 0h-2l-.3-.03-.32-.07-.3-.12-.26-.17-.23-.2-.22-.23-.16-.27-.12-.3-.08-.3-.02-.3v-2m0-7.94v-3.97m0-7.96v-3.97m0-7.95v-3.97m0-7.95v-3.97m0-7.94v-4m0-7.93v-3.97m0-7.95V1619m0-7.95v-3.97m0-7.95v-3.96m0-7.95v-3.98m0-7.95v-3.97m0-7.94v-3.98m0-7.94v-3.98m0-7.94v-3.97m0-7.95v-3.97m0-7.95v-3.97m0-7.94v-3.97m0-7.96v-3.97m0-7.95v-3.97m0-7.94v-3.97m0-7.94v-4m0-7.93v-3.98m0-7.95v-3.97m0-7.95v-3.97m0-7.95v-3.96m0-7.95v-3.98m0-7.95v-3.97m0-7.94v-3.98m0-7.94v-3.98m0-7.94v-3.97m0-7.95v-3.97m0-7.95V1321m0-7.94v-3.97m0-7.96v-3.97m0-7.95v-3.97m0-7.94v-3.97m0-7.94v-4m0-7.93v-3.98m0-7.95v-3.97m0-7.95v-3.97m0-7.95v-3.96m0-7.95v-3.98m0-7.95v-3.97m0-7.95v-3.97m0-7.94v-3.98m0-7.94v-3.97m0-7.95v-3.97m0-7.95v-3.97m0-7.94v-3.97m0-7.96v-3.97m0-7.95v-3.97m0-7.94v-3.97m0-7.94v-4m0-7.93v-3.97m0-7.95v-3.97m0-7.95v-3.97m0-7.95v-3.96m0-7.95v-3.98m0-7.95v-3.97m0-7.95v-3.97m0-7.94v-3.98m0-7.94v-3.97m0-7.95v-3.97m0-7.95v-3.97m0-7.94v-3.97m0-7.96v-3.97m0-7.95v-3.97m0-7.95v-3.97m0-7.94v-2l.02-.3.08-.32.12-.3.16-.26.2-.23.24-.22.27-.16.28-.12.3-.08.32-.02h2"/>
    <path fill="#fff" stroke="#6f7681" stroke-width="2" d="M-592.5 1023.45a2 2 0 0 1 2-2h884.86a2 2 0 0 1 2 2v632.94a2 2 0 0 1-2 2H-590.5a2 2 0 0 1-2-2z"/>
    <path fill="#fff" stroke="#979ea8" stroke-width="2" d="M-545.93 1187.95a2 2 0 0 1 2-2h369.14a2 2 0 0 1 2 2v420.44a2 2 0 0 1-2 2h-369.13a2 2 0 0 1-2-2z"/>
    <path fill="#fff" stroke="#000" stroke-opacity="0" stroke-width="2" d="M-537.93 1173.45a2 2 0 0 1 2-2h156a2 2 0 0 1 2 2v17a2 2 0 0 1-2 2h-156a2 2 0 0 1-2-2z"/>
    <use xlink:href="#a" transform="translate(-530.997 1189.787)"/>
    <use xlink:href="#b" transform="translate(-476.277 1189.787)"/>
    <use xlink:href="#c" transform="translate(-463.37 1189.787)"/>
    <path fill="#fff" stroke="#000" stroke-opacity="0" stroke-width="2" d="M-584.22 1008.45a2 2 0 0 1 2-2h134.83a2 2 0 0 1 2 2v17a2 2 0 0 1-2 2H-582.2a2 2 0 0 1-2-2z"/>
    <use xlink:href="#d" transform="translate(-577.348 1024.787)"/>
    <use xlink:href="#e" transform="translate(-530.601 1024.787)"/>
    <path fill="#fff" stroke="#000" stroke-opacity="0" stroke-width="2" d="M-635.54 868a2 2 0 0 1 2-2H-506a2 2 0 0 1 2 2v17a2 2 0 0 1-2 2h-127.54a2 2 0 0 1-2-2z"/>
    <use xlink:href="#f" transform="translate(-628.096 884.333)"/>
    <use xlink:href="#e" transform="translate(-589.483 884.333)"/>
    <path fill="#fff" stroke="#979ea8" stroke-width="2" d="M-124.8 1187.95a2 2 0 0 1 2-2h369.16a2 2 0 0 1 2 2v420.44a2 2 0 0 1-2 2H-122.8a2 2 0 0 1-2-2z"/>
    <path fill="#ffec6e" stroke="#000" stroke-opacity="0" d="M160.34 1227.9h-43.97c-1.34 0-2 .66-2 2v43.98c0 1.34.66 2 2 2h43.97c1.34 0 2.02-.66 2.02-2v-43.97c0-1.34-.68-2-2.02-2z"/>
    <path stroke="#000" stroke-opacity="0" d="M127.56 1243.78c-.34-.24-.82-.14-1.06.2-.24.33-.2.76.14 1l3.7 2.64-3.7 2.64c-.33.3-.38.72-.14 1.06.24.33.72.43 1.06.2l4.5-3.28c.06-.04.1-.1.15-.14.25-.34.2-.82-.13-1.06l-4.5-3.26zm8.54 3.12a.71.71 0 0 0-.72.72c0 .43.3.77.72.77h9.5c.44 0 .77-.35.77-.78 0-.38-.33-.72-.77-.72h-9.5zm-3.74 5.76c0-.43.33-.77.76-.77h12.48c.44 0 .77.33.77.76 0 .38-.33.72-.77.72h-12.48c-.43 0-.76-.34-.76-.72zm.76 4.22c-.43 0-.76.34-.76.77 0 .4.33.72.76.72h12.48c.44 0 .77-.33.77-.72 0-.43-.33-.77-.77-.77h-12.48z"/>
    <path fill="#fff" fill-opacity="0" d="M72.65 1281.9a6 6 0 0 1 6-6h119.4a6 6 0 0 1 6 6v16a6 6 0 0 1-6 6H78.66a6 6 0 0 1-6-6z"/>
    <use xlink:href="#g" transform="translate(80.636 1294.254)"/>
    <use xlink:href="#h" transform="translate(148.947 1294.254)"/>
    <path fill="#fff" stroke="#000" stroke-opacity="0" stroke-width="2" d="M-117.74 1174a2 2 0 0 1 2-2h156a2 2 0 0 1 2 2v17a2 2 0 0 1-2 2h-156a2 2 0 0 1-2-2z"/>
    <use xlink:href="#i" transform="translate(-110.239 1190.333)"/>
    <use xlink:href="#j" transform="translate(-55.519 1190.333)"/>
    <use xlink:href="#k" transform="translate(-43.746 1190.333)"/>
    <path fill="#ffec6e" stroke="#000" stroke-opacity="0" d="M-419.86 1227.9h-43.97c-1.34 0-2.02.66-2.02 2v43.98c0 1.34.68 2 2.02 2h43.97c1.34 0 2-.66 2-2v-43.97c0-1.34-.66-2-2-2z"/>
    <path stroke="#000" stroke-opacity="0" d="M-452.65 1243.78c-.33-.24-.8-.14-1.05.2-.24.33-.2.76.14 1l3.7 2.64-3.7 2.64c-.33.3-.38.72-.14 1.06.24.33.72.43 1.05.2l4.52-3.28.14-.14c.25-.34.2-.82-.13-1.06l-4.52-3.26zm8.55 3.12a.71.71 0 0 0-.72.72c0 .43.3.77.72.77h9.5c.43 0 .77-.35.77-.78 0-.38-.34-.72-.77-.72h-9.5zm-3.75 5.76c0-.43.34-.77.77-.77h12.48c.43 0 .77.33.77.76 0 .38-.34.72-.77.72h-12.48c-.43 0-.77-.34-.77-.72zm.77 4.22c-.43 0-.77.34-.77.77 0 .4.34.72.77.72h12.48c.43 0 .77-.33.77-.72 0-.43-.34-.77-.77-.77h-12.48z"/>
    <path fill="#fff" fill-opacity="0" d="M-499.7 1281.9a6 6 0 0 1 6-6h99.2a6 6 0 0 1 6 6v16a6 6 0 0 1-6 6h-99.2a6 6 0 0 1-6-6z"/>
    <use xlink:href="#l" transform="translate(-490.35 1294.254)"/>
    <use xlink:href="#m" transform="translate(-444.75 1294.254)"/>
    <use xlink:href="#n" stroke-opacity="0"/>
    <use xlink:href="#o" stroke-opacity="0"/>
    <use xlink:href="#p" fill-opacity="0"/>
    <use xlink:href="#l" transform="translate(-137.36 1133.06)"/>
    <use xlink:href="#m" transform="translate(-91.76 1133.06)"/>
    <use xlink:href="#q" fill-opacity="0"/>
    <use xlink:href="#r" transform="translate(-264.798 1133.06)"/>
    <use xlink:href="#s" transform="translate(-220.987 1133.06)"/>
    <use xlink:href="#t" stroke-opacity="0"/>
    <use xlink:href="#u" stroke-opacity="0"/>
    <path fill="#fff" fill-opacity="0" d="M-227.83 982.5a6 6 0 0 1 6-6h134.8a6 6 0 0 1 6 6v9a6 6 0 0 1-6 6h-134.8a6 6 0 0 1-6-6z"/>
    <use xlink:href="#v" transform="translate(-217.41 992.607)"/>
    <use xlink:href="#w" transform="translate(-181.631 992.607)"/>
    <use xlink:href="#x" transform="translate(-121.131 992.607)"/>
    <path fill="#ffec6e" stroke="#000" stroke-opacity="0" d="M-178.43 930.5a2 2 0 0 1 2-2h44a2 2 0 0 1 2 2v44a2 2 0 0 1-2 2h-44a2 2 0 0 1-2-2z"/>
    <path fill="#1d1e1f" stroke="#000" stroke-opacity="0" d="M-151.56 941.77c-3.8-.86-7.57.48-10 3.16-.3.3-.24.8.06 1.08.3.27.77.25 1.05-.06 2.2-2.46 5.32-3.45 8.56-2.72 1.87.44 3.35 1.3 4.62 2.72.3.3.75.33 1.05.07.3-.28.35-.74.07-1.07-1.5-1.67-3.22-2.68-5.4-3.16zm-10.07 5.85c.2-.36.07-.8-.3-1.02-.35-.2-.8-.06-1 .3-.5.9-.8 1.68-1.02 2.65-.46 2.05-.9 3.08-1.33 3.85-.2.37-.07.8.3 1.03.35.2.8.07 1-.3.54-.93 1.02-2.1 1.5-4.25.17-.8.48-1.56.85-2.26zm16.85-.7a.74.74 0 0 0-1-.32c-.38.2-.5.66-.32 1 1.08 2 1.36 4.02.86 6.22-.37 1.7-.83 3.25-1.38 4.74-.13.4.06.82.46.95.37.16.8-.03.96-.4.57-1.6 1.03-3.22 1.42-4.96.6-2.57.27-4.92-1-7.23zm-8 .17c-2.6-.6-5.2 1.02-5.78 3.64-.25 1.05-.5 1.93-.84 2.94-.13.4.1.82.5.95.36.15.8-.07.93-.46.37-1.06.63-1.98.87-3.1.4-1.8 2.2-2.93 4-2.5 1.16.25 2.02 1 2.4 2.12.16.4.58.6.97.45.4-.13.6-.57.46-.94-.57-1.62-1.8-2.74-3.5-3.1zm3.66 5.8c.1-.4-.15-.82-.56-.9-.4-.1-.8.17-.9.56-.7 3.08-1.55 5.48-2.8 7.76-.4.68-.8 1.34-1.25 2-.22.36-.13.8.2 1.04s.8.15 1.03-.18c.5-.72.9-1.36 1.33-2.13 1.34-2.44 2.23-5 2.95-8.16zm-10.12 4.17c.2-.37.06-.8-.3-1.03a.747.747 0 0 0-1.02.3c-.48.88-1.07 1.74-1.88 2.75-.24.32-.2.8.13 1.05.32.26.8.2 1.04-.13.84-1.06 1.47-1.98 2.02-2.95zm5.23-12.12c.05.4-.23.77-.65.84-2.58.34-4.55 2.15-5.12 4.67-.57 2.44-1.14 3.96-1.86 5.26-.37.66-.72 1.2-1.18 1.82-.25.33-.7.4-1.04.16-.35-.24-.4-.7-.17-1.05.43-.6.78-1.12 1.06-1.65.63-1.14 1.18-2.5 1.7-4.86.73-3.16 3.18-5.4 6.4-5.85.4-.05.78.24.83.66zm.95.05c.1-.42.48-.66.9-.57 4.1.92 6.62 5 5.7 9.08-.2.93-.4 1.72-.67 2.62-.1.4-.53.64-.92.5a.72.72 0 0 1-.53-.9c.24-.83.46-1.66.66-2.54.73-3.28-1.32-6.55-4.58-7.3a.74.74 0 0 1-.57-.88zm4.55 12.95c.4.15.6.6.44.97-.5 1.25-.97 2.28-1.62 3.45-.22.35-.68.48-1.03.26-.36-.2-.5-.64-.3-1 .62-1.1 1.08-2.08 1.53-3.24.16-.4.6-.6.97-.45zm-4.88-8.2c-.68-.16-1.34.02-1.86.48-.33.3-.35.77-.06 1.08.26.32.74.34 1.05.05.26-.22.63-.2.87.05.13.15.2.35.15.55-.46 1.97-.96 3.58-1.57 5.03-.16.38.02.8.4.97.36.17.8 0 .98-.38.65-1.56 1.18-3.25 1.64-5.27.26-1.14-.44-2.3-1.6-2.55zm-1.5 3.63c.12-.4-.12-.82-.5-.93a.77.77 0 0 0-.93.53c-.54 1.9-1.13 3.34-1.87 4.68-.55 1-1.23 2-2.06 3.06-.26.33-.2.8.13 1.05.33.27.8.2 1.05-.13a25.17 25.17 0 0 0 2.2-3.25c.8-1.46 1.44-3.05 1.98-5.02zm.4 6.33a.7.7 0 0 0-.28-1c-.35-.2-.8-.07-1.03.28-.55 1.06-1.12 1.9-1.85 2.86-.24.33-.17.8.16 1.03.34.27.8.2 1.06-.13.76-1 1.35-1.9 1.97-3.03z"/>
    <path fill="#ffec6e" stroke="#000" stroke-opacity="0" d="M-260.8 1227.9h-43.97c-1.35 0-2.02.66-2.02 2v43.98c0 1.34.68 2 2.03 2h43.97c1.34 0 2-.66 2-2v-43.97c0-1.34-.66-2-2-2z"/>
    <path stroke="#000" stroke-opacity="0" d="M-293.6 1243.78c-.32-.24-.8-.14-1.04.2-.24.33-.2.76.14 1l3.7 2.64-3.7 2.64c-.34.3-.38.72-.14 1.06.24.33.72.43 1.05.2l4.52-3.28.15-.14c.24-.34.2-.82-.15-1.06l-4.5-3.26zm8.56 3.12c-.44 0-.72.34-.72.72 0 .43.28.77.72.77h9.5c.43 0 .77-.35.77-.78 0-.38-.34-.72-.77-.72h-9.5zm-3.75 5.76c0-.43.35-.77.78-.77h12.48c.43 0 .77.33.77.76 0 .38-.34.72-.77.72h-12.48c-.43 0-.77-.34-.77-.72zm.78 4.22c-.43 0-.77.34-.77.77 0 .4.35.72.78.72h12.48c.43 0 .77-.33.77-.72 0-.43-.34-.77-.77-.77H-288z"/>
    <path fill="#fff" fill-opacity="0" d="M-348.5 1281.9a6 6 0 0 1 6-6h119.42a6 6 0 0 1 6 6v16a6 6 0 0 1-6 6H-342.5a6 6 0 0 1-6-6z"/>
    <use xlink:href="#y" transform="translate(-340.508 1294.254)"/>
    <use xlink:href="#m" transform="translate(-272.197 1294.254)"/>
    <path fill="#ffec6e" stroke="#000" stroke-opacity="0" d="M-420.86 1351.9h-43.97c-1.34 0-2.02.66-2.02 2v43.98c0 1.34.68 2 2.02 2h43.97c1.34 0 2-.66 2-2v-43.97c0-1.34-.66-2-2-2z"/>
    <path stroke="#000" stroke-opacity="0" d="M-442.85 1380.16c.44 0 .77.34.77.72v2.02c0 .38-.33.72-.77.72-.43 0-.76-.34-.76-.72v-2.02c0-.38.32-.72.75-.72z"/>
    <path stroke="#000" stroke-opacity="0" d="M-448.85 1373.97v-3.3c0-1.55.63-3.03 1.78-4.1 1.2-1.14 2.6-1.67 4.22-1.67 1.6 0 3.12.58 4.23 1.68 1.15 1.1 1.77 2.45 1.77 4.08v3.3c1.2.4 2.02 1.45 2.02 2.7v7.5c0 1.52-1.25 2.72-2.78 2.72h-10.48c-1.53 0-2.78-1.2-2.78-2.73v-7.5c0-1.24.8-2.3 2-2.68zm2.8-6.33c.9-.82 1.96-1.25 3.2-1.25 1.2 0 2.36.47 3.22 1.24.82.8 1.3 1.87 1.3 3.02v3.22h-9.03v-3.22c0-1.15.48-2.2 1.3-3.02zm8.44 7.77h-10.48c-.72 0-1.25.54-1.25 1.26v7.5c0 .66.53 1.24 1.25 1.24h10.47c.7 0 1.23-.58 1.23-1.25v-7.5c0-.7-.52-1.24-1.24-1.24z"/>
    <path fill="#fff" fill-opacity="0" d="M-484.35 1405.9a6 6 0 0 1 6-6h73a6 6 0 0 1 6 6v21.1a6 6 0 0 1-6 6h-73a6 6 0 0 1-6-6z"/>
    <use xlink:href="#z" transform="translate(-461.99 1416.004)"/>
    <use xlink:href="#A" transform="translate(-466.235 1429.337)"/>
    <use xlink:href="#B" transform="translate(-423.602 1429.337)"/>
    <path fill="#ffec6e" stroke="#000" stroke-opacity="0" d="M-309.3 1483.02a2 2 0 0 1 2-2h44a2 2 0 0 1 2 2v44a2 2 0 0 1-2 2h-44a2 2 0 0 1-2-2z"/>
    <path fill="#fff" fill-opacity="0" d="M-325.3 1535.02a6 6 0 0 1 6-6h73a6 6 0 0 1 6 6v21.37a6 6 0 0 1-6 6h-73a6 6 0 0 1-6-6z"/>
    <use xlink:href="#C" transform="translate(-307.777 1545.129)"/>
    <use xlink:href="#D" transform="translate(-302.277 1558.462)"/>
    <use xlink:href="#E" transform="translate(-269.277 1558.462)"/>
    <path fill="#1d1e1f" stroke="#000" stroke-opacity="0" d="M-280.75 1501.12c.3.28.3.76 0 1.06l-5.5 5.5c-.3.28-.78.28-1.07 0l-2.5-2.5c-.3-.3-.33-.77-.04-1.07.3-.3.76-.3 1.06 0h.04l1.98 1.98 4.97-4.96c.28-.3.74-.3 1.05 0z"/>
    <path fill="#1d1e1f" stroke="#000" stroke-opacity="0" d="M-286.5 1494.2a2.65 2.65 0 0 1 1.92 0l6.26 2.34c1.1.4 1.78 1.4 1.78 2.57v5.8c0 2.74-1.46 5.03-3.1 6.76-1.65 1.76-3.56 3-4.66 3.66-.8.46-1.7.46-2.48 0-1.1-.65-3-1.9-4.66-3.66-1.64-1.73-3.1-4.02-3.1-6.77v-5.8c0-1.16.7-2.15 1.78-2.56l6.27-2.34zm1.4 1.4c-.3-.1-.58-.1-.87 0l-6.25 2.34c-.5.2-.82.63-.82 1.17v5.8c0 2.17 1.17 4.14 2.7 5.75 1.5 1.6 3.3 2.77 4.32 3.37.3.17.66.17.97 0 1.02-.6 2.8-1.77 4.32-3.37 1.5-1.6 2.7-3.58 2.7-5.76v-5.8c0-.53-.33-.96-.83-1.16l-6.25-2.34z"/>
    <path fill="#ffec6e" stroke="#000" stroke-opacity="0" d="M-420.86 1481.02h-43.97c-1.34 0-2.02.67-2.02 2V1527c0 1.35.68 2.02 2.02 2.02h43.97c1.34 0 2-.67 2-2.02v-43.97c0-1.34-.66-2-2-2z"/>
    <path stroke="#000" stroke-opacity="0" d="M-442.85 1509.3c.44 0 .77.33.77.7v2.03c0 .38-.33.7-.77.7-.43 0-.76-.32-.76-.7V1510c0-.38.32-.7.75-.7z"/>
    <path stroke="#000" stroke-opacity="0" d="M-448.85 1503.1v-3.3c0-1.55.63-3.04 1.78-4.1 1.2-1.15 2.6-1.67 4.22-1.67 1.6 0 3.12.57 4.23 1.67 1.15 1.1 1.77 2.45 1.77 4.1v3.3c1.2.38 2.02 1.44 2.02 2.7v7.47c0 1.54-1.25 2.74-2.78 2.74h-10.48c-1.53 0-2.78-1.2-2.78-2.73v-7.48c0-1.26.8-2.32 2-2.7zm2.8-6.34c.9-.82 1.96-1.25 3.2-1.25 1.2 0 2.36.5 3.22 1.26.82.82 1.3 1.87 1.3 3.03v3.2h-9.03v-3.2c0-1.17.48-2.22 1.3-3.04zm8.44 7.78h-10.48c-.72 0-1.25.53-1.25 1.25v7.47c0 .67.53 1.25 1.25 1.25h10.47c.7 0 1.23-.58 1.23-1.25v-7.48c0-.73-.52-1.26-1.24-1.26z"/>
    <path fill="#fff" fill-opacity="0" d="M-484.35 1535.02a6 6 0 0 1 6-6h73a6 6 0 0 1 6 6v21.37a6 6 0 0 1-6 6h-73a6 6 0 0 1-6-6z"/>
    <use xlink:href="#z" transform="translate(-461.99 1545.129)"/>
    <use xlink:href="#A" transform="translate(-466.152 1558.462)"/>
    <use xlink:href="#F" transform="translate(-423.519 1558.462)"/>
    <path fill="#ffec6e" stroke="#000" stroke-opacity="0" d="M-309.3 1353.9a2 2 0 0 1 2-2h44a2 2 0 0 1 2 2v44a2 2 0 0 1-2 2h-44a2 2 0 0 1-2-2z"/>
    <path fill="#1d1e1f" stroke="#000" stroke-opacity="0" d="M-280.75 1372c.3.28.3.76 0 1.06l-5.5 5.5c-.3.28-.78.28-1.07 0l-2.5-2.5c-.3-.3-.33-.77-.04-1.08.3-.3.76-.3 1.06-.02l.04.02 1.98 1.97 4.97-4.95c.28-.3.74-.3 1.05 0z"/>
    <path fill="#1d1e1f" stroke="#000" stroke-opacity="0" d="M-286.5 1365.07a2.65 2.65 0 0 1 1.92 0l6.26 2.34c1.1.42 1.78 1.42 1.78 2.58v5.78c0 2.75-1.46 5.05-3.1 6.78-1.65 1.75-3.56 3-4.66 3.65-.8.45-1.7.45-2.48 0-1.1-.65-3-1.9-4.66-3.66-1.64-1.73-3.1-4.03-3.1-6.78v-5.78c0-1.16.7-2.16 1.78-2.57l6.27-2.33zm1.4 1.4c-.3-.1-.58-.1-.87 0l-6.25 2.35c-.5.2-.82.62-.82 1.16v5.78c0 2.2 1.17 4.16 2.7 5.76 1.5 1.6 3.3 2.77 4.32 3.38.3.17.66.17.97 0 1.02-.6 2.8-1.78 4.32-3.38 1.5-1.6 2.7-3.57 2.7-5.76v-5.78c0-.54-.33-.97-.83-1.16l-6.25-2.34z"/>
    <path fill="#fff" fill-opacity="0" d="M-325.3 1405.9a6 6 0 0 1 6-6h73a6 6 0 0 1 6 6v21.1a6 6 0 0 1-6 6h-73a6 6 0 0 1-6-6z"/>
    <use xlink:href="#C" transform="translate(-307.777 1416.004)"/>
    <use xlink:href="#D" transform="translate(-302.36 1429.337)"/>
    <use xlink:href="#G" transform="translate(-269.36 1429.337)"/>
    <path fill="#ffec6e" stroke="#000" stroke-opacity="0" d="M1.28 1227.9H-42.7c-1.33 0-2 .66-2 2v43.98c0 1.34.67 2 2 2h44c1.35 0 2.02-.66 2.02-2v-43.97c0-1.34-.67-2-2.02-2z"/>
    <path stroke="#000" stroke-opacity="0" d="M-31.5 1243.78c-.34-.24-.82-.14-1.06.2-.24.33-.2.76.15 1l3.68 2.64-3.7 2.64c-.33.3-.38.72-.14 1.06.24.33.72.43 1.06.2l4.5-3.28c.06-.04.1-.1.15-.14.24-.34.2-.82-.14-1.06l-4.5-3.26zm8.54 3.12a.71.71 0 0 0-.72.72c0 .43.3.77.72.77h9.5c.44 0 .77-.35.77-.78 0-.38-.32-.72-.75-.72h-9.5zm-3.74 5.76c0-.43.33-.77.77-.77h12.48c.43 0 .76.33.76.76 0 .38-.32.72-.75.72h-12.48c-.44 0-.77-.34-.77-.72zm.77 4.22c-.44 0-.77.34-.77.77 0 .4.33.72.77.72h12.48c.43 0 .76-.33.76-.72 0-.43-.32-.77-.75-.77h-12.48z"/>
    <path fill="#fff" fill-opacity="0" d="M-78.55 1281.9a6 6 0 0 1 6-6h99.2a6 6 0 0 1 6 6v16a6 6 0 0 1-6 6h-99.2a6 6 0 0 1-6-6z"/>
    <use xlink:href="#H" transform="translate(-69.206 1294.254)"/>
    <use xlink:href="#h" transform="translate(-23.606 1294.254)"/>
    <path fill="#ffec6e" stroke="#000" stroke-opacity="0" d="M.28 1351.9H-43.7c-1.33 0-2 .66-2 2v43.98c0 1.34.67 2 2 2h44c1.35 0 2.02-.66 2.02-2v-43.97c0-1.34-.67-2-2.02-2z"/>
    <path stroke="#000" stroke-opacity="0" d="M-21.7 1380.16c.43 0 .77.34.77.72v2.02c0 .38-.34.72-.77.72s-.77-.34-.77-.72v-2.02c0-.38.34-.72.77-.72z"/>
    <path stroke="#000" stroke-opacity="0" d="M-27.7 1373.97v-3.3c0-1.55.62-3.03 1.77-4.1 1.2-1.14 2.6-1.67 4.23-1.67 1.58 0 3.12.58 4.22 1.68 1.15 1.1 1.78 2.45 1.78 4.08v3.3c1.2.4 2 1.45 2 2.7v7.5c0 1.52-1.23 2.72-2.77 2.72h-10.46c-1.54 0-2.8-1.2-2.8-2.73v-7.5c0-1.24.83-2.3 2.03-2.68zm2.78-6.33c.9-.82 1.97-1.25 3.22-1.25 1.2 0 2.35.47 3.2 1.24.83.8 1.3 1.87 1.3 3.02v3.22h-9v-3.22c0-1.15.47-2.2 1.28-3.02zm8.45 7.77h-10.46c-.72 0-1.25.54-1.25 1.26v7.5c0 .66.53 1.24 1.25 1.24h10.46c.72 0 1.25-.58 1.25-1.25v-7.5c0-.7-.53-1.24-1.25-1.24z"/>
    <path fill="#fff" fill-opacity="0" d="M-63.2 1405.9a6 6 0 0 1 6-6h73a6 6 0 0 1 6 6v21.1a6 6 0 0 1-6 6h-73a6 6 0 0 1-6-6z"/>
    <use xlink:href="#I" transform="translate(-40.846 1416.004)"/>
    <use xlink:href="#J" transform="translate(-45.09 1429.337)"/>
    <use xlink:href="#G" transform="translate(-2.457 1429.337)"/>
    <path fill="#ffec6e" stroke="#000" stroke-opacity="0" d="M111.86 1483.02a2 2 0 0 1 2-2h44a2 2 0 0 1 2 2v44a2 2 0 0 1-2 2h-44a2 2 0 0 1-2-2z"/>
    <path fill="#fff" fill-opacity="0" d="M95.86 1535.02a6 6 0 0 1 6-6h73a6 6 0 0 1 6 6v21.37a6 6 0 0 1-6 6h-73a6 6 0 0 1-6-6z"/>
    <use xlink:href="#C" transform="translate(113.367 1545.129)"/>
    <use xlink:href="#D" transform="translate(118.867 1558.462)"/>
    <use xlink:href="#E" transform="translate(151.867 1558.462)"/>
    <path fill="#1d1e1f" stroke="#000" stroke-opacity="0" d="M140.4 1501.12c.28.28.28.76 0 1.06l-5.5 5.5c-.3.28-.8.28-1.08 0l-2.5-2.5c-.3-.3-.32-.77-.03-1.07.27-.3.74-.3 1.05 0h.03l1.98 1.98 4.97-4.96c.3-.3.76-.3 1.06 0z"/>
    <path fill="#1d1e1f" stroke="#000" stroke-opacity="0" d="M134.65 1494.2c.65-.24 1.26-.24 1.9 0l6.27 2.34c1.1.4 1.8 1.4 1.8 2.57v5.8c0 2.74-1.47 5.03-3.1 6.76-1.67 1.76-3.57 3-4.67 3.66-.8.46-1.7.46-2.5 0-1.08-.65-3-1.9-4.65-3.66-1.64-1.73-3.1-4.02-3.1-6.77v-5.8c0-1.16.7-2.15 1.8-2.56l6.25-2.34zm1.4 1.4c-.3-.1-.6-.1-.88 0l-6.24 2.34c-.5.2-.83.63-.83 1.17v5.8c0 2.17 1.17 4.14 2.7 5.75 1.5 1.6 3.3 2.77 4.32 3.37.3.17.67.17.97 0 1.02-.6 2.8-1.77 4.3-3.37 1.52-1.6 2.7-3.58 2.7-5.76v-5.8c0-.53-.3-.96-.82-1.16l-6.24-2.34z"/>
    <path fill="#ffec6e" stroke="#000" stroke-opacity="0" d="M.28 1481.02H-43.7c-1.33 0-2 .67-2 2V1527c0 1.35.67 2.02 2 2.02h44c1.35 0 2.02-.67 2.02-2.02v-43.97c0-1.34-.67-2-2.02-2z"/>
    <path stroke="#000" stroke-opacity="0" d="M-21.7 1509.3c.43 0 .77.33.77.7v2.03c0 .38-.34.7-.77.7s-.77-.32-.77-.7V1510c0-.38.34-.7.77-.7z"/>
    <path stroke="#000" stroke-opacity="0" d="M-27.7 1503.1v-3.3c0-1.55.62-3.04 1.77-4.1 1.2-1.15 2.6-1.67 4.23-1.67 1.58 0 3.12.57 4.22 1.67 1.15 1.1 1.78 2.45 1.78 4.1v3.3c1.2.38 2 1.44 2 2.7v7.47c0 1.54-1.23 2.74-2.77 2.74h-10.46c-1.54 0-2.8-1.2-2.8-2.73v-7.48c0-1.26.83-2.32 2.03-2.7zm2.78-6.34c.9-.82 1.97-1.25 3.22-1.25 1.2 0 2.35.5 3.2 1.26.83.82 1.3 1.87 1.3 3.03v3.2h-9v-3.2c0-1.17.47-2.22 1.28-3.04zm8.45 7.78h-10.46c-.72 0-1.25.53-1.25 1.25v7.47c0 .67.53 1.25 1.25 1.25h10.46c.72 0 1.25-.58 1.25-1.25v-7.48c0-.73-.53-1.26-1.25-1.26z"/>
    <path fill="#fff" fill-opacity="0" d="M-63.2 1535.02a6 6 0 0 1 6-6h73a6 6 0 0 1 6 6v21.37a6 6 0 0 1-6 6h-73a6 6 0 0 1-6-6z"/>
    <use xlink:href="#I" transform="translate(-40.846 1545.129)"/>
    <use xlink:href="#J" transform="translate(-45.007 1558.462)"/>
    <use xlink:href="#E" transform="translate(-2.374 1558.462)"/>
    <path fill="#ffec6e" stroke="#000" stroke-opacity="0" d="M111.86 1353.9a2 2 0 0 1 2-2h44a2 2 0 0 1 2 2v44a2 2 0 0 1-2 2h-44a2 2 0 0 1-2-2z"/>
    <path fill="#1d1e1f" stroke="#000" stroke-opacity="0" d="M140.4 1372c.28.28.28.76 0 1.06l-5.5 5.5c-.3.28-.8.28-1.08 0l-2.5-2.5a.77.77 0 0 1-.03-1.08c.27-.3.74-.3 1.05-.02.02 0 .02.02.03.02l1.98 1.97 4.97-4.95c.3-.3.76-.3 1.06 0z"/>
    <path fill="#1d1e1f" stroke="#000" stroke-opacity="0" d="M134.65 1365.07c.65-.24 1.26-.24 1.9 0l6.27 2.34c1.1.42 1.8 1.42 1.8 2.58v5.78c0 2.75-1.47 5.05-3.1 6.78-1.67 1.75-3.57 3-4.67 3.65-.8.45-1.7.45-2.5 0-1.08-.65-3-1.9-4.65-3.66-1.64-1.73-3.1-4.03-3.1-6.78v-5.78c0-1.16.7-2.16 1.8-2.57l6.25-2.33zm1.4 1.4c-.3-.1-.6-.1-.88 0l-6.24 2.35c-.5.2-.83.62-.83 1.16v5.78c0 2.2 1.17 4.16 2.7 5.76 1.5 1.6 3.3 2.77 4.32 3.38.3.17.67.17.97 0 1.02-.6 2.8-1.78 4.3-3.38 1.52-1.6 2.7-3.57 2.7-5.76v-5.78c0-.54-.3-.97-.82-1.16l-6.24-2.34z"/>
    <path fill="#fff" fill-opacity="0" d="M95.86 1405.9a6 6 0 0 1 6-6h73a6 6 0 0 1 6 6v21.1a6 6 0 0 1-6 6h-73a6 6 0 0 1-6-6z"/>
    <use xlink:href="#C" transform="translate(113.367 1416.004)"/>
    <use xlink:href="#D" transform="translate(118.784 1429.337)"/>
    <use xlink:href="#G" transform="translate(151.784 1429.337)"/>
    <use xlink:href="#n" stroke-opacity="0"/>
    <use xlink:href="#o" stroke-opacity="0"/>
    <use xlink:href="#p" fill-opacity="0"/>
    <use xlink:href="#l" transform="translate(-137.36 1133.06)"/>
    <use xlink:href="#m" transform="translate(-91.76 1133.06)"/>
    <use xlink:href="#q" fill-opacity="0"/>
    <use xlink:href="#r" transform="translate(-264.798 1133.06)"/>
    <use xlink:href="#s" transform="translate(-220.987 1133.06)"/>
    <use xlink:href="#t" stroke-opacity="0"/>
    <use xlink:href="#u" stroke-opacity="0"/>
    <defs>
      <g id="a">
        <use xlink:href="#K" transform="scale(.01333)"/>
        <use xlink:href="#L" transform="translate(7.88) scale(.01333)"/>
        <use xlink:href="#M" transform="translate(15.4) scale(.01333)"/>
        <use xlink:href="#N" transform="translate(24.933) scale(.01333)"/>
        <use xlink:href="#M" transform="translate(34.107) scale(.01333)"/>
        <use xlink:href="#K" transform="translate(43.64) scale(.01333)"/>
      </g>
      <g id="c">
        <use xlink:href="#M" transform="scale(.01333)"/>
        <use xlink:href="#N" transform="translate(9.533) scale(.01333)"/>
        <use xlink:href="#O" transform="translate(18.707) scale(.01333)"/>
        <use xlink:href="#L" transform="translate(30.027) scale(.01333)"/>
        <use xlink:href="#P" transform="translate(37.413) scale(.01333)"/>
        <use xlink:href="#Q" transform="translate(45.627) scale(.01333)"/>
        <use xlink:href="#N" transform="translate(52.293) scale(.01333)"/>
        <use xlink:href="#R" transform="translate(61.467) scale(.01333)"/>
        <use xlink:href="#L" transform="translate(70.987) scale(.01333)"/>
      </g>
      <g id="d">
        <use xlink:href="#N" transform="scale(.01333)"/>
        <use xlink:href="#S" transform="translate(9.173) scale(.01333)"/>
        <use xlink:href="#O" transform="translate(18.493) scale(.01333)"/>
        <use xlink:href="#T" transform="translate(29.813) scale(.01333)"/>
        <use xlink:href="#M" transform="translate(33.48) scale(.01333)"/>
      </g>
      <g id="e">
        <use xlink:href="#M" transform="scale(.01333)"/>
        <use xlink:href="#N" transform="translate(9.533) scale(.01333)"/>
        <use xlink:href="#O" transform="translate(18.707) scale(.01333)"/>
        <use xlink:href="#L" transform="translate(30.027) scale(.01333)"/>
        <use xlink:href="#P" transform="translate(37.413) scale(.01333)"/>
        <use xlink:href="#Q" transform="translate(45.627) scale(.01333)"/>
        <use xlink:href="#N" transform="translate(52.293) scale(.01333)"/>
        <use xlink:href="#R" transform="translate(61.467) scale(.01333)"/>
        <use xlink:href="#L" transform="translate(70.987) scale(.01333)"/>
      </g>
      <g id="f">
        <use xlink:href="#U" transform="scale(.01333)"/>
        <use xlink:href="#V" transform="translate(8.227) scale(.01333)"/>
        <use xlink:href="#V" transform="translate(18.147) scale(.01333)"/>
        <use xlink:href="#K" transform="translate(27.533) scale(.01333)"/>
      </g>
      <g id="g">
        <use xlink:href="#M" transform="scale(.01111)"/>
        <use xlink:href="#N" transform="translate(7.944) scale(.01111)"/>
        <use xlink:href="#O" transform="translate(15.589) scale(.01111)"/>
        <use xlink:href="#L" transform="translate(25.022) scale(.01111)"/>
        <use xlink:href="#P" transform="translate(31.178) scale(.01111)"/>
        <use xlink:href="#Q" transform="translate(38.022) scale(.01111)"/>
        <use xlink:href="#N" transform="translate(43.578) scale(.01111)"/>
        <use xlink:href="#R" transform="translate(51.222) scale(.01111)"/>
        <use xlink:href="#L" transform="translate(59.156) scale(.01111)"/>
      </g>
      <g id="h">
        <use xlink:href="#Q" transform="scale(.01111)"/>
        <use xlink:href="#V" transform="translate(6.667) scale(.01111)"/>
        <use xlink:href="#W" transform="translate(14.933) scale(.01111)"/>
        <use xlink:href="#T" transform="translate(20.667) scale(.01111)"/>
        <use xlink:href="#R" transform="translate(23.722) scale(.01111)"/>
        <use xlink:href="#T" transform="translate(31.656) scale(.01111)"/>
        <use xlink:href="#L" transform="translate(34.711) scale(.01111)"/>
        <use xlink:href="#P" transform="translate(40.867) scale(.01111)"/>
      </g>
      <g id="i">
        <use xlink:href="#K" transform="scale(.01333)"/>
        <use xlink:href="#L" transform="translate(7.88) scale(.01333)"/>
        <use xlink:href="#M" transform="translate(15.4) scale(.01333)"/>
        <use xlink:href="#N" transform="translate(24.933) scale(.01333)"/>
        <use xlink:href="#M" transform="translate(34.107) scale(.01333)"/>
        <use xlink:href="#K" transform="translate(43.64) scale(.01333)"/>
      </g>
      <g id="k">
        <use xlink:href="#M" transform="scale(.01333)"/>
        <use xlink:href="#N" transform="translate(9.533) scale(.01333)"/>
        <use xlink:href="#O" transform="translate(18.707) scale(.01333)"/>
        <use xlink:href="#L" transform="translate(30.027) scale(.01333)"/>
        <use xlink:href="#P" transform="translate(37.413) scale(.01333)"/>
        <use xlink:href="#Q" transform="translate(45.627) scale(.01333)"/>
        <use xlink:href="#N" transform="translate(52.293) scale(.01333)"/>
        <use xlink:href="#R" transform="translate(61.467) scale(.01333)"/>
        <use xlink:href="#L" transform="translate(70.987) scale(.01333)"/>
      </g>
      <g id="l">
        <use xlink:href="#K" transform="scale(.01111)"/>
        <use xlink:href="#L" transform="translate(6.567) scale(.01111)"/>
        <use xlink:href="#M" transform="translate(12.833) scale(.01111)"/>
        <use xlink:href="#N" transform="translate(20.778) scale(.01111)"/>
        <use xlink:href="#M" transform="translate(28.422) scale(.01111)"/>
        <use xlink:href="#K" transform="translate(36.367) scale(.01111)"/>
      </g>
      <g id="m">
        <use xlink:href="#Q" transform="scale(.01111)"/>
        <use xlink:href="#V" transform="translate(6.667) scale(.01111)"/>
        <use xlink:href="#W" transform="translate(14.933) scale(.01111)"/>
        <use xlink:href="#T" transform="translate(20.667) scale(.01111)"/>
        <use xlink:href="#R" transform="translate(23.722) scale(.01111)"/>
        <use xlink:href="#T" transform="translate(31.656) scale(.01111)"/>
        <use xlink:href="#L" transform="translate(34.711) scale(.01111)"/>
        <use xlink:href="#P" transform="translate(40.867) scale(.01111)"/>
      </g>
      <g id="r">
        <use xlink:href="#X" transform="scale(.01111)"/>
        <use xlink:href="#Y" transform="translate(7.922) scale(.01111)"/>
        <use xlink:href="#O" transform="translate(15.678) scale(.01111)"/>
        <use xlink:href="#N" transform="translate(25.111) scale(.01111)"/>
        <use xlink:href="#M" transform="translate(32.756) scale(.01111)"/>
      </g>
      <g id="s">
        <use xlink:href="#N" transform="scale(.01111)"/>
        <use xlink:href="#Y" transform="translate(7.644) scale(.01111)"/>
        <use xlink:href="#K" transform="translate(15.4) scale(.01111)"/>
        <use xlink:href="#X" transform="translate(21.967) scale(.01111)"/>
      </g>
      <g id="v">
        <use xlink:href="#Z" transform="scale(.01111)"/>
        <use xlink:href="#N" transform="translate(6.522) scale(.01111)"/>
        <use xlink:href="#Y" transform="translate(14.167) scale(.01111)"/>
        <use xlink:href="#W" transform="translate(21.922) scale(.01111)"/>
        <use xlink:href="#K" transform="translate(26.544) scale(.01111)"/>
      </g>
      <g id="w">
        <use xlink:href="#V" transform="scale(.01111)"/>
        <use xlink:href="#Q" transform="translate(8.267) scale(.01111)"/>
        <use xlink:href="#L" transform="translate(14.933) scale(.01111)"/>
        <use xlink:href="#U" transform="translate(21.2) scale(.01111)"/>
        <use xlink:href="#N" transform="translate(28.389) scale(.01111)"/>
        <use xlink:href="#K" transform="translate(36.033) scale(.01111)"/>
        <use xlink:href="#V" transform="translate(42.156) scale(.01111)"/>
        <use xlink:href="#U" transform="translate(50.422) scale(.01111)"/>
      </g>
      <g id="x">
        <use xlink:href="#N" transform="scale(.01111)"/>
        <use xlink:href="#Y" transform="translate(7.644) scale(.01111)"/>
        <use xlink:href="#K" transform="translate(15.4) scale(.01111)"/>
        <use xlink:href="#X" transform="translate(21.967) scale(.01111)"/>
      </g>
      <g id="y">
        <use xlink:href="#M" transform="scale(.01111)"/>
        <use xlink:href="#N" transform="translate(7.944) scale(.01111)"/>
        <use xlink:href="#O" transform="translate(15.589) scale(.01111)"/>
        <use xlink:href="#L" transform="translate(25.022) scale(.01111)"/>
        <use xlink:href="#P" transform="translate(31.178) scale(.01111)"/>
        <use xlink:href="#Q" transform="translate(38.022) scale(.01111)"/>
        <use xlink:href="#N" transform="translate(43.578) scale(.01111)"/>
        <use xlink:href="#R" transform="translate(51.222) scale(.01111)"/>
        <use xlink:href="#L" transform="translate(59.156) scale(.01111)"/>
      </g>
      <g id="z">
        <use xlink:href="#P" transform="scale(.01111)"/>
        <use xlink:href="#L" transform="translate(6.844) scale(.01111)"/>
        <use xlink:href="#R" transform="translate(12.778) scale(.01111)"/>
        <use xlink:href="#U" transform="translate(20.711) scale(.01111)"/>
        <use xlink:href="#L" transform="translate(27.9) scale(.01111)"/>
        <use xlink:href="#K" transform="translate(34.167) scale(.01111)"/>
      </g>
      <g id="A">
        <use xlink:href="#O" transform="scale(.01111)"/>
        <use xlink:href="#V" transform="translate(9.433) scale(.01111)"/>
        <use xlink:href="#Y" transform="translate(17.7) scale(.01111)"/>
        <use xlink:href="#M" transform="translate(25.456) scale(.01111)"/>
        <use xlink:href="#K" transform="translate(33.4) scale(.01111)"/>
      </g>
      <g id="C">
        <use xlink:href="#O" transform="scale(.01111)"/>
        <use xlink:href="#N" transform="translate(9.433) scale(.01111)"/>
        <use xlink:href="#R" transform="translate(17.078) scale(.01111)"/>
        <use xlink:href="#X" transform="translate(25.011) scale(.01111)"/>
        <use xlink:href="#T" transform="translate(32.933) scale(.01111)"/>
        <use xlink:href="#M" transform="translate(35.989) scale(.01111)"/>
        <use xlink:href="#L" transform="translate(43.933) scale(.01111)"/>
      </g>
      <g id="D">
        <use xlink:href="#N" transform="scale(.01111)"/>
        <use xlink:href="#Y" transform="translate(7.644) scale(.01111)"/>
        <use xlink:href="#K" transform="translate(15.4) scale(.01111)"/>
        <use xlink:href="#X" transform="translate(21.967) scale(.01111)"/>
      </g>
      <g id="H">
        <use xlink:href="#K" transform="scale(.01111)"/>
        <use xlink:href="#L" transform="translate(6.567) scale(.01111)"/>
        <use xlink:href="#M" transform="translate(12.833) scale(.01111)"/>
        <use xlink:href="#N" transform="translate(20.778) scale(.01111)"/>
        <use xlink:href="#M" transform="translate(28.422) scale(.01111)"/>
        <use xlink:href="#K" transform="translate(36.367) scale(.01111)"/>
      </g>
      <g id="I">
        <use xlink:href="#P" transform="scale(.01111)"/>
        <use xlink:href="#L" transform="translate(6.844) scale(.01111)"/>
        <use xlink:href="#R" transform="translate(12.778) scale(.01111)"/>
        <use xlink:href="#U" transform="translate(20.711) scale(.01111)"/>
        <use xlink:href="#L" transform="translate(27.9) scale(.01111)"/>
        <use xlink:href="#K" transform="translate(34.167) scale(.01111)"/>
      </g>
      <g id="J">
        <use xlink:href="#O" transform="scale(.01111)"/>
        <use xlink:href="#V" transform="translate(9.433) scale(.01111)"/>
        <use xlink:href="#Y" transform="translate(17.7) scale(.01111)"/>
        <use xlink:href="#M" transform="translate(25.456) scale(.01111)"/>
        <use xlink:href="#K" transform="translate(33.4) scale(.01111)"/>
      </g>
      <path id="K" fill="#3a414a" d="m242 0 1-597H1L0-700h590l1 103-241-1-1 598H242"/>
      <path id="L" fill="#3a414a" d="M75 0v-700h459v107H182v187h331v103H182v196h352V0H75"/>
      <path id="M" fill="#3a414a" d="M495 0 180-535V0H75v-700h135l325 552v-552h105V1"/>
      <path id="N" fill="#3a414a" d="M145 0 20-1l268-699h112L668 0H543l-66-172H210zm95-272h207L344-563"/>
      <path id="O" fill="#3a414a" d="M75 0v-700h136l219 547 213-547h131V0H668v-500L475 0h-93L186-500V0H75"/>
      <path id="P" fill="#3a414a" d="M322 7C183 7 46-66 35-216h124c17 74 72 119 163 119 87 0 134-55 134-105 0-53-33-88-128-98C123-322 54-407 54-501c0-113 105-205 250-205 158 0 256 84 262 222H448c-5-73-69-114-145-114-82 0-124 49-124 93 0 55 56 88 142 98 201 23 260 105 260 206C581-73 472 7 322 7"/>
      <path id="Q" fill="#3a414a" d="M75 1v-701l300-1c123 0 205 93 205 214 0 120-84 210-211 210H183V1H75zm108-373h164c69 0 124-39 124-116 0-78-55-118-124-118H183v234"/>
      <path id="R" fill="#3a414a" d="M367 5C185 5 39-144 40-347c1-206 138-360 334-360 174 0 284 112 305 254H553c-14-75-81-145-184-145-127 0-206 114-206 252 0 135 79 243 202 243 108 0 174-77 188-148h126C656-113 547 5 367 5"/>
      <path id="S" fill="#3a414a" d="M75 2v-702l251-2c189-2 333 143 333 347C659-148 519-1 336 0zm104-106 143-2c126-2 226-99 226-245 0-147-98-244-222-242l-147 2v487"/>
      <path id="T" fill="#3a414a" d="M80 0v-700h115V0H80"/>
      <path id="U" fill="#3a414a" d="M75 1v-701l302-1c123 0 205 85 205 193 0 92-53 155-106 173 62 20 87 75 94 161 8 97 3 130 27 174H473c-15-36-14-74-19-149-7-98-21-147-144-147H185V1H75zm110-392c129-5 288 32 288-107 1-141-158-103-288-108v215"/>
      <path id="V" fill="#3a414a" d="M372 10C188 10 40-139 40-350c0-210 148-358 332-358s332 149 332 360c0 210-148 358-332 358zm-1-107c128 0 218-105 218-248 0-148-90-258-217-258-126 0-215 109-215 256 0 144 89 250 214 250"/>
      <path id="W" fill="#3a414a" d="M75 0v-700h116v590h310V0H75"/>
      <path id="aa" fill="#3a414a" d="M75 2v-702h289c113 0 202 65 202 181 0 69-43 118-89 140 69 26 122 100 121 184C596-74 517 2 392 2H75zm107-413h181c48 0 88-40 88-92 0-54-31-98-93-98H182v190zm2 307h187c61 0 104-39 104-103 0-60-43-106-104-106H184v209"/>
      <path id="X" fill="#3a414a" d="M75 0v-700h117v292h329v-292h117V0H521v-312H192V0H75"/>
      <path id="Y" fill="#3a414a" d="M349 8C177 8 65-101 65-273v-427h110v427c0 115 69 178 174 178 103 0 174-63 174-178v-427h110v427C633-101 521 8 349 8"/>
      <path id="Z" fill="#3a414a" d="M272 0 10-700h113l201 552 201-552h112L375 0H272"/>
      <path id="ab" fill="#3a414a" d="M506 0H60v-92h168v-490L60-462v-103l183-135h88v608h175V0"/>
      <path id="ac" fill="#3a414a" d="M34 0v-107l159-137c127-109 204-162 204-244 0-72-49-119-123-119-72 0-124 50-133 127H26c6-137 106-229 249-229 134 0 233 92 233 216S407-297 291-194l-104 92h326V0H34"/>
      <use xlink:href="#N" id="b" transform="scale(.01333)"/>
      <use xlink:href="#aa" id="j" transform="scale(.01333)"/>
      <use xlink:href="#ab" id="B" transform="scale(.01111)"/>
      <use xlink:href="#ac" id="E" transform="scale(.01111)"/>
      <use xlink:href="#ac" id="F" transform="scale(.01111)"/>
      <use xlink:href="#ab" id="G" transform="scale(.01111)"/>
    </defs>
  </g>
</svg>
